<?xml version="1.0" encoding="UTF-8" standalone="no"?>
<svg
   width="245.75978"
   height="121.66326"
   viewBox="0 0 136.79082 66.914794"
   fill="none"
   version="1.1"
   id="svg11"
   xml:space="preserve"
   xmlns="http://www.w3.org/2000/svg"
   xmlns:svg="http://www.w3.org/2000/svg"><defs
     id="defs11" /><g
     id="layer1"
     style="display:none"
     transform="translate(-29.938108,-1.1827827)"><path
       style="display:inline;fill:#4f4848;fill-opacity:1;stroke-width:0.520378"
       d="m 3.8778876,44.424936 c 0,-0.0038 0.053379,-0.08237 0.1185928,-0.175015 1.3565961,-1.926438 2.302637,-4.118214 2.7755583,-6.430378 0.031469,-0.153953 1.5380788,-6.216075 3.3479683,-13.471389 1.809889,-7.255313 3.290706,-13.198994 3.290706,-13.208177 0,-0.02864 -7.8687059,-0.01583 -8.1742355,0.01347 -1.7587348,0.167805 -3.442282,0.714106 -4.76287488,1.54552 -0.0348491,0.02199 -0.065037,0.03815 -0.0671337,0.03603 -0.002336,-0.002 0.73724988,-1.850269 1.64304588,-4.1070075 l 1.6468799,-4.1031579 18.9782463,-0.0033 c 10.438033,-0.00175 18.978244,0.00151 18.978244,0.00709 0,0.033849 -0.7904,8.2042474 -0.794024,8.2078754 -0.0023,0.0027 -0.03534,-0.02056 -0.07297,-0.05118 -1.229788,-0.99767 -2.907146,-1.584295 -4.510377,-1.577415 -0.203002,8.87e-4 -2.002492,0.0052 -3.998854,0.009 -3.419555,0.0069 -3.630117,0.0088 -3.63619,0.02936 -0.02423,0.08237 -6.634802,26.653041 -6.708904,26.965839 -0.532445,2.247474 -0.698672,3.785732 -0.5522,5.11005 0.03763,0.340292 0.157262,1.016717 0.209927,1.186831 0.0069,0.02127 -0.420835,0.02223 -8.852243,0.02223 -4.8725268,0 -8.8591301,-0.0031 -8.8591301,-0.0064 z m 73.7865364,-0.04738 c 0.005,-0.02982 0.165323,-1.846863 0.358348,-4.037889 0.193004,-2.19102 0.352665,-3.985415 0.354716,-3.987539 0.0023,-0.0022 0.06305,0.03276 0.135657,0.07751 1.292783,0.797417 2.846631,1.287364 4.427392,1.395995 0.260447,0.01773 15.979922,0.01797 16.475093,2.62e-4 1.71321,-0.06189 2.21291,-0.355382 2.55675,-1.501707 0.0484,-0.161116 0.75348,-2.958878 0.79715,-3.162761 0.22187,-1.035902 -0.0866,-1.402753 -1.27879,-1.520589 -0.4176,-0.04128 -0.5716,-0.0423 -7.62372,-0.05125 -4.990919,-0.0061 -7.130825,-0.01324 -7.26098,-0.02317 -0.610119,-0.04675 -0.721612,-0.05692 -1.018201,-0.09289 -3.855529,-0.467815 -5.112089,-2.406586 -4.377681,-6.754408 0.112593,-0.666782 0.217396,-1.138266 0.542246,-2.439665 0.122277,-0.490006 0.642853,-2.578476 1.15679,-4.641046 0.96399,-3.868772 1.020029,-4.089187 1.151592,-4.52905 1.550373,-5.183759 4.880732,-8.163092 9.538954,-8.5335455 0.547013,-0.043517 0.850364,-0.044392 15.08492,-0.044581 l 14.20672,-1.656e-4 -0.007,0.054107 c -0.008,0.0681 -0.64199,7.7900061 -0.64199,7.8233501 0,0.0208 -0.0452,0.0027 -0.29591,-0.119888 -1.33745,-0.652676 -2.69909,-1.023229 -4.16505,-1.133474 -0.31528,-0.02373 -15.56454,-0.02896 -16.20835,-0.0055 -1.750778,0.06359 -2.337287,0.395991 -2.678019,1.51777 -0.04952,0.1631 -0.650683,2.588306 -0.680583,2.74564 -0.178655,0.940524 0.123408,1.301047 1.188576,1.418504 0.448259,0.04942 0.413807,0.04914 6.898266,0.05917 3.47903,0.0055 6.36562,0.01324 6.41461,0.01702 0.0491,0.0042 0.22858,0.01583 0.39908,0.02666 5.49641,0.340873 7.58351,2.735295 6.56144,7.527624 -0.0591,0.27718 -2.5357,10.237407 -2.65988,10.697386 -1.5652,5.797778 -4.49838,8.572912 -9.68434,9.162499 -0.25744,0.02927 -0.44752,0.04661 -0.94818,0.08652 -0.13774,0.01093 -3.80561,0.01584 -14.455955,0.01891 l -14.271408,0.0044 z m 43.972376,0.0061 c 0.005,-0.02624 0.16544,-1.843247 0.35882,-4.037771 0.19341,-2.194521 0.35305,-3.991568 0.35477,-3.99344 10e-4,-0.0019 0.0828,0.04444 0.18002,0.102897 1.33044,0.79938 2.81262,1.262173 4.38967,1.370613 0.25662,0.01749 15.9722,0.01726 16.47092,-2.01e-4 1.65975,-0.05874 2.18333,-0.343488 2.51562,-1.368088 0.053,-0.163573 0.77342,-3.003728 0.8361,-3.296398 0.22126,-1.03324 -0.0876,-1.404098 -1.26608,-1.520585 -0.41762,-0.04127 -0.57147,-0.04232 -7.63007,-0.05126 -5.00907,-0.0061 -7.13684,-0.01324 -7.26735,-0.02317 -0.46785,-0.03595 -0.556,-0.04349 -0.78274,-0.06684 -4.12349,-0.424752 -5.41811,-2.440647 -4.55619,-7.094627 0.13008,-0.702397 0.10862,-0.613284 1.26822,-5.262781 0.53859,-2.159526 1.05603,-4.235684 1.14985,-4.61369 0.17963,-0.723699 0.26972,-1.062516 0.37624,-1.415091 1.54624,-5.1182001 4.74228,-8.0426274 9.30923,-8.5180941 0.58079,-0.060465 -0.43475,-0.0564 15.09766,-0.060607 l 14.42311,-0.00402 -0.006,0.054248 c -0.008,0.068715 -0.65466,7.7907731 -0.65466,7.8236651 0,0.02056 -0.0463,0.0018 -0.29591,-0.120053 -1.33746,-0.652677 -2.69907,-1.023232 -4.16505,-1.133474 -0.31565,-0.02375 -15.5526,-0.02896 -16.19563,-0.0055 -1.70101,0.06193 -2.28682,0.366254 -2.62921,1.365876 -0.0949,0.277023 -0.71834,2.792036 -0.75662,3.052191 -0.12199,0.829344 0.18797,1.151578 1.21581,1.263829 0.45537,0.04974 0.39338,0.04917 6.88552,0.05921 3.47904,0.0052 6.36563,0.01324 6.41462,0.01702 0.0491,0.0042 0.2286,0.01583 0.39908,0.02666 4.30991,0.267293 6.45815,1.759372 6.78828,4.714872 0.0255,0.228459 0.0211,1.159404 -0.006,1.419105 -0.085,0.793253 -0.15433,1.153269 -0.45976,2.387727 -0.72688,2.938042 -2.35191,9.452551 -2.4268,9.728763 -1.67971,6.194287 -4.93039,8.951367 -10.88687,9.23375 -0.17386,0.0083 -5.19478,0.01276 -14.36082,0.01276 l -14.09353,1.9e-5 z m -82.206156,-0.06751 c -4.681243,-0.121641 -6.596995,-1.847784 -6.256793,-5.637552 0.08869,-0.987758 0.230586,-1.820595 0.505288,-2.965486 0.161729,-0.673998 3.040132,-12.212249 3.109967,-12.466493 1.37175,-4.993802 3.497213,-7.255585 7.49193,-7.972437 0.587212,-0.105349 1.027357,-0.155016 1.953655,-0.220351 0.29101,-0.02056 23.679667,-0.03059 24.239336,-0.01042 4.597254,0.165512 6.434138,1.851427 6.115913,5.613169 -0.05711,0.674556 -0.134333,1.211593 -0.28026,1.94777 -0.139723,0.704854 -0.05233,0.35036 -1.520339,6.170042 -0.570907,2.263276 -1.03801,4.117494 -1.03801,4.120493 0,0.0031 -5.542318,0.0066 -12.316251,0.0085 l -12.31626,0.0033 -0.358853,1.436694 c -0.407188,1.630198 -0.440006,1.791897 -0.458796,2.260605 -0.05212,1.299002 0.634824,1.91621 2.251739,2.023273 0.271858,0.01797 16.056207,0.01915 16.325627,0.0013 1.778872,-0.118592 3.465917,-0.509649 5.063263,-1.173713 0.135256,-0.05623 0.247357,-0.100266 0.249083,-0.09786 0.0012,0.0025 -0.638832,1.570786 -1.423484,3.485307 l -1.426631,3.480942 -14.776256,0.0011 c -8.126935,6.24e-4 -14.937189,-0.0031 -15.133868,-0.008 z m 21.91427,-19.19224 c 0.660477,-2.663769 0.639406,-2.563695 0.639452,-3.035484 8e-5,-0.770916 -0.304609,-1.112937 -1.113165,-1.249559 -0.193333,-0.03267 -6.797944,-0.04283 -7.108251,-0.01106 -0.996601,0.102427 -1.580176,0.545352 -1.978031,1.501286 -0.145678,0.350088 -0.171751,0.448981 -0.988649,3.75565 -0.143528,0.581004 -0.263384,1.063539 -0.266322,1.072296 -0.005,0.01276 1.027862,0.01561 5.151564,0.01276 l 5.156915,-0.0033 z"
       id="path2" /><path
       style="font-weight:bold;font-size:30.6667px;font-family:'Plus Jakarta Sans';-inkscape-font-specification:'Plus Jakarta Sans Bold';text-align:center;letter-spacing:0px;white-space:pre;display:none;fill:#4f4848;stroke-width:4.84772;stroke-linejoin:round;paint-order:markers stroke fill"
       d="M 58.433965,68.054941 V 48.519117 h 7.289886 q 1.992901,0 3.513821,0.734231 1.547127,0.70801 2.412467,2.097806 0.865355,1.363575 0.865355,3.330268 0,1.940471 -0.891564,3.330269 -0.865354,1.363573 -2.386258,2.097806 -1.52092,0.734231 -3.513821,0.734231 h -3.723613 v 7.211213 z m 3.566273,-10.357922 h 3.776045 q 0.970234,0 1.678246,-0.367117 0.708013,-0.393338 1.101354,-1.075125 0.393343,-0.681786 0.393343,-1.573355 0,-0.91779 -0.393343,-1.573354 -0.393341,-0.681787 -1.101354,-1.048904 -0.708012,-0.393338 -1.678246,-0.393338 H 62.000238 Z M 75.137767,68.054941 V 48.204444 h 3.435165 v 19.850497 z m 10.934836,0.314671 q -1.49468,0 -2.596034,-0.49823 -1.101353,-0.498233 -1.704471,-1.416022 -0.603117,-0.944012 -0.603117,-2.176475 0,-1.180014 0.524445,-2.097806 0.524462,-0.944012 1.6258,-1.573354 1.101354,-0.629342 2.779601,-0.891569 l 4.667623,-0.760453 v 2.622258 l -4.012059,0.681787 q -1.022682,0.183557 -1.520904,0.655564 -0.498236,0.472005 -0.498236,1.232462 0,0.734232 0.550684,1.180015 0.576893,0.419562 1.416009,0.419562 1.07513,0 1.888021,-0.445783 0.839132,-0.472007 1.284921,-1.284908 0.471998,-0.812898 0.471998,-1.783135 v -3.67116 q 0,-0.917791 -0.734236,-1.52091 -0.708012,-0.629342 -1.888022,-0.629342 -1.101354,0 -1.966694,0.603119 -0.839115,0.576896 -1.232457,1.547133 L 81.71965,57.19879 q 0.419566,-1.12757 1.31113,-1.940472 0.917802,-0.839122 2.15026,-1.311128 1.232457,-0.472006 2.674705,-0.472006 1.756903,0 3.094255,0.655565 1.337354,0.629342 2.071589,1.783135 0.76046,1.127571 0.76046,2.648481 v 9.492576 H 90.53045 v -2.438702 l 0.734221,-0.05245 q -0.550669,0.91779 -1.311129,1.547126 -0.760444,0.603124 -1.730679,0.944021 -0.970234,0.31467 -2.15026,0.31467 z m 17.123327,-0.157335 q -2.41246,0 -3.749813,-1.311134 -1.311131,-1.337349 -1.311131,-3.749827 v -6.293419 h -2.464931 v -3.068043 h 0.262239 q 1.04889,0 1.625799,-0.550673 0.576893,-0.550675 0.576893,-1.599577 v -1.10135 h 3.435154 v 3.2516 h 3.27782 v 3.068043 h -3.27782 v 6.10986 q 0,0.70801 0.23602,1.206238 0.26222,0.498231 0.78665,0.760456 0.55069,0.262226 1.38981,0.262226 0.18355,0 0.41957,-0.02623 0.26222,-0.02623 0.49822,-0.05244 v 2.936932 q -0.36712,0.05242 -0.83912,0.10488 -0.47201,0.05242 -0.86536,0.05242 z m 5.97876,-0.157336 V 56.857897 h -2.51736 v -3.068043 h 2.51736 v -0.472005 q 0,-1.625801 0.65556,-2.753373 0.68179,-1.153793 1.88804,-1.756911 1.20624,-0.603121 2.85826,-0.603121 0.31466,0 0.68179,0.05245 0.39334,0.02623 0.65556,0.07867 v 2.963154 q -0.26222,-0.05245 -0.49824,-0.05245 -0.20978,-0.02623 -0.39333,-0.02623 -1.1538,0 -1.78313,0.524453 -0.62935,0.498228 -0.62935,1.573356 v 0.472005 h 3.17293 v 3.068042 h -3.17293 V 68.05494 Z m 15.57619,0.314671 q -2.0978,0 -3.8285,-0.970238 -1.70446,-0.970237 -2.72715,-2.648481 -0.99645,-1.678246 -0.99645,-3.828496 0,-2.150252 0.99645,-3.828498 1.02269,-1.678244 2.72715,-2.64848 1.70447,-0.970235 3.8285,-0.970235 2.09781,0 3.80226,0.970235 1.70448,0.970236 2.70094,2.64848 1.02268,1.652023 1.02268,3.828498 0,2.15025 -1.02268,3.828496 -1.02269,1.678244 -2.72715,2.648481 -1.70446,0.970238 -3.77605,0.970238 z m 0,-3.146712 q 1.1538,0 2.01913,-0.550674 0.89157,-0.550676 1.38981,-1.52091 0.52444,-0.996458 0.52444,-2.228919 0,-1.258685 -0.52444,-2.202697 -0.49824,-0.970235 -1.38981,-1.52091 -0.86533,-0.576897 -2.01913,-0.576897 -1.18001,0 -2.0716,0.576897 -0.89156,0.550675 -1.416,1.52091 -0.49824,0.944012 -0.49824,2.202697 0,1.232461 0.49824,2.228919 0.52444,0.970234 1.416,1.52091 0.89159,0.550674 2.0716,0.550674 z m 10.12193,2.832041 V 53.789854 h 3.22537 v 3.172934 l -0.26223,-0.472007 q 0.49823,-1.599577 1.54713,-2.22892 1.07514,-0.629342 2.56982,-0.629342 h 0.83911 v 3.041819 h -1.23246 q -1.46845,0 -2.36002,0.91779 -0.89157,0.891568 -0.89157,2.517369 v 7.945444 z m 9.80725,0 V 53.789854 h 3.22537 v 3.304045 l -0.36711,-0.550674 q 0.39334,-1.547133 1.57337,-2.307586 1.18001,-0.760455 2.77958,-0.760455 1.75692,0 3.09427,0.91779 1.33734,0.91779 1.73068,2.412477 l -0.97021,0.07867 q 0.65555,-1.704468 1.96667,-2.543591 1.31113,-0.865344 3.0156,-0.865344 1.52092,0 2.70093,0.681787 1.20623,0.681787 1.88802,1.914249 0.68179,1.206237 0.68179,2.805814 v 9.177907 h -3.43515 v -8.365005 q 0,-0.944014 -0.34089,-1.625801 -0.34092,-0.681787 -0.94401,-1.048903 -0.60312,-0.393339 -1.46848,-0.393339 -0.81289,0 -1.44223,0.393339 -0.62936,0.367116 -0.97025,1.048903 -0.34089,0.681787 -0.34089,1.625801 v 8.365005 h -3.43516 v -8.365005 q 0,-0.944014 -0.34088,-1.625801 -0.3409,-0.681787 -0.97024,-1.048903 -0.60313,-0.393339 -1.44225,-0.393339 -0.81289,0 -1.44223,0.393339 -0.62934,0.367116 -0.97025,1.048903 -0.34088,0.681787 -0.34088,1.625801 v 8.365005 z"
       id="text1-1"
       aria-label="Platform" /></g><g
     id="layer2"
     transform="translate(-29.938108,-1.1827827)"><path
       style="font-weight:bold;font-size:30.6667px;font-family:'Plus Jakarta Sans';-inkscape-font-specification:'Plus Jakarta Sans Bold';text-align:center;letter-spacing:0px;white-space:pre;display:inline;fill:#1c7292;fill-opacity:1;stroke-width:4.84772;stroke-linejoin:round;paint-order:markers stroke fill"
       d="M 58.613205,68.150497 V 48.614673 h 7.289886 q 1.992901,0 3.513821,0.734231 1.547127,0.70801 2.412467,2.097806 0.865355,1.363575 0.865355,3.330268 0,1.940471 -0.891564,3.330269 -0.865354,1.363573 -2.386258,2.097806 -1.52092,0.734231 -3.513821,0.734231 h -3.723613 v 7.211213 z m 3.566273,-10.357922 h 3.776045 q 0.970234,0 1.678246,-0.367117 0.708013,-0.393338 1.101354,-1.075125 0.393343,-0.681786 0.393343,-1.573355 0,-0.91779 -0.393343,-1.573354 -0.393341,-0.681787 -1.101354,-1.048904 -0.708012,-0.393338 -1.678246,-0.393338 H 62.179478 Z M 75.317007,68.150497 V 48.3 h 3.435165 v 19.850497 z m 10.934836,0.314671 q -1.49468,0 -2.596034,-0.49823 -1.101353,-0.498233 -1.704471,-1.416022 -0.603117,-0.944012 -0.603117,-2.176475 0,-1.180014 0.524445,-2.097806 0.524462,-0.944012 1.6258,-1.573354 1.101354,-0.629342 2.779601,-0.891569 l 4.667623,-0.760453 v 2.622258 l -4.012059,0.681787 q -1.022682,0.183557 -1.520904,0.655564 -0.498236,0.472005 -0.498236,1.232462 0,0.734232 0.550684,1.180015 0.576893,0.419562 1.416009,0.419562 1.07513,0 1.888021,-0.445783 0.839132,-0.472007 1.284921,-1.284908 0.471998,-0.812898 0.471998,-1.783135 v -3.67116 q 0,-0.917791 -0.734236,-1.52091 -0.708012,-0.629342 -1.888022,-0.629342 -1.101354,0 -1.966694,0.603119 -0.839115,0.576896 -1.232457,1.547133 L 81.89889,57.294346 q 0.419566,-1.12757 1.31113,-1.940472 0.917802,-0.839122 2.15026,-1.311128 1.232457,-0.472006 2.674705,-0.472006 1.756903,0 3.094255,0.655565 1.337354,0.629342 2.071589,1.783135 0.76046,1.127571 0.76046,2.648481 v 9.492576 H 90.70969 v -2.438702 l 0.734221,-0.05245 q -0.550669,0.91779 -1.311129,1.547126 -0.760444,0.603124 -1.730679,0.944021 -0.970234,0.31467 -2.15026,0.31467 z m 17.123327,-0.157335 q -2.41246,0 -3.749813,-1.311134 -1.311131,-1.337349 -1.311131,-3.749827 V 56.953453 H 95.849295 V 53.88541 h 0.262239 q 1.04889,0 1.625799,-0.550673 0.576893,-0.550675 0.576893,-1.599577 v -1.10135 h 3.435154 v 3.2516 h 3.27782 v 3.068043 h -3.27782 v 6.10986 q 0,0.70801 0.23602,1.206238 0.26222,0.498231 0.78665,0.760456 0.55069,0.262226 1.38981,0.262226 0.18355,0 0.41957,-0.02623 0.26222,-0.02623 0.49822,-0.05244 v 2.936932 q -0.36712,0.05242 -0.83912,0.10488 -0.47201,0.05242 -0.86536,0.05242 z m 5.97876,-0.157336 V 56.953453 h -2.51736 V 53.88541 h 2.51736 v -0.472005 q 0,-1.625801 0.65556,-2.753373 0.68179,-1.153793 1.88804,-1.756911 Q 113.10377,48.3 114.75579,48.3 q 0.31466,0 0.68179,0.05245 0.39334,0.02623 0.65556,0.07867 v 2.963154 q -0.26222,-0.05245 -0.49824,-0.05245 -0.20978,-0.02623 -0.39333,-0.02623 -1.1538,0 -1.78313,0.524453 -0.62935,0.498228 -0.62935,1.573356 v 0.472005 h 3.17293 v 3.068042 h -3.17293 v 11.197046 z m 15.57619,0.314671 q -2.0978,0 -3.8285,-0.970238 -1.70446,-0.970237 -2.72715,-2.648481 -0.99645,-1.678246 -0.99645,-3.828496 0,-2.150252 0.99645,-3.828498 1.02269,-1.678244 2.72715,-2.64848 1.70447,-0.970235 3.8285,-0.970235 2.09781,0 3.80226,0.970235 1.70448,0.970236 2.70094,2.64848 1.02268,1.652023 1.02268,3.828498 0,2.15025 -1.02268,3.828496 -1.02269,1.678244 -2.72715,2.648481 -1.70446,0.970238 -3.77605,0.970238 z m 0,-3.146712 q 1.1538,0 2.01913,-0.550674 0.89157,-0.550676 1.38981,-1.52091 0.52444,-0.996458 0.52444,-2.228919 0,-1.258685 -0.52444,-2.202697 -0.49824,-0.970235 -1.38981,-1.52091 -0.86533,-0.576897 -2.01913,-0.576897 -1.18001,0 -2.0716,0.576897 -0.89156,0.550675 -1.416,1.52091 -0.49824,0.944012 -0.49824,2.202697 0,1.232461 0.49824,2.228919 0.52444,0.970234 1.416,1.52091 0.89159,0.550674 2.0716,0.550674 z m 10.12193,2.832041 V 53.88541 h 3.22537 v 3.172934 l -0.26223,-0.472007 q 0.49823,-1.599577 1.54713,-2.22892 1.07514,-0.629342 2.56982,-0.629342 h 0.83911 v 3.041819 h -1.23246 q -1.46845,0 -2.36002,0.91779 -0.89157,0.891568 -0.89157,2.517369 v 7.945444 z m 9.80725,0 V 53.88541 h 3.22537 v 3.304045 l -0.36711,-0.550674 q 0.39334,-1.547133 1.57337,-2.307586 1.18001,-0.760455 2.77958,-0.760455 1.75692,0 3.09427,0.91779 1.33734,0.91779 1.73068,2.412477 l -0.97021,0.07867 q 0.65555,-1.704468 1.96667,-2.543591 1.31113,-0.865344 3.0156,-0.865344 1.52092,0 2.70093,0.681787 1.20623,0.681787 1.88802,1.914249 0.68179,1.206237 0.68179,2.805814 v 9.177907 h -3.43515 v -8.365005 q 0,-0.944014 -0.34089,-1.625801 -0.34092,-0.681787 -0.94401,-1.048903 -0.60312,-0.393339 -1.46848,-0.393339 -0.81289,0 -1.44223,0.393339 -0.62936,0.367116 -0.97025,1.048903 -0.34089,0.681787 -0.34089,1.625801 v 8.365005 h -3.43516 v -8.365005 q 0,-0.944014 -0.34088,-1.625801 -0.3409,-0.681787 -0.97024,-1.048903 -0.60313,-0.393339 -1.44225,-0.393339 -0.81289,0 -1.44223,0.393339 -0.62934,0.367116 -0.97025,1.048903 -0.34088,0.681787 -0.34088,1.625801 v 8.365005 z"
       id="text1-1-4"
       aria-label="Platform" /><path
       id="text7"
       style="font-style:italic;font-weight:800;font-size:80px;font-family:'Plus Jakarta Sans';-inkscape-font-specification:'Plus Jakarta Sans Ultra-Bold Italic';text-align:center;letter-spacing:0px;text-anchor:middle;white-space:pre;display:inline;fill:#1c7292;fill-opacity:1;stroke-width:5.66929;stroke-linejoin:round;paint-order:markers stroke fill"
       d="m 177.43783,17.04021 c -4.05333,0 -7.70684,0.825843 -10.96016,2.479172 -3.2,1.653331 -5.76026,3.894486 -7.68026,6.721147 -1.86666,2.773328 -2.79887,5.920102 -2.79887,9.440096 0,3.839992 1.04006,7.093136 3.12006,9.759798 2.13332,2.613327 5.38647,4.666858 9.75979,6.160187 l 10.55906,3.59961 c 1.81332,0.586667 3.12079,1.332731 3.92079,2.239396 0.8,0.906665 1.20036,1.99991 1.20036,3.279908 0,1.33333 -0.40036,2.534425 -1.20036,3.60109 -0.72973,1.042464 -1.77016,1.876796 -3.11118,2.511734 h 15.2643 c 1.00296,-2.157084 1.52747,-4.482532 1.52747,-6.992005 0,-3.78666 -1.09472,-6.960027 -3.28139,-9.520021 -2.13333,-2.559996 -5.38647,-4.586932 -9.7598,-6.080263 l -10.31927,-3.59961 c -1.81334,-0.639998 -3.14739,-1.440728 -4.00072,-2.400726 -0.85333,-0.959998 -1.27881,-2.159614 -1.27881,-3.59961 0,-1.386665 0.3457,-2.586279 1.03903,-3.59961 0.74667,-1.013332 1.76013,-1.787469 3.04013,-2.320802 1.33334,-0.586665 2.88013,-0.879181 4.64013,-0.879181 2.98665,0 5.54692,0.772658 7.68025,2.319321 2.18666,1.493331 3.70686,3.600045 4.5602,6.320039 l 10.3992,-4.079163 c -0.8,-3.14666 -2.23894,-5.867958 -4.31894,-8.161287 -2.08,-2.293328 -4.66685,-4.052863 -7.76018,-5.279526 -3.04,-1.279998 -6.45418,-1.919694 -10.24083,-1.919694 z m 52.00045,0 c -4.05333,0 -7.70684,0.825843 -10.96016,2.479172 -3.2,1.653331 -5.76026,3.894486 -7.68026,6.721147 -1.86665,2.773328 -2.80035,5.920102 -2.80035,9.440096 0,3.839992 1.04006,7.093136 3.12006,9.759798 2.13332,2.613327 5.38648,4.666858 9.75979,6.160187 l 10.56054,3.59961 c 1.81333,0.586667 3.12079,1.332731 3.92079,2.239396 0.8,0.906665 1.19888,1.99991 1.19888,3.279908 0,1.33333 -0.39888,2.534425 -1.19888,3.60109 -0.74667,1.066664 -1.81332,1.919098 -3.19998,2.559098 -1.33333,0.586665 -3.09914,1.00943 -4.91246,1.00943 -0.38979,0 2.77181,1.484246 2.39184,1.456421 l -3.33911,-1.429779 h -20.43874 c 0.59263,0.920748 1.2331,1.814082 1.97742,2.644943 2.29333,2.559996 5.12099,4.532268 8.48099,5.918931 3.41332,1.386665 7.19979,2.081025 11.35979,2.081025 3.89332,0 7.43898,-0.827323 10.63898,-2.480652 3.25332,-1.653331 5.84019,-3.893006 7.76017,-6.719667 1.97334,-2.826661 2.96021,-6.000029 2.96021,-9.520021 0,-3.78666 -1.09324,-6.960027 -3.27991,-9.520021 -2.13333,-2.559996 -5.38647,-4.586932 -9.7598,-6.080263 l -10.31927,-3.59961 c -1.81333,-0.639998 -3.14739,-1.440728 -4.00072,-2.400726 -0.85333,-0.959998 -1.28029,-2.159614 -1.28029,-3.59961 0,-1.386665 0.34718,-2.586279 1.04051,-3.59961 0.74667,-1.013332 1.76015,-1.787469 3.04013,-2.320802 1.33334,-0.586665 2.88013,-0.879181 4.64013,-0.879181 2.98665,0 5.54544,0.772658 7.67877,2.319321 2.18666,1.493331 3.70686,3.600045 4.5602,6.320039 l 10.40068,-4.079163 c -0.8,-3.14666 -2.24042,-5.867958 -4.32042,-8.161287 -2.08,-2.293328 -4.66685,-4.052863 -7.76018,-5.279526 -3.04,-1.279998 -6.45269,-1.919694 -10.23935,-1.919694 z m -162.319914,0.960587 -0.0015,0.0059 h 15.040805 l -1.457902,10.78847 H 65.598301 v 0.0044 h 15.11925 L 73.917958,77.600096 H 86.31826 l 6.799592,-48.800469 h 14.880958 l 1.52006,-10.79883 z m 59.279594,14.959399 c -3.30665,0 -6.37365,0.639697 -9.20032,1.919693 -2.82665,1.226665 -5.30566,2.959607 -7.43899,5.199601 -2.13333,2.239996 -3.78649,4.826852 -4.95983,7.760179 -1.17333,2.879994 -1.76132,6.000178 -1.76132,9.36017 0,3.946659 0.85391,7.546984 2.56058,10.80031 1.76,3.253327 4.26707,5.840183 7.5204,7.760179 3.25333,1.866663 7.09299,2.800355 11.51964,2.800355 2.93333,0 5.65314,-0.426958 8.15981,-1.280289 2.55998,-0.853332 4.79968,-2.052947 6.71966,-3.59961 1.92,-1.599998 3.38702,-3.46738 4.40035,-5.600709 l -0.31822,-0.164291 -13.04949,0.07004 C 129.75009,68.135385 125.76602,68.16 124.8779,68.16 c -2.02667,0 -3.75962,-0.400365 -5.1996,-1.200363 -1.44,-0.799998 -2.53325,-1.973021 -3.27991,-3.519684 -0.58652,-1.256826 -0.93544,-2.701601 -1.06124,-4.32042 h 30.66033 c 0.26667,-1.173332 0.48089,-2.266577 0.64089,-3.279908 0.16,-1.013331 0.23978,-2.0268 0.23978,-3.040131 0,-3.786659 -0.79925,-7.172765 -2.39925,-10.159426 -1.54667,-2.986661 -3.841,-5.332705 -6.881,-7.039369 -3.04,-1.759996 -6.77327,-2.640503 -11.19994,-2.640503 z m -0.0799,9.599947 c 2.08,0 3.78634,0.533326 5.11967,1.599991 1.38667,1.013331 2.29377,2.400571 2.72043,4.160569 0.15322,0.632023 0.20879,1.305695 0.21758,1.999619 h -18.0987 c 0.0154,-0.0522 0.0257,-0.107894 0.0414,-0.159852 0.74667,-2.293328 1.91969,-4.134119 3.51969,-5.520783 1.6,-1.386664 3.75989,-2.079544 6.47989,-2.079544 z m 35.27973,14.959399 -10.47913,4.080643 c 0.46937,1.877467 1.17748,3.612867 2.0825,5.232163 h 17.15736 c -1.18784,-0.443738 -2.32879,-1.017635 -3.3998,-1.792404 -2.50666,-1.866663 -4.29427,-4.373743 -5.36093,-7.520402 z m 52.00045,0 -10.48061,4.080643 c 0.46938,1.877519 1.17892,3.61283 2.08399,5.232163 h 17.15735 c -1.18784,-0.443738 -2.33027,-1.017635 -3.40128,-1.792404 -2.50666,-1.866663 -4.29279,-4.373743 -5.35945,-7.520402 z m -79.12038,5.680634 c -0.90665,1.493331 -2.18605,2.692945 -3.83938,3.59961 -0.0227,0.01246 -0.0482,0.02027 -0.0711,0.03256 h 10.93648 z m 19.38343,4.715608 c 0.5926,0.920677 1.23316,1.81414 1.97742,2.644943 2.29333,2.559996 5.11951,4.532268 8.47951,5.918931 3.41332,1.386665 7.19979,2.081025 11.35979,2.081025 3.89331,0 7.44047,-0.827323 10.64045,-2.480652 3.25333,-1.653331 5.8402,-3.893006 7.76018,-6.719667 0.32628,-0.467367 0.58466,-0.958261 0.85698,-1.44458 z"
       transform="matrix(0.73448732,0,0,0.73448732,-18.184308,-11.768884)" /><path
       id="text4"
       style="font-style:italic;font-weight:800;font-size:80px;font-family:'Plus Jakarta Sans';-inkscape-font-specification:'Plus Jakarta Sans Ultra-Bold Italic';text-align:center;letter-spacing:0px;text-anchor:middle;white-space:pre;display:inline;fill:#d27a3a;fill-opacity:1;stroke-width:5.66929;stroke-linejoin:round;paint-order:markers stroke fill"
       d="m 177.43783,17.04021 c -4.05333,0 -7.70687,0.825847 -10.96016,2.479172 -3.2,1.653329 -5.76026,3.894492 -7.68026,6.721147 -1.86667,2.773321 -2.79887,5.920108 -2.79887,9.440096 0,3.839984 1.04006,7.093139 3.12006,9.759798 2.13329,2.613321 5.3865,4.666862 9.75979,6.160187 l 10.55906,3.59961 c 1.81329,0.586667 3.12079,1.332733 3.92079,2.239396 0.8,0.906663 1.20036,1.999912 1.20036,3.279908 0,1.333325 -0.40036,2.534427 -1.20036,3.60109 -0.74667,1.066663 -1.81331,1.919098 -3.19998,2.559098 -1.33333,0.586663 -2.90672,0.880661 -4.72005,0.880661 -0.46884,0 -0.91343,0.07873 -1.34689,0.186493 h -26.83871 v 10.643419 h 33.23275 l -1.58497,-0.07226 c 2.05292,-0.405209 5.59125,-1.494132 7.41805,-2.43799 3.25333,-1.653329 5.84022,-3.893012 7.76018,-6.719667 1.97333,-2.826655 2.96021,-6.000037 2.96021,-9.520021 0,-3.786655 -1.09472,-6.960033 -3.28139,-9.520021 -2.13333,-2.559992 -5.38647,-4.586934 -9.7598,-6.080263 l -10.31927,-3.59961 c -1.81333,-0.639996 -3.14739,-1.44073 -4.00072,-2.400726 -0.85333,-0.959996 -1.27881,-2.159618 -1.27881,-3.59961 0,-1.386663 0.3457,-2.586281 1.03903,-3.59961 0.74667,-1.013329 1.76013,-1.787469 3.04013,-2.320802 1.33333,-0.586663 2.88013,-0.879181 4.64013,-0.879181 2.98663,0 5.54692,0.772662 7.68025,2.319321 2.18667,1.493329 3.70687,3.600051 4.5602,6.320039 l 10.3992,-4.079163 c -0.8,-3.146655 -2.23894,-5.867962 -4.31894,-8.161287 -2.08,-2.293321 -4.66685,-4.052867 -7.76018,-5.279526 -3.04,-1.279996 -6.4542,-1.919694 -10.24083,-1.919694 z m 52.00045,0 c -4.05333,0 -7.70687,0.825847 -10.96016,2.479172 -3.2,1.653329 -5.76026,3.894492 -7.68026,6.721147 -1.86663,2.773321 -2.80035,5.920108 -2.80035,9.440096 0,3.839984 1.04006,7.093139 3.12006,9.759798 2.13329,2.613321 5.3865,4.666862 9.75979,6.160187 l 10.56054,3.59961 c 1.81333,0.586667 3.12079,1.332733 3.92079,2.239396 0.8,0.906663 1.19888,1.999912 1.19888,3.279908 0,1.333325 -0.39888,2.534427 -1.19888,3.60109 -0.74667,1.066663 -1.81331,1.919098 -3.19998,2.559098 -1.33333,0.586663 -2.90672,0.880661 -4.72005,0.880661 -3.14667,0 -5.52586,3.123217 -8.03252,1.309891 -2.50667,-1.866659 -4.29427,3.125931 -5.36093,-0.02072 l -10.14314,-0.398147 c 0.85329,3.413317 1.64226,-0.650656 3.93559,1.909332 2.29333,2.559992 5.12099,4.532272 8.48099,5.918931 3.41329,1.386663 7.19979,2.081025 11.35979,2.081025 3.89329,10e-7 7.43898,-0.827327 10.63898,-2.480652 3.25329,-1.653329 5.84021,-3.893012 7.76017,-6.719667 1.97333,-2.826655 2.96021,-6.000037 2.96021,-9.520021 0,-3.786655 -1.09324,-6.960033 -3.27991,-9.520021 -2.13333,-2.559992 -5.38647,-4.586934 -9.7598,-6.080263 l -10.31927,-3.59961 c -1.81333,-0.639996 -3.14739,-1.44073 -4.00072,-2.400726 -0.85333,-0.959996 -1.28029,-2.159618 -1.28029,-3.59961 0,-1.386663 0.34718,-2.586281 1.04051,-3.59961 0.74667,-1.013329 1.76017,-1.787469 3.04013,-2.320802 1.33333,-0.586663 2.88013,-0.879181 4.64013,-0.879181 2.98663,0 5.54544,0.772662 7.67877,2.319321 2.18667,1.493329 3.70687,3.600051 4.5602,6.320039 l 10.40068,-4.079163 c -0.8,-3.146655 -2.24042,-5.867962 -4.32042,-8.161287 -2.08,-2.293321 -4.66685,-4.052867 -7.76018,-5.279526 -3.04,-1.279996 -6.45268,-1.919694 -10.23935,-1.919694 z M 82.15325,18.000797 v 0.0059 h 0.03404 l -1.457902,10.78847 h -0.03996 v 0.0044 h 0.02812 l -6.79959,48.800529 H 86.31826 l 6.799592,-48.800469 h 14.880958 l 1.52006,-10.79883 z m -16.554949,10.79439 v 0.0044 h 1.493423 v -0.0044 z m 60.799659,4.165009 c -3.30663,0 -6.37365,0.639701 -9.20032,1.919693 -2.82663,1.226663 -5.30566,2.959613 -7.43899,5.199601 -2.13333,2.239992 -3.7865,4.826858 -4.95983,7.760179 -1.17333,2.879988 -1.76132,6.000186 -1.76132,9.36017 0,3.946651 0.85391,7.546993 2.56058,10.80031 1.76,3.253321 4.26707,5.840187 7.5204,7.760179 3.25333,1.866659 7.09301,2.800355 11.51964,2.800355 2.93333,0 5.65314,-0.42696 8.15981,-1.280289 2.55996,-0.853329 4.7997,-2.052951 6.71966,-3.59961 1.92,-1.599996 3.38702,-3.467384 4.40035,-5.600709 l -0.15541,0.01332 0.35522,-0.257538 -14.83591,0.07004 -3.52032,0.348831 c -0.29604,0.02933 -0.61787,-0.09473 -0.88362,-0.09473 -2.02667,0 -3.75964,-0.400367 -5.1996,-1.200363 -1.44,-0.799996 -2.53324,-1.973025 -3.27991,-3.519684 -0.58652,-1.256824 -0.93544,-2.701605 -1.06124,-4.32042 h 30.66033 c 0.26667,-1.173329 0.48089,-2.266579 0.64089,-3.279908 0.16,-1.013329 0.23978,-2.026802 0.23978,-3.040131 0,-3.786651 -0.79925,-7.172771 -2.39925,-10.159426 -1.54667,-2.986655 -3.841,-5.332706 -6.881,-7.039369 -3.04,-1.759992 -6.77327,-2.640503 -11.19994,-2.640503 z m -0.0799,9.599947 c 2.08,0 3.78634,0.533328 5.11967,1.599991 1.38667,1.013329 2.29376,2.400573 2.72043,4.160569 0.15322,0.632021 0.20879,1.305695 0.21758,1.999619 h -18.0987 c 0.0154,-0.0522 0.0257,-0.107894 0.0414,-0.159852 0.74667,-2.293321 1.91969,-4.13412 3.51969,-5.520783 1.6,-1.386663 3.75989,-2.079544 6.47989,-2.079544 z"
       transform="matrix(0.73448732,0,0,0.73448732,-18.184308,-11.768884)" /><path
       id="rect5"
       style="display:inline;fill:#d27a3a;fill-opacity:1;stroke-width:4.21934;stroke-linejoin:round;paint-order:markers stroke fill"
       d="m 89.815403,38.137227 -0.06739,0.09784 c -0.744277,1.566899 -1.821784,2.938473 -3.231998,4.113649 -1.410192,1.136001 -3.055246,2.017109 -4.93551,2.643868 -1.841115,0.626761 -3.838783,0.940356 -5.993275,0.940356 -1.446634,0 -2.802886,-0.143794 -4.078862,-0.415278 v 0.437021 h 20.688919 57.750903 v -7.817457 h -22.71313 c -0.19783,0.352121 -0.4083,0.69962 -0.64467,1.038197 -1.41019,2.076143 -3.31022,3.721161 -5.69975,4.93551 -2.35034,1.214347 -4.9557,1.822007 -7.81528,1.822007 -2.68096,0 -15.869759,-5.34783 -20.878073,-7.395655 -0.270112,-0.110444 -0.767971,-0.31078 -0.986015,-0.400059 z" /><path
       id="rect7"
       style="display:inline;fill:#1c7292;fill-opacity:1;stroke-width:3.20381;stroke-linejoin:round;paint-order:markers stroke fill"
       d="m 31.205897,1.4700782 6.04e-4,7.9960996 h 9.909069 l 0.02331,-7.9960996 z"
       transform="matrix(1,0,-0.13399218,0.99098239,0,0)" /></g></svg>
