<?xml version="1.0" encoding="UTF-8" standalone="no"?>
<svg
   width="245.75981"
   height="121.66344"
   viewBox="0 0 136.79084 66.914894"
   fill="none"
   version="1.1"
   id="svg11"
   xml:space="preserve"
   xmlns="http://www.w3.org/2000/svg"
   xmlns:svg="http://www.w3.org/2000/svg"><defs
     id="defs11" /><g
     id="layer1"
     style="display:none"
     transform="translate(-29.937975,-1.1826829)"><path
       style="display:inline;fill:#4f4848;fill-opacity:1;stroke-width:0.520378"
       d="m 3.8778876,44.424936 c 0,-0.0038 0.053379,-0.08237 0.1185928,-0.175015 1.3565961,-1.926438 2.302637,-4.118214 2.7755583,-6.430378 0.031469,-0.153953 1.5380788,-6.216075 3.3479683,-13.471389 1.809889,-7.255313 3.290706,-13.198994 3.290706,-13.208177 0,-0.02864 -7.8687059,-0.01583 -8.1742355,0.01347 -1.7587348,0.167805 -3.442282,0.714106 -4.76287488,1.54552 -0.0348491,0.02199 -0.065037,0.03815 -0.0671337,0.03603 -0.002336,-0.002 0.73724988,-1.850269 1.64304588,-4.1070075 l 1.6468799,-4.1031579 18.9782463,-0.0033 c 10.438033,-0.00175 18.978244,0.00151 18.978244,0.00709 0,0.033849 -0.7904,8.2042474 -0.794024,8.2078754 -0.0023,0.0027 -0.03534,-0.02056 -0.07297,-0.05118 -1.229788,-0.99767 -2.907146,-1.584295 -4.510377,-1.577415 -0.203002,8.87e-4 -2.002492,0.0052 -3.998854,0.009 -3.419555,0.0069 -3.630117,0.0088 -3.63619,0.02936 -0.02423,0.08237 -6.634802,26.653041 -6.708904,26.965839 -0.532445,2.247474 -0.698672,3.785732 -0.5522,5.11005 0.03763,0.340292 0.157262,1.016717 0.209927,1.186831 0.0069,0.02127 -0.420835,0.02223 -8.852243,0.02223 -4.8725268,0 -8.8591301,-0.0031 -8.8591301,-0.0064 z m 73.7865364,-0.04738 c 0.005,-0.02982 0.165323,-1.846863 0.358348,-4.037889 0.193004,-2.19102 0.352665,-3.985415 0.354716,-3.987539 0.0023,-0.0022 0.06305,0.03276 0.135657,0.07751 1.292783,0.797417 2.846631,1.287364 4.427392,1.395995 0.260447,0.01773 15.979922,0.01797 16.475093,2.62e-4 1.71321,-0.06189 2.21291,-0.355382 2.55675,-1.501707 0.0484,-0.161116 0.75348,-2.958878 0.79715,-3.162761 0.22187,-1.035902 -0.0866,-1.402753 -1.27879,-1.520589 -0.4176,-0.04128 -0.5716,-0.0423 -7.62372,-0.05125 -4.990919,-0.0061 -7.130825,-0.01324 -7.26098,-0.02317 -0.610119,-0.04675 -0.721612,-0.05692 -1.018201,-0.09289 -3.855529,-0.467815 -5.112089,-2.406586 -4.377681,-6.754408 0.112593,-0.666782 0.217396,-1.138266 0.542246,-2.439665 0.122277,-0.490006 0.642853,-2.578476 1.15679,-4.641046 0.96399,-3.868772 1.020029,-4.089187 1.151592,-4.52905 1.550373,-5.183759 4.880732,-8.163092 9.538954,-8.5335455 0.547013,-0.043517 0.850364,-0.044392 15.08492,-0.044581 l 14.20672,-1.656e-4 -0.007,0.054107 c -0.008,0.0681 -0.64199,7.7900061 -0.64199,7.8233501 0,0.0208 -0.0452,0.0027 -0.29591,-0.119888 -1.33745,-0.652676 -2.69909,-1.023229 -4.16505,-1.133474 -0.31528,-0.02373 -15.56454,-0.02896 -16.20835,-0.0055 -1.750778,0.06359 -2.337287,0.395991 -2.678019,1.51777 -0.04952,0.1631 -0.650683,2.588306 -0.680583,2.74564 -0.178655,0.940524 0.123408,1.301047 1.188576,1.418504 0.448259,0.04942 0.413807,0.04914 6.898266,0.05917 3.47903,0.0055 6.36562,0.01324 6.41461,0.01702 0.0491,0.0042 0.22858,0.01583 0.39908,0.02666 5.49641,0.340873 7.58351,2.735295 6.56144,7.527624 -0.0591,0.27718 -2.5357,10.237407 -2.65988,10.697386 -1.5652,5.797778 -4.49838,8.572912 -9.68434,9.162499 -0.25744,0.02927 -0.44752,0.04661 -0.94818,0.08652 -0.13774,0.01093 -3.80561,0.01584 -14.455955,0.01891 l -14.271408,0.0044 z m 43.972376,0.0061 c 0.005,-0.02624 0.16544,-1.843247 0.35882,-4.037771 0.19341,-2.194521 0.35305,-3.991568 0.35477,-3.99344 10e-4,-0.0019 0.0828,0.04444 0.18002,0.102897 1.33044,0.79938 2.81262,1.262173 4.38967,1.370613 0.25662,0.01749 15.9722,0.01726 16.47092,-2.01e-4 1.65975,-0.05874 2.18333,-0.343488 2.51562,-1.368088 0.053,-0.163573 0.77342,-3.003728 0.8361,-3.296398 0.22126,-1.03324 -0.0876,-1.404098 -1.26608,-1.520585 -0.41762,-0.04127 -0.57147,-0.04232 -7.63007,-0.05126 -5.00907,-0.0061 -7.13684,-0.01324 -7.26735,-0.02317 -0.46785,-0.03595 -0.556,-0.04349 -0.78274,-0.06684 -4.12349,-0.424752 -5.41811,-2.440647 -4.55619,-7.094627 0.13008,-0.702397 0.10862,-0.613284 1.26822,-5.262781 0.53859,-2.159526 1.05603,-4.235684 1.14985,-4.61369 0.17963,-0.723699 0.26972,-1.062516 0.37624,-1.415091 1.54624,-5.1182001 4.74228,-8.0426274 9.30923,-8.5180941 0.58079,-0.060465 -0.43475,-0.0564 15.09766,-0.060607 l 14.42311,-0.00402 -0.006,0.054248 c -0.008,0.068715 -0.65466,7.7907731 -0.65466,7.8236651 0,0.02056 -0.0463,0.0018 -0.29591,-0.120053 -1.33746,-0.652677 -2.69907,-1.023232 -4.16505,-1.133474 -0.31565,-0.02375 -15.5526,-0.02896 -16.19563,-0.0055 -1.70101,0.06193 -2.28682,0.366254 -2.62921,1.365876 -0.0949,0.277023 -0.71834,2.792036 -0.75662,3.052191 -0.12199,0.829344 0.18797,1.151578 1.21581,1.263829 0.45537,0.04974 0.39338,0.04917 6.88552,0.05921 3.47904,0.0052 6.36563,0.01324 6.41462,0.01702 0.0491,0.0042 0.2286,0.01583 0.39908,0.02666 4.30991,0.267293 6.45815,1.759372 6.78828,4.714872 0.0255,0.228459 0.0211,1.159404 -0.006,1.419105 -0.085,0.793253 -0.15433,1.153269 -0.45976,2.387727 -0.72688,2.938042 -2.35191,9.452551 -2.4268,9.728763 -1.67971,6.194287 -4.93039,8.951367 -10.88687,9.23375 -0.17386,0.0083 -5.19478,0.01276 -14.36082,0.01276 l -14.09353,1.9e-5 z m -82.206156,-0.06751 c -4.681243,-0.121641 -6.596995,-1.847784 -6.256793,-5.637552 0.08869,-0.987758 0.230586,-1.820595 0.505288,-2.965486 0.161729,-0.673998 3.040132,-12.212249 3.109967,-12.466493 1.37175,-4.993802 3.497213,-7.255585 7.49193,-7.972437 0.587212,-0.105349 1.027357,-0.155016 1.953655,-0.220351 0.29101,-0.02056 23.679667,-0.03059 24.239336,-0.01042 4.597254,0.165512 6.434138,1.851427 6.115913,5.613169 -0.05711,0.674556 -0.134333,1.211593 -0.28026,1.94777 -0.139723,0.704854 -0.05233,0.35036 -1.520339,6.170042 -0.570907,2.263276 -1.03801,4.117494 -1.03801,4.120493 0,0.0031 -5.542318,0.0066 -12.316251,0.0085 l -12.31626,0.0033 -0.358853,1.436694 c -0.407188,1.630198 -0.440006,1.791897 -0.458796,2.260605 -0.05212,1.299002 0.634824,1.91621 2.251739,2.023273 0.271858,0.01797 16.056207,0.01915 16.325627,0.0013 1.778872,-0.118592 3.465917,-0.509649 5.063263,-1.173713 0.135256,-0.05623 0.247357,-0.100266 0.249083,-0.09786 0.0012,0.0025 -0.638832,1.570786 -1.423484,3.485307 l -1.426631,3.480942 -14.776256,0.0011 c -8.126935,6.24e-4 -14.937189,-0.0031 -15.133868,-0.008 z m 21.91427,-19.19224 c 0.660477,-2.663769 0.639406,-2.563695 0.639452,-3.035484 8e-5,-0.770916 -0.304609,-1.112937 -1.113165,-1.249559 -0.193333,-0.03267 -6.797944,-0.04283 -7.108251,-0.01106 -0.996601,0.102427 -1.580176,0.545352 -1.978031,1.501286 -0.145678,0.350088 -0.171751,0.448981 -0.988649,3.75565 -0.143528,0.581004 -0.263384,1.063539 -0.266322,1.072296 -0.005,0.01276 1.027862,0.01561 5.151564,0.01276 l 5.156915,-0.0033 z"
       id="path2" /><path
       style="font-weight:bold;font-size:30.6667px;font-family:'Plus Jakarta Sans';-inkscape-font-specification:'Plus Jakarta Sans Bold';text-align:center;letter-spacing:0px;white-space:pre;display:inline;fill:#4f4848;stroke-width:4.84772;stroke-linejoin:round;paint-order:markers stroke fill"
       d="M 58.433965,68.054941 V 48.519117 h 7.289886 q 1.992901,0 3.513821,0.734231 1.547127,0.70801 2.412467,2.097806 0.865355,1.363575 0.865355,3.330268 0,1.940471 -0.891564,3.330269 -0.865354,1.363573 -2.386258,2.097806 -1.52092,0.734231 -3.513821,0.734231 h -3.723613 v 7.211213 z m 3.566273,-10.357922 h 3.776045 q 0.970234,0 1.678246,-0.367117 0.708013,-0.393338 1.101354,-1.075125 0.393343,-0.681786 0.393343,-1.573355 0,-0.91779 -0.393343,-1.573354 -0.393341,-0.681787 -1.101354,-1.048904 -0.708012,-0.393338 -1.678246,-0.393338 H 62.000238 Z M 75.137767,68.054941 V 48.204444 h 3.435165 v 19.850497 z m 10.934836,0.314671 q -1.49468,0 -2.596034,-0.49823 -1.101353,-0.498233 -1.704471,-1.416022 -0.603117,-0.944012 -0.603117,-2.176475 0,-1.180014 0.524445,-2.097806 0.524462,-0.944012 1.6258,-1.573354 1.101354,-0.629342 2.779601,-0.891569 l 4.667623,-0.760453 v 2.622258 l -4.012059,0.681787 q -1.022682,0.183557 -1.520904,0.655564 -0.498236,0.472005 -0.498236,1.232462 0,0.734232 0.550684,1.180015 0.576893,0.419562 1.416009,0.419562 1.07513,0 1.888021,-0.445783 0.839132,-0.472007 1.284921,-1.284908 0.471998,-0.812898 0.471998,-1.783135 v -3.67116 q 0,-0.917791 -0.734236,-1.52091 -0.708012,-0.629342 -1.888022,-0.629342 -1.101354,0 -1.966694,0.603119 -0.839115,0.576896 -1.232457,1.547133 L 81.71965,57.19879 q 0.419566,-1.12757 1.31113,-1.940472 0.917802,-0.839122 2.15026,-1.311128 1.232457,-0.472006 2.674705,-0.472006 1.756903,0 3.094255,0.655565 1.337354,0.629342 2.071589,1.783135 0.76046,1.127571 0.76046,2.648481 v 9.492576 H 90.53045 v -2.438702 l 0.734221,-0.05245 q -0.550669,0.91779 -1.311129,1.547126 -0.760444,0.603124 -1.730679,0.944021 -0.970234,0.31467 -2.15026,0.31467 z m 17.123327,-0.157335 q -2.41246,0 -3.749813,-1.311134 -1.311131,-1.337349 -1.311131,-3.749827 v -6.293419 h -2.464931 v -3.068043 h 0.262239 q 1.04889,0 1.625799,-0.550673 0.576893,-0.550675 0.576893,-1.599577 v -1.10135 h 3.435154 v 3.2516 h 3.27782 v 3.068043 h -3.27782 v 6.10986 q 0,0.70801 0.23602,1.206238 0.26222,0.498231 0.78665,0.760456 0.55069,0.262226 1.38981,0.262226 0.18355,0 0.41957,-0.02623 0.26222,-0.02623 0.49822,-0.05244 v 2.936932 q -0.36712,0.05242 -0.83912,0.10488 -0.47201,0.05242 -0.86536,0.05242 z m 5.97876,-0.157336 V 56.857897 h -2.51736 v -3.068043 h 2.51736 v -0.472005 q 0,-1.625801 0.65556,-2.753373 0.68179,-1.153793 1.88804,-1.756911 1.20624,-0.603121 2.85826,-0.603121 0.31466,0 0.68179,0.05245 0.39334,0.02623 0.65556,0.07867 v 2.963154 q -0.26222,-0.05245 -0.49824,-0.05245 -0.20978,-0.02623 -0.39333,-0.02623 -1.1538,0 -1.78313,0.524453 -0.62935,0.498228 -0.62935,1.573356 v 0.472005 h 3.17293 v 3.068042 h -3.17293 V 68.05494 Z m 15.57619,0.314671 q -2.0978,0 -3.8285,-0.970238 -1.70446,-0.970237 -2.72715,-2.648481 -0.99645,-1.678246 -0.99645,-3.828496 0,-2.150252 0.99645,-3.828498 1.02269,-1.678244 2.72715,-2.64848 1.70447,-0.970235 3.8285,-0.970235 2.09781,0 3.80226,0.970235 1.70448,0.970236 2.70094,2.64848 1.02268,1.652023 1.02268,3.828498 0,2.15025 -1.02268,3.828496 -1.02269,1.678244 -2.72715,2.648481 -1.70446,0.970238 -3.77605,0.970238 z m 0,-3.146712 q 1.1538,0 2.01913,-0.550674 0.89157,-0.550676 1.38981,-1.52091 0.52444,-0.996458 0.52444,-2.228919 0,-1.258685 -0.52444,-2.202697 -0.49824,-0.970235 -1.38981,-1.52091 -0.86533,-0.576897 -2.01913,-0.576897 -1.18001,0 -2.0716,0.576897 -0.89156,0.550675 -1.416,1.52091 -0.49824,0.944012 -0.49824,2.202697 0,1.232461 0.49824,2.228919 0.52444,0.970234 1.416,1.52091 0.89159,0.550674 2.0716,0.550674 z m 10.12193,2.832041 V 53.789854 h 3.22537 v 3.172934 l -0.26223,-0.472007 q 0.49823,-1.599577 1.54713,-2.22892 1.07514,-0.629342 2.56982,-0.629342 h 0.83911 v 3.041819 h -1.23246 q -1.46845,0 -2.36002,0.91779 -0.89157,0.891568 -0.89157,2.517369 v 7.945444 z m 9.80725,0 V 53.789854 h 3.22537 v 3.304045 l -0.36711,-0.550674 q 0.39334,-1.547133 1.57337,-2.307586 1.18001,-0.760455 2.77958,-0.760455 1.75692,0 3.09427,0.91779 1.33734,0.91779 1.73068,2.412477 l -0.97021,0.07867 q 0.65555,-1.704468 1.96667,-2.543591 1.31113,-0.865344 3.0156,-0.865344 1.52092,0 2.70093,0.681787 1.20623,0.681787 1.88802,1.914249 0.68179,1.206237 0.68179,2.805814 v 9.177907 h -3.43515 v -8.365005 q 0,-0.944014 -0.34089,-1.625801 -0.34092,-0.681787 -0.94401,-1.048903 -0.60312,-0.393339 -1.46848,-0.393339 -0.81289,0 -1.44223,0.393339 -0.62936,0.367116 -0.97025,1.048903 -0.34089,0.681787 -0.34089,1.625801 v 8.365005 h -3.43516 v -8.365005 q 0,-0.944014 -0.34088,-1.625801 -0.3409,-0.681787 -0.97024,-1.048903 -0.60313,-0.393339 -1.44225,-0.393339 -0.81289,0 -1.44223,0.393339 -0.62934,0.367116 -0.97025,1.048903 -0.34088,0.681787 -0.34088,1.625801 v 8.365005 z"
       id="text1-1"
       aria-label="Platform" /></g><g
     id="layer2"
     transform="translate(-29.937975,-1.1826829)"><path
       style="font-weight:bold;font-size:30.6667px;font-family:'Plus Jakarta Sans';-inkscape-font-specification:'Plus Jakarta Sans Bold';text-align:center;letter-spacing:0px;white-space:pre;display:inline;fill:#047eaa;fill-opacity:1;stroke-width:4.84772;stroke-linejoin:round;paint-order:markers stroke fill"
       d="M 58.613205,68.150497 V 48.614673 h 7.289886 q 1.992901,0 3.513821,0.734231 1.547127,0.70801 2.412467,2.097806 0.865355,1.363575 0.865355,3.330268 0,1.940471 -0.891564,3.330269 -0.865354,1.363573 -2.386258,2.097806 -1.52092,0.734231 -3.513821,0.734231 h -3.723613 v 7.211213 z m 3.566273,-10.357922 h 3.776045 q 0.970234,0 1.678246,-0.367117 0.708013,-0.393338 1.101354,-1.075125 0.393343,-0.681786 0.393343,-1.573355 0,-0.91779 -0.393343,-1.573354 -0.393341,-0.681787 -1.101354,-1.048904 -0.708012,-0.393338 -1.678246,-0.393338 H 62.179478 Z M 75.317007,68.150497 V 48.3 h 3.435165 v 19.850497 z m 10.934836,0.314671 q -1.49468,0 -2.596034,-0.49823 -1.101353,-0.498233 -1.704471,-1.416022 -0.603117,-0.944012 -0.603117,-2.176475 0,-1.180014 0.524445,-2.097806 0.524462,-0.944012 1.6258,-1.573354 1.101354,-0.629342 2.779601,-0.891569 l 4.667623,-0.760453 v 2.622258 l -4.012059,0.681787 q -1.022682,0.183557 -1.520904,0.655564 -0.498236,0.472005 -0.498236,1.232462 0,0.734232 0.550684,1.180015 0.576893,0.419562 1.416009,0.419562 1.07513,0 1.888021,-0.445783 0.839132,-0.472007 1.284921,-1.284908 0.471998,-0.812898 0.471998,-1.783135 v -3.67116 q 0,-0.917791 -0.734236,-1.52091 -0.708012,-0.629342 -1.888022,-0.629342 -1.101354,0 -1.966694,0.603119 -0.839115,0.576896 -1.232457,1.547133 L 81.89889,57.294346 q 0.419566,-1.12757 1.31113,-1.940472 0.917802,-0.839122 2.15026,-1.311128 1.232457,-0.472006 2.674705,-0.472006 1.756903,0 3.094255,0.655565 1.337354,0.629342 2.071589,1.783135 0.76046,1.127571 0.76046,2.648481 v 9.492576 H 90.70969 v -2.438702 l 0.734221,-0.05245 q -0.550669,0.91779 -1.311129,1.547126 -0.760444,0.603124 -1.730679,0.944021 -0.970234,0.31467 -2.15026,0.31467 z m 17.123327,-0.157335 q -2.41246,0 -3.749813,-1.311134 -1.311131,-1.337349 -1.311131,-3.749827 V 56.953453 H 95.849295 V 53.88541 h 0.262239 q 1.04889,0 1.625799,-0.550673 0.576893,-0.550675 0.576893,-1.599577 v -1.10135 h 3.435154 v 3.2516 h 3.27782 v 3.068043 h -3.27782 v 6.10986 q 0,0.70801 0.23602,1.206238 0.26222,0.498231 0.78665,0.760456 0.55069,0.262226 1.38981,0.262226 0.18355,0 0.41957,-0.02623 0.26222,-0.02623 0.49822,-0.05244 v 2.936932 q -0.36712,0.05242 -0.83912,0.10488 -0.47201,0.05242 -0.86536,0.05242 z m 5.97876,-0.157336 V 56.953453 h -2.51736 V 53.88541 h 2.51736 v -0.472005 q 0,-1.625801 0.65556,-2.753373 0.68179,-1.153793 1.88804,-1.756911 Q 113.10377,48.3 114.75579,48.3 q 0.31466,0 0.68179,0.05245 0.39334,0.02623 0.65556,0.07867 v 2.963154 q -0.26222,-0.05245 -0.49824,-0.05245 -0.20978,-0.02623 -0.39333,-0.02623 -1.1538,0 -1.78313,0.524453 -0.62935,0.498228 -0.62935,1.573356 v 0.472005 h 3.17293 v 3.068042 h -3.17293 v 11.197046 z m 15.57619,0.314671 q -2.0978,0 -3.8285,-0.970238 -1.70446,-0.970237 -2.72715,-2.648481 -0.99645,-1.678246 -0.99645,-3.828496 0,-2.150252 0.99645,-3.828498 1.02269,-1.678244 2.72715,-2.64848 1.70447,-0.970235 3.8285,-0.970235 2.09781,0 3.80226,0.970235 1.70448,0.970236 2.70094,2.64848 1.02268,1.652023 1.02268,3.828498 0,2.15025 -1.02268,3.828496 -1.02269,1.678244 -2.72715,2.648481 -1.70446,0.970238 -3.77605,0.970238 z m 0,-3.146712 q 1.1538,0 2.01913,-0.550674 0.89157,-0.550676 1.38981,-1.52091 0.52444,-0.996458 0.52444,-2.228919 0,-1.258685 -0.52444,-2.202697 -0.49824,-0.970235 -1.38981,-1.52091 -0.86533,-0.576897 -2.01913,-0.576897 -1.18001,0 -2.0716,0.576897 -0.89156,0.550675 -1.416,1.52091 -0.49824,0.944012 -0.49824,2.202697 0,1.232461 0.49824,2.228919 0.52444,0.970234 1.416,1.52091 0.89159,0.550674 2.0716,0.550674 z m 10.12193,2.832041 V 53.88541 h 3.22537 v 3.172934 l -0.26223,-0.472007 q 0.49823,-1.599577 1.54713,-2.22892 1.07514,-0.629342 2.56982,-0.629342 h 0.83911 v 3.041819 h -1.23246 q -1.46845,0 -2.36002,0.91779 -0.89157,0.891568 -0.89157,2.517369 v 7.945444 z m 9.80725,0 V 53.88541 h 3.22537 v 3.304045 l -0.36711,-0.550674 q 0.39334,-1.547133 1.57337,-2.307586 1.18001,-0.760455 2.77958,-0.760455 1.75692,0 3.09427,0.91779 1.33734,0.91779 1.73068,2.412477 l -0.97021,0.07867 q 0.65555,-1.704468 1.96667,-2.543591 1.31113,-0.865344 3.0156,-0.865344 1.52092,0 2.70093,0.681787 1.20623,0.681787 1.88802,1.914249 0.68179,1.206237 0.68179,2.805814 v 9.177907 h -3.43515 v -8.365005 q 0,-0.944014 -0.34089,-1.625801 -0.34092,-0.681787 -0.94401,-1.048903 -0.60312,-0.393339 -1.46848,-0.393339 -0.81289,0 -1.44223,0.393339 -0.62936,0.367116 -0.97025,1.048903 -0.34089,0.681787 -0.34089,1.625801 v 8.365005 h -3.43516 v -8.365005 q 0,-0.944014 -0.34088,-1.625801 -0.3409,-0.681787 -0.97024,-1.048903 -0.60313,-0.393339 -1.44225,-0.393339 -0.81289,0 -1.44223,0.393339 -0.62934,0.367116 -0.97025,1.048903 -0.34088,0.681787 -0.34088,1.625801 v 8.365005 z"
       id="text1-1-4"
       aria-label="Platform" /><path
       style="font-style:italic;font-weight:800;font-size:80px;font-family:'Plus Jakarta Sans';-inkscape-font-specification:'Plus Jakarta Sans Ultra-Bold Italic';text-align:center;letter-spacing:0px;text-anchor:middle;white-space:pre;fill:#047eaa;stroke-width:5.66929;stroke-linejoin:round;paint-order:markers stroke fill"
       d="m 73.918267,77.600074 6.8,-48.8 h -15.12 l 1.52,-10.8 h 42.400003 l -1.52,10.8 H 93.118267 l -6.8,48.8 z m 50.719893,0.96 q -6.64,0 -11.52,-2.8 -4.88,-2.88 -7.52,-7.76 -2.56,-4.88 -2.56,-10.8 0,-5.04 1.76,-9.36 1.76,-4.4 4.96,-7.76 3.2,-3.36 7.44,-5.2 4.24,-1.92 9.2,-1.92 6.64,0 11.2,2.64 4.56,2.56 6.88,7.04 2.4,4.48 2.4,10.16 0,1.52 -0.24,3.04 -0.24,1.52 -0.64,3.28 h -32.8 l 0.64,-8.8 h 25.92 l -6,4 q 1.04,-3.36 0.4,-6 -0.64,-2.64 -2.72,-4.16 -2,-1.6 -5.12,-1.6 -4.08,0 -6.48,2.08 -2.4,2.08 -3.52,5.52 -1.04,3.44 -1.04,7.6 0,3.28 1.12,5.68 1.12,2.32 3.28,3.52 2.16,1.2 5.2,1.2 3.28,0 5.76,-1.36 2.48,-1.36 3.84,-3.6 l 9.44,4.88 q -1.52,3.2 -4.4,5.6 -2.88,2.32 -6.72,3.6 -3.76,1.28 -8.16,1.28 z m 51.03996,0 q -6.24,0 -11.36,-2.08 -5.04,-2.08 -8.48,-5.92 -3.44,-3.84 -4.72,-8.96 l 10.48,-4.08 q 1.6,4.72 5.36,7.52 3.76,2.72 8.48,2.72 2.72,0 4.72,-0.88 2.08,-0.96 3.2,-2.56 1.2,-1.6 1.2,-3.6 0,-1.92 -1.2,-3.28 -1.2,-1.36 -3.92,-2.24 l -10.56,-3.6 q -6.56,-2.24 -9.76,-6.16 -3.12,-4 -3.12,-9.76 0,-5.28 2.8,-9.44 2.88,-4.24 7.68,-6.72 4.88,-2.48 10.96,-2.48 5.68,0 10.24,1.92 4.64,1.84 7.76,5.28 3.12,3.44 4.32,8.16 l -10.4,4.08 q -1.28,-4.08 -4.56,-6.32 -3.2,-2.32 -7.68,-2.32 -2.64,0 -4.64,0.88 -1.92,0.8 -3.04,2.32 -1.04,1.52 -1.04,3.6 0,2.16 1.28,3.6 1.28,1.44 4,2.4 l 10.32,3.6 q 6.56,2.24 9.76,6.08 3.28,3.84 3.28,9.52 0,5.28 -2.96,9.52 -2.88,4.24 -7.76,6.72 -4.8,2.48 -10.64,2.48 z m 51.99997,0 q -6.24,0 -11.36,-2.08 -5.04,-2.08 -8.48,-5.92 -3.44,-3.84 -4.72,-8.96 l 10.48,-4.08 q 1.6,4.72 5.36,7.52 3.76,2.72 8.48,2.72 2.72,0 4.72,-0.88 2.08,-0.96 3.2,-2.56 1.2,-1.6 1.2,-3.6 0,-1.92 -1.2,-3.28 -1.2,-1.36 -3.92,-2.24 l -10.56,-3.6 q -6.56,-2.24 -9.76,-6.16 -3.12,-4 -3.12,-9.76 0,-5.28 2.8,-9.44 2.88,-4.24 7.68,-6.72 4.88,-2.48 10.96,-2.48 5.68,0 10.24,1.92 4.64,1.84 7.76,5.28 3.12,3.44 4.32,8.16 l -10.4,4.08 q -1.28,-4.08 -4.56,-6.32 -3.2,-2.32 -7.68,-2.32 -2.64,0 -4.64,0.88 -1.92,0.8 -3.04,2.32 -1.04,1.52 -1.04,3.6 0,2.16 1.28,3.6 1.28,1.44 4,2.4 l 10.32,3.6 q 6.56,2.24 9.76,6.08 3.28,3.84 3.28,9.52 0,5.28 -2.96,9.52 -2.88,4.24 -7.76,6.72 -4.8,2.48 -10.64,2.48 z"
       id="text7"
       transform="matrix(0.73448732,0,0,0.73448732,-18.184308,-11.768884)"
       aria-label="TeSS" /><path
       style="font-style:italic;font-weight:800;font-size:80px;font-family:'Plus Jakarta Sans';-inkscape-font-specification:'Plus Jakarta Sans Ultra-Bold Italic';text-align:center;letter-spacing:0px;text-anchor:middle;white-space:pre;display:inline;fill:#f47d21;stroke-width:5.66929;stroke-linejoin:round;paint-order:markers stroke fill"
       d="m 73.918267,77.600074 6.8,-48.8 h -15.12 l 1.52,-10.8 h 42.400003 l -1.52,10.8 H 93.118267 l -6.8,48.8 z m 50.719893,0.96 c -4.42667,0 -8.26667,-0.933333 -11.52,-2.8 -3.25333,-1.92 -5.76,-4.506667 -7.52,-7.76 -1.70667,-3.253333 -2.56,-6.853333 -2.56,-10.8 0,-3.36 0.58667,-6.48 1.76,-9.36 1.17333,-2.933333 2.82667,-5.52 4.96,-7.76 2.13333,-2.24 4.61333,-3.973333 7.44,-5.2 2.82667,-1.28 5.89333,-1.92 9.2,-1.92 4.42667,0 8.16,0.88 11.2,2.64 3.04,1.706667 5.33333,4.053333 6.88,7.04 1.6,2.986667 2.4,6.373333 2.4,10.16 0,1.013333 -0.08,2.026667 -0.24,3.04 -0.16,1.013333 -0.37333,2.106667 -0.64,3.28 h -32.8 l 0.64,-8.8 h 25.92 l -6,4 c 0.69333,-2.24 0.82667,-4.24 0.4,-6 -0.42667,-1.76 -1.33333,-3.146667 -2.72,-4.16 -1.33333,-1.066667 -3.04,-1.6 -5.12,-1.6 -2.72,0 -4.88,0.693333 -6.48,2.08 -1.6,1.386667 -2.77333,3.226667 -3.52,5.52 -0.69333,2.293333 -1.04,4.826667 -1.04,7.6 0,2.186667 0.37333,4.08 1.12,5.68 0.74667,1.546667 1.84,2.72 3.28,3.52 1.44,0.8 3.17333,1.2 5.2,1.2 2.18667,0 5.56185,1.337657 7.21518,0.43099 1.65333,-0.906667 2.14977,1.699187 3.05644,0.205854 l 8.76838,-0.716844 c -1.01333,2.133333 -2.48,4 -4.4,5.6 -1.92,1.546667 -4.16,2.746667 -6.72,3.6 -2.50667,0.853333 -5.22667,1.28 -8.16,1.28 z m 51.03996,0 c -4.16,0 -7.94667,-0.693333 -11.36,-2.08 -3.36,-1.386667 -6.18667,-3.36 -8.48,-5.92 -2.29333,-2.56 -0.17275,1.841167 -1.02608,-1.572166 l 7.34576,0.285538 c 1.06667,3.146666 -1.38822,-0.06147 5.36,-0.315581 2.50667,1.813333 4.77365,-1.197791 7.92032,-1.197791 1.81333,0 3.38667,-0.293333 4.72,-0.88 1.38667,-0.64 2.45333,-1.493333 3.2,-2.56 0.8,-1.066667 1.2,-2.266667 1.2,-3.6 0,-1.28 -0.4,-2.373333 -1.2,-3.28 -0.8,-0.906667 -2.10667,-1.653333 -3.92,-2.24 l -10.56,-3.6 c -4.37333,-1.493333 -7.62667,-3.546667 -9.76,-6.16 -2.08,-2.666667 -3.12,-5.92 -3.12,-9.76 0,-3.52 0.93333,-6.666667 2.8,-9.44 1.92,-2.826667 4.48,-5.066667 7.68,-6.72 3.25333,-1.653333 6.90667,-2.48 10.96,-2.48 3.78667,0 7.2,0.64 10.24,1.92 3.09333,1.226667 5.68,2.986667 7.76,5.28 2.08,2.293333 3.52,5.013333 4.32,8.16 l -10.4,4.08 c -0.85333,-2.72 -2.37333,-4.826667 -4.56,-6.32 -2.13333,-1.546667 -4.69333,-2.32 -7.68,-2.32 -1.76,0 -3.30667,0.293333 -4.64,0.88 -1.28,0.533333 -2.29333,1.306667 -3.04,2.32 -0.69333,1.013333 -1.04,2.213333 -1.04,3.6 0,1.44 0.42667,2.64 1.28,3.6 0.85333,0.96 2.18667,1.76 4,2.4 l 10.32,3.6 c 4.37333,1.493333 7.62667,3.52 9.76,6.08 2.18667,2.56 3.28,5.733333 3.28,9.52 0,3.52 -0.98667,6.693333 -2.96,9.52 -1.92,2.826667 -4.50667,5.066667 -7.76,6.72 -3.2,1.653333 -6.74667,2.48 -10.64,2.48 z m 51.99997,0 c -4.16,0 -7.94667,-0.693333 -11.36,-2.08 -3.36,-1.386667 -6.18667,-3.36 -8.48,-5.92 -2.29333,-2.56 -3.08311,1.505356 -3.93644,-1.907977 l 10.14419,0.397475 c 1.06666,3.146667 2.85333,-1.846437 5.36,0.02023 2.50666,1.813334 4.88558,-1.309727 8.03225,-1.309727 1.81333,0 3.38667,-0.293333 4.72,-0.88 1.38667,-0.64 2.45333,-1.493333 3.2,-2.56 0.8,-1.066667 1.2,-2.266667 1.2,-3.6 0,-1.28 -0.4,-2.373333 -1.2,-3.28 -0.8,-0.906667 -2.10667,-1.653333 -3.92,-2.24 l -10.56,-3.6 c -4.37333,-1.493333 -7.62667,-3.546667 -9.76,-6.16 -2.08,-2.666667 -3.12,-5.92 -3.12,-9.76 0,-3.52 0.93333,-6.666667 2.8,-9.44 1.92,-2.826667 4.48,-5.066667 7.68,-6.72 3.25333,-1.653333 6.90667,-2.48 10.96,-2.48 3.78667,0 7.2,0.64 10.24,1.92 3.09333,1.226667 5.68,2.986667 7.76,5.28 2.08,2.293333 3.52,5.013333 4.32,8.16 l -10.4,4.08 c -0.85333,-2.72 -2.37333,-4.826667 -4.56,-6.32 -2.13333,-1.546667 -4.69333,-2.32 -7.68,-2.32 -1.76,0 -3.30667,0.293333 -4.64,0.88 -1.28,0.533333 -2.29333,1.306667 -3.04,2.32 -0.69333,1.013333 -1.04,2.213333 -1.04,3.6 0,1.44 0.42667,2.64 1.28,3.6 0.85333,0.96 2.18667,1.76 4,2.4 l 10.32,3.6 c 4.37333,1.493333 7.62667,3.52 9.76,6.08 2.18667,2.56 3.28,5.733333 3.28,9.52 0,3.52 -0.98667,6.693333 -2.96,9.52 -1.92,2.826667 -4.50667,5.066667 -7.76,6.72 -3.2,1.653333 -6.74667,2.48 -10.64,2.479999 z"
       id="text4"
       transform="matrix(0.73448732,0,0,0.73448732,-18.184308,-11.768884)"
       aria-label="TeSS" /><rect
       style="fill:#f47d21;fill-opacity:1;stroke-width:4.21934;stroke-linejoin:round;paint-order:markers stroke fill"
       id="rect5"
       width="78.440666"
       height="7.8180652"
       x="71.508049"
       y="38.136932" /><rect
       style="fill:#047eaa;fill-opacity:1;stroke-width:3.20381;stroke-linejoin:round;paint-order:markers stroke fill"
       id="rect7"
       width="11.334477"
       height="7.99541"
       x="31.206341"
       y="1.4705677"
       transform="matrix(1,0,-0.13399218,0.99098239,0,0)" /></g></svg>
