<?xml version="1.0" encoding="UTF-8" standalone="no"?>
<svg
   width="339.93188"
   height="138.05617"
   viewBox="0 0 189.20737 75.930892"
   fill="none"
   version="1.1"
   id="svg11"
   xml:space="preserve"
   xmlns="http://www.w3.org/2000/svg"
   xmlns:svg="http://www.w3.org/2000/svg"><defs
     id="defs11" /><g
     id="layer4"
     style="display:none"
     transform="translate(-4.7180185,-1.9011811)"><rect
       style="fill:#7f7f7f;fill-opacity:1;stroke-width:1.93292;stroke-linejoin:round;paint-order:markers stroke fill"
       id="rect30"
       width="182.13474"
       height="48.520695"
       x="12.676579"
       y="-0.5815559" /></g><g
     id="layer3"
     transform="translate(-4.7180185,-1.9011811)"><path
       style="font-weight:bold;font-size:30.6667px;font-family:'Plus Jakarta Sans';-inkscape-font-specification:'Plus Jakarta Sans Bold';text-align:center;letter-spacing:0px;white-space:pre;display:inline;opacity:1;fill:#808080;fill-opacity:1;stroke-width:4.84772;stroke-linejoin:round;paint-order:markers stroke fill"
       d="M 86.212399,77.933811 V 58.397987 h 7.289886 q 1.992901,0 3.513821,0.734231 1.547127,0.70801 2.412468,2.097806 0.865356,1.363575 0.865356,3.330268 0,1.940471 -0.891566,3.330269 -0.865354,1.363573 -2.386258,2.097806 -1.52092,0.734231 -3.513821,0.734231 h -3.723613 v 7.211213 z m 3.566273,-10.357922 h 3.776045 q 0.970234,0 1.678246,-0.367117 0.708013,-0.393338 1.101354,-1.075125 0.393343,-0.681786 0.393343,-1.573355 0,-0.91779 -0.393343,-1.573354 -0.393341,-0.681787 -1.101354,-1.048904 -0.708012,-0.393338 -1.678246,-0.393338 H 89.778672 Z M 102.9162,77.933811 V 58.083314 h 3.43517 v 19.850497 z m 10.93486,0.314671 q -1.49468,0 -2.59604,-0.49823 -1.10135,-0.498233 -1.70447,-1.416022 -0.60312,-0.944012 -0.60312,-2.176475 0,-1.180014 0.52444,-2.097806 0.52447,-0.944012 1.62581,-1.573354 1.10135,-0.629342 2.7796,-0.891569 l 4.66763,-0.760453 v 2.622258 l -4.01206,0.681787 q -1.02269,0.183557 -1.52091,0.655564 -0.49824,0.472005 -0.49824,1.232462 0,0.734232 0.55069,1.180015 0.57689,0.419562 1.41601,0.419562 1.07513,0 1.88802,-0.445783 0.83914,-0.472007 1.28493,-1.284908 0.472,-0.812898 0.472,-1.783135 v -3.67116 q 0,-0.917791 -0.73424,-1.52091 -0.70801,-0.629342 -1.88802,-0.629342 -1.10136,0 -1.9667,0.603119 -0.83912,0.576896 -1.23246,1.547133 L 109.4981,67.07766 q 0.41957,-1.12757 1.31113,-1.940472 0.9178,-0.839122 2.15026,-1.311128 1.23246,-0.472006 2.67471,-0.472006 1.75691,0 3.09426,0.655565 1.33736,0.629342 2.0716,1.783135 0.76046,1.127571 0.76046,2.648481 v 9.492576 h -3.25161 v -2.438702 l 0.73423,-0.05245 q -0.55067,0.91779 -1.31113,1.547126 -0.76045,0.603124 -1.73069,0.944021 -0.97023,0.31467 -2.15026,0.31467 z m 17.12335,-0.157335 q -2.41246,0 -3.74981,-1.311134 -1.31114,-1.337349 -1.31114,-3.749827 v -6.293419 h -2.46493 v -3.068043 h 0.26224 q 1.04889,0 1.6258,-0.550673 0.57689,-0.550675 0.57689,-1.599577 v -1.10135 h 3.43516 v 3.2516 h 3.27782 v 3.068043 h -3.27782 v 6.10986 q 0,0.70801 0.23602,1.206238 0.26222,0.498231 0.78665,0.760456 0.55069,0.262226 1.38981,0.262226 0.18355,0 0.41957,-0.02623 0.26222,-0.02623 0.49822,-0.05244 v 2.936932 q -0.36712,0.05242 -0.83912,0.10488 -0.47201,0.05242 -0.86536,0.05242 z m 5.97876,-0.157336 V 66.736767 h -2.51736 v -3.068043 h 2.51736 v -0.472005 q 0,-1.625801 0.65556,-2.753373 0.68179,-1.153793 1.88804,-1.756911 1.20624,-0.603121 2.85826,-0.603121 0.31466,0 0.68179,0.05245 0.39334,0.02623 0.65556,0.07867 v 2.963154 q -0.26222,-0.05245 -0.49824,-0.05245 -0.20978,-0.02623 -0.39333,-0.02623 -1.1538,0 -1.78313,0.524453 -0.62935,0.498228 -0.62935,1.573356 v 0.472005 h 3.17293 v 3.068042 h -3.17293 V 77.93381 Z m 15.5762,0.314671 q -2.09781,0 -3.82851,-0.970238 -1.70446,-0.970237 -2.72714,-2.648481 -0.99646,-1.678246 -0.99646,-3.828496 0,-2.150252 0.99646,-3.828498 1.02268,-1.678244 2.72714,-2.64848 1.70447,-0.970235 3.82851,-0.970235 2.0978,0 3.80226,0.970235 1.70447,0.970236 2.70094,2.64848 1.02268,1.652023 1.02268,3.828498 0,2.15025 -1.02268,3.828496 -1.0227,1.678244 -2.72715,2.648481 -1.70446,0.970238 -3.77605,0.970238 z m 0,-3.146712 q 1.1538,0 2.01913,-0.550674 0.89157,-0.550676 1.38981,-1.52091 0.52444,-0.996458 0.52444,-2.228919 0,-1.258685 -0.52444,-2.202697 -0.49824,-0.970235 -1.38981,-1.52091 -0.86533,-0.576897 -2.01913,-0.576897 -1.18001,0 -2.0716,0.576897 -0.89156,0.550675 -1.416,1.52091 -0.49824,0.944012 -0.49824,2.202697 0,1.232461 0.49824,2.228919 0.52444,0.970234 1.416,1.52091 0.89159,0.550674 2.0716,0.550674 z m 10.12193,2.832041 V 63.668724 h 3.22537 v 3.172934 l -0.26223,-0.472007 q 0.49823,-1.599577 1.54713,-2.22892 1.07514,-0.629342 2.56982,-0.629342 h 0.83911 v 3.041819 h -1.23246 q -1.46845,0 -2.36002,0.91779 -0.89157,0.891568 -0.89157,2.517369 v 7.945444 z m 9.80725,0 V 63.668724 h 3.22537 v 3.304045 l -0.36711,-0.550674 q 0.39334,-1.547133 1.57337,-2.307586 1.18001,-0.760455 2.77958,-0.760455 1.75692,0 3.09427,0.91779 1.33734,0.91779 1.73068,2.412477 l -0.97021,0.07867 q 0.65555,-1.704468 1.96667,-2.543591 1.31113,-0.865344 3.0156,-0.865344 1.52092,0 2.70093,0.681787 1.20623,0.681787 1.88802,1.914249 0.68179,1.206237 0.68179,2.805814 v 9.177907 h -3.43515 v -8.365005 q 0,-0.944014 -0.34089,-1.625801 -0.34092,-0.681787 -0.94401,-1.048903 -0.60312,-0.393339 -1.46848,-0.393339 -0.81289,0 -1.44223,0.393339 -0.62936,0.367116 -0.97025,1.048903 -0.34089,0.681787 -0.34089,1.625801 v 8.365005 h -3.43516 v -8.365005 q 0,-0.944014 -0.34088,-1.625801 -0.3409,-0.681787 -0.97024,-1.048903 -0.60313,-0.393339 -1.44225,-0.393339 -0.81289,0 -1.44223,0.393339 -0.62934,0.367116 -0.97025,1.048903 -0.34088,0.681787 -0.34088,1.625801 v 8.365005 z"
       id="text1-1-4-2"
       aria-label="Platform" /><rect
       style="display:inline;fill:#808080;fill-opacity:1;stroke-width:2.36127;stroke-linejoin:round;paint-order:markers stroke fill"
       id="rect9"
       width="43.126671"
       height="44.528301"
       x="150.71722"
       y="1.4058982" /><rect
       style="display:inline;fill:#808080;fill-opacity:1;stroke-width:2.36127;stroke-linejoin:round;paint-order:markers stroke fill"
       id="rect27"
       width="43.126671"
       height="44.528301"
       x="105.40214"
       y="1.4058982" /><rect
       style="display:inline;fill:#808080;fill-opacity:1;stroke-width:2.36127;stroke-linejoin:round;paint-order:markers stroke fill"
       id="rect28"
       width="43.126671"
       height="44.528301"
       x="60.087044"
       y="1.4058982" /><rect
       style="display:inline;fill:#808080;fill-opacity:1;stroke-width:2.36127;stroke-linejoin:round;paint-order:markers stroke fill"
       id="rect29"
       width="43.126671"
       height="44.528301"
       x="14.771955"
       y="1.4058982" /><rect
       style="display:inline;fill:#bfbe00;fill-opacity:1;stroke-width:0.935813;stroke-linejoin:round;paint-order:markers stroke fill"
       id="rect9-5"
       width="43.126671"
       height="6.9939756"
       x="150.79872"
       y="48.73938" /><rect
       style="display:inline;fill:#f5518f;fill-opacity:1;stroke-width:0.935813;stroke-linejoin:round;paint-order:markers stroke fill"
       id="rect27-9"
       width="43.126671"
       height="6.9939756"
       x="105.48363"
       y="48.73938" /><rect
       style="display:inline;fill:#047eaa;fill-opacity:1;stroke-width:0.935813;stroke-linejoin:round;paint-order:markers stroke fill"
       id="rect28-7"
       width="43.126671"
       height="6.9939756"
       x="60.168541"
       y="48.73938" /><rect
       style="display:inline;fill:#f47d21;fill-opacity:1;stroke-width:0.935813;stroke-linejoin:round;paint-order:markers stroke fill"
       id="rect29-5"
       width="43.126671"
       height="6.9939756"
       x="14.853454"
       y="48.73938" /><rect
       style="display:inline;fill:#bfbe00;fill-opacity:1;stroke-width:0.47545;stroke-linejoin:round;paint-order:markers stroke fill"
       id="rect33"
       width="11.132075"
       height="6.9939756"
       x="34.710632"
       y="-11.711994"
       transform="rotate(90)" /><rect
       style="display:inline;fill:#f5518f;fill-opacity:1;stroke-width:0.47545;stroke-linejoin:round;paint-order:markers stroke fill"
       id="rect32"
       width="11.132075"
       height="6.9939756"
       x="23.636841"
       y="-11.711994"
       transform="rotate(90)" /><rect
       style="display:inline;fill:#047eaa;fill-opacity:1;stroke-width:0.47545;stroke-linejoin:round;paint-order:markers stroke fill"
       id="rect31"
       width="11.132075"
       height="6.9939756"
       x="12.563049"
       y="-11.711994"
       transform="rotate(90)" /><rect
       style="display:inline;fill:#f47d21;fill-opacity:1;stroke-width:0.47545;stroke-linejoin:round;paint-order:markers stroke fill"
       id="rect29-5-4-7"
       width="11.132075"
       height="6.9939756"
       x="1.4892573"
       y="-11.711994"
       transform="rotate(90)" /><path
       d="m 173.22391,44.587691 q -3.86616,0 -7.18779,-1.415776 -3.26717,-1.415776 -5.6631,-3.920609 -2.34148,-2.559287 -3.43053,-5.935368 l 6.15318,-2.668192 q 1.47022,3.484986 4.24732,5.499744 2.7771,1.960304 6.26209,1.960304 1.9603,0 3.37608,-0.598982 1.47023,-0.653434 2.23257,-1.742493 0.81679,-1.089058 0.81679,-2.613739 0,-1.796946 -1.08906,-2.940457 -1.0346,-1.197964 -3.15827,-1.851399 l -7.78676,-2.504834 q -4.73741,-1.470229 -7.13333,-4.410686 -2.39593,-2.940457 -2.39593,-6.915519 0,-3.484987 1.68804,-6.1531792 1.74249,-2.6681926 4.79185,-4.1384211 3.10382,-1.5246815 7.07888,-1.5246815 3.64835,0 6.69771,1.3068698 3.04936,1.252417 5.22748,3.5394392 2.23257,2.2325692 3.32163,5.2819318 l -6.09873,2.722646 q -1.19796,-3.049363 -3.59389,-4.68295 -2.39593,-1.6880406 -5.5542,-1.6880406 -1.8514,0 -3.26717,0.653435 -1.41578,0.5989816 -2.23257,1.7424926 -0.76234,1.089059 -0.76234,2.61374 0,1.68804 1.08906,2.99491 1.08905,1.252417 3.32162,1.960305 l 7.46005,2.341475 q 4.84631,1.579134 7.24224,4.356233 2.45038,2.777098 2.45038,6.861066 0,3.484987 -1.79695,6.153179 -1.79694,2.668193 -4.95521,4.192874 -3.15827,1.524682 -7.35114,1.524682 z"
       id="text12"
       style="font-weight:bold;font-size:80px;font-family:'Plus Jakarta Sans';-inkscape-font-specification:'Plus Jakarta Sans Bold';text-align:center;letter-spacing:0px;text-anchor:middle;white-space:pre;display:inline;fill:#ffffff;stroke-width:3.85887;stroke-linejoin:round;paint-order:markers stroke fill"
       aria-label="S" /><path
       d="m 127.90884,44.879107 q -3.86616,0 -7.1878,-1.415776 -3.26718,-1.415776 -5.66311,-3.920609 -2.34148,-2.559287 -3.43054,-5.935368 l 6.15319,-2.668192 q 1.47023,3.484986 4.24734,5.499744 2.7771,1.960304 6.26209,1.960304 1.9603,0 3.37608,-0.598982 1.47023,-0.653434 2.23257,-1.742493 0.81679,-1.089058 0.81679,-2.613739 0,-1.796946 -1.08906,-2.940457 -1.0346,-1.197964 -3.15827,-1.851399 l -7.78677,-2.504834 q -4.73741,-1.470229 -7.13334,-4.410686 -2.39593,-2.940457 -2.39593,-6.915519 0,-3.484987 1.68804,-6.1531792 1.7425,-2.6681926 4.79186,-4.1384211 3.10382,-1.5246815 7.07889,-1.5246815 3.64835,0 6.69771,1.3068698 3.04936,1.252417 5.22748,3.5394392 2.23257,2.2325688 3.32163,5.2819318 l -6.09873,2.722646 q -1.19796,-3.049363 -3.59389,-4.68295 -2.39593,-1.6880406 -5.5542,-1.6880406 -1.8514,0 -3.26718,0.6534346 -1.41577,0.598982 -2.23257,1.742493 -0.76234,1.089059 -0.76234,2.61374 0,1.68804 1.08906,2.99491 1.08906,1.252417 3.32163,1.960305 l 7.46005,2.341475 q 4.84631,1.579134 7.24224,4.356233 2.45038,2.777098 2.45038,6.861066 0,3.484987 -1.79695,6.153179 -1.79694,2.668193 -4.95521,4.192874 -3.15827,1.524682 -7.35114,1.524682 z"
       id="text23"
       style="font-weight:bold;font-size:80px;font-family:'Plus Jakarta Sans';-inkscape-font-specification:'Plus Jakarta Sans Bold';text-align:center;letter-spacing:0px;text-anchor:middle;white-space:pre;display:inline;fill:#ffffff;stroke-width:3.85887;stroke-linejoin:round;paint-order:markers stroke fill"
       aria-label="S" /><path
       d="m 82.185334,44.441984 q -4.574044,0 -8.004578,-2.069211 -3.430533,-2.06921 -5.336385,-5.60865 -1.905852,-3.539439 -1.905852,-7.841219 0,-4.465138 1.905852,-7.895671 1.960305,-3.484987 5.281933,-5.499744 3.37608,-2.014758 7.514501,-2.014758 3.484986,0 6.098726,1.143511 2.668193,1.143511 4.519591,3.158269 1.8514,2.014758 2.831548,4.628497 0.980158,2.559287 0.980158,5.554197 0,0.762341 -0.10891,1.579134 -0.0545,0.816794 -0.27226,1.415776 H 72.819434 V 25.546824 H 91.66014 l -3.37608,2.559287 q 0.490076,-2.504834 -0.272264,-4.465139 -0.707888,-1.960305 -2.395929,-3.103816 -1.633587,-1.143511 -3.975062,-1.143511 -2.232569,0 -3.975062,1.143511 -1.742493,1.089059 -2.668193,3.267175 -0.871246,2.123663 -0.653435,5.173026 -0.217811,2.722646 0.707888,4.846309 0.980152,2.069211 2.831551,3.212722 1.905852,1.143511 4.356233,1.143511 2.450381,0 4.138421,-1.034605 1.742493,-1.034605 2.722646,-2.777099 l 5.772006,2.831552 q -0.871248,2.123663 -2.722643,3.75725 -1.851399,1.633588 -4.410686,2.559287 -2.504834,0.9257 -5.554197,0.9257 z"
       id="text24"
       style="font-weight:bold;font-size:80px;font-family:'Plus Jakarta Sans';-inkscape-font-specification:'Plus Jakarta Sans Bold';text-align:center;letter-spacing:0px;text-anchor:middle;white-space:pre;display:inline;fill:#ffffff;stroke-width:3.85887;stroke-linejoin:round;paint-order:markers stroke fill"
       aria-label="e" /><path
       d="M 32.541238,44.225672 V 10.192603 H 22.031826 V 3.6582537 H 50.347339 V 10.192603 H 40.001286 v 34.033069 z"
       id="text25"
       style="font-weight:bold;font-size:80px;font-family:'Plus Jakarta Sans';-inkscape-font-specification:'Plus Jakarta Sans Bold';text-align:center;letter-spacing:0px;text-anchor:middle;white-space:pre;display:inline;fill:#ffffff;stroke-width:3.85887;stroke-linejoin:round;paint-order:markers stroke fill"
       aria-label="T" /></g></svg>
