<?xml version="1.0" encoding="UTF-8" standalone="no"?>
<svg
   width="126.65782"
   height="60.134716"
   viewBox="0 0 70.498221 33.074094"
   fill="none"
   version="1.1"
   id="svg11"
   xml:space="preserve"
   xmlns="http://www.w3.org/2000/svg"
   xmlns:svg="http://www.w3.org/2000/svg"><defs
     id="defs11" /><path
     style="fill:#4f4848;fill-opacity:1;stroke-width:0.220147"
     d="m 1.4685919,16.445562 c 0,-0.0016 0.022582,-0.03485 0.050171,-0.07404 0.5739102,-0.814983 0.9741344,-1.742218 1.1742046,-2.720383 0.013313,-0.06513 0.6506869,-2.629721 1.4163637,-5.6990944 0.7656769,-3.069373 1.3921391,-5.583857 1.3921391,-5.587742 0,-0.01212 -3.3288698,-0.0067 -3.4581246,0.0057 -0.7440358,0.07099 -1.45626341,0.302104 -2.01494241,0.653835 -0.014743,0.0093 -0.0275140045,0.01614 -0.028401004508,0.01524 C -9.8561451e-4,3.0381896 0.31189709,2.2563176 0.69509559,1.3016006 l 0.69671541,-1.73584801 8.0287803,-0.0014 c 4.4158277,-7.41e-4 8.0287787,6.4e-4 8.0287787,0.003 0,0.01432 -0.33438,3.47082101 -0.335913,3.47235601 -9.58e-4,0.0011 -0.01495,-0.0087 -0.03087,-0.02165 -0.520264,-0.422066 -1.229873,-0.670239 -1.908123,-0.667328 -0.08588,3.75e-4 -0.847157,0.0022 -1.691722,0.0038 -1.446648,0.0029 -1.535727,0.0037 -1.538296,0.01242 -0.01025,0.03485 -2.8068647,11.2756154 -2.8382137,11.4079444 -0.225252,0.950798 -0.295574,1.601561 -0.233609,2.161816 0.01592,0.143961 0.06653,0.430124 0.08881,0.502091 0.0029,0.009 -0.178035,0.0094 -3.7449567,0.0094 -2.0613312,0 -3.7478706,-0.0013 -3.7478706,-0.0027 z m 31.2155221,-0.02004 c 0.0021,-0.01262 0.06994,-0.781319 0.1516,-1.708236 0.08165,-0.926915 0.149195,-1.686037 0.150063,-1.686935 9.57e-4,-8.88e-4 0.02667,0.01386 0.05739,0.03279 0.546914,0.337349 1.204272,0.544622 1.873016,0.590578 0.110182,0.0075 6.760333,0.0076 6.969816,1.11e-4 0.724777,-0.02618 0.936173,-0.150345 1.081635,-0.6353 0.02046,-0.06816 0.318764,-1.251758 0.337239,-1.338011 0.09386,-0.43824 -0.03663,-0.593437 -0.540997,-0.643288 -0.176665,-0.01746 -0.241815,-0.0179 -3.225226,-0.02168 -2.111417,-0.0026 -3.016708,-0.0056 -3.07177,-0.0098 -0.258112,-0.01978 -0.305279,-0.02408 -0.430752,-0.0393 -1.631088,-0.19791 -2.162678,-1.0181104 -1.851985,-2.8574644 0.04763,-0.282083 0.09197,-0.481545 0.229398,-1.032104 0.05173,-0.207298 0.27196,-1.090829 0.489382,-1.963403 0.407818,-1.63669 0.431525,-1.729937 0.487183,-1.916022 0.655888,-2.192998 2.064802,-3.45341001 4.035471,-3.61013101 0.231415,-0.01841 0.359748,-0.01878 6.381701,-0.01886 l 6.010175,-7e-5 -0.0029,0.02289 c -0.0034,0.02881 -0.271596,3.29557601 -0.271596,3.30968201 0,0.0088 -0.01913,0.0011 -0.125187,-0.05072 -0.565808,-0.276116 -1.141854,-0.432879 -1.762028,-0.479518 -0.133382,-0.01004 -6.584608,-0.01225 -6.856972,-0.0023 -0.740669,0.0269 -0.988793,0.167524 -1.13294,0.642095 -0.02095,0.069 -0.275273,1.094987 -0.287922,1.161548 -0.07558,0.39789 0.05221,0.55041 0.502829,0.6001 0.189637,0.02091 0.175062,0.02079 2.918321,0.02503 1.47181,0.0023 2.692986,0.0056 2.713714,0.0072 0.02076,0.0018 0.0967,0.0067 0.168829,0.01128 2.325269,0.144207 3.208219,1.157171 2.775832,3.184574 -0.025,0.117262 -1.072735,4.3309534 -1.125267,4.5255484 -0.662161,2.45276 -1.903049,3.626785 -4.096977,3.876211 -0.108911,0.01238 -0.189327,0.01972 -0.401132,0.0366 -0.05827,0.0046 -1.60997,0.0067 -6.115614,0.008 l -6.037544,0.0019 z m 18.602587,0.0026 c 0.0021,-0.0111 0.06999,-0.779789 0.151803,-1.708186 0.08182,-0.928396 0.149357,-1.68864 0.150083,-1.689432 4.93e-4,-7.88e-4 0.03501,0.0188 0.07616,0.04353 0.562845,0.338179 1.189884,0.533964 1.857059,0.57984 0.108561,0.0074 6.75707,0.0073 6.968051,-8.5e-5 0.702159,-0.02485 0.923659,-0.145313 1.064235,-0.578772 0.02244,-0.0692 0.327199,-1.270732 0.353717,-1.394547 0.0936,-0.437114 -0.03703,-0.594006 -0.535617,-0.643286 -0.176679,-0.01746 -0.24176,-0.0179 -3.227918,-0.02169 -2.119095,-0.0026 -3.019253,-0.0056 -3.074462,-0.0098 -0.197927,-0.01521 -0.235217,-0.0184 -0.33114,-0.02828 -1.744452,-0.179692 -2.292145,-1.0325204 -1.927505,-3.0013944 0.05503,-0.29715 0.04595,-0.259451 0.536519,-2.226429 0.227855,-0.913591 0.446757,-1.791913 0.486454,-1.951829 0.07599,-0.306162 0.114102,-0.449499 0.159164,-0.598657 0.654139,-2.165263 2.006231,-3.40244701 3.938287,-3.60359401 0.245704,-0.02558 -0.183922,-0.02386 6.38709,-0.02564 l 6.101723,-0.0017 -0.0029,0.02295 c -0.0034,0.02907 -0.276957,3.29590001 -0.276957,3.30981501 0,0.0087 -0.01957,7.39e-4 -0.125186,-0.05079 -0.565814,-0.276116 -1.141849,-0.43288 -1.762029,-0.479518 -0.13354,-0.01005 -6.579557,-0.01225 -6.851587,-0.0023 -0.719618,0.0262 -0.967449,0.154944 -1.112299,0.577836 -0.04013,0.117195 -0.303892,1.181176 -0.320084,1.291235 -0.05163,0.350855 0.07952,0.487177 0.51435,0.534665 0.192641,0.02104 0.166419,0.0208 2.912931,0.02505 1.471816,0.0022 2.692986,0.0056 2.713715,0.0072 0.02077,0.0018 0.09671,0.0067 0.168833,0.01128 1.823314,0.113079 2.73213,0.744306 2.871795,1.994635 0.0108,0.09665 0.0089,0.490488 -0.0029,0.600355 -0.03595,0.335587 -0.06529,0.487892 -0.194498,1.010132 -0.307511,1.242944 -0.994982,3.9989184 -1.026666,4.1157704 -0.710601,2.620504 -2.085807,3.786891 -4.605708,3.906354 -0.07355,0.0035 -2.197661,0.0054 -6.075369,0.0054 l -5.962296,8e-6 z m -34.777454,-0.02856 c -1.980408,-0.05146 -2.79087,-0.781708 -2.646947,-2.384976 0.03752,-0.417873 0.09755,-0.770206 0.213763,-1.254554 0.06842,-0.285136 1.286133,-5.1664134 1.315677,-5.2739714 0.580321,-2.112637 1.479502,-3.069488 3.169474,-3.372753 0.248421,-0.04457 0.434625,-0.06558 0.826497,-0.09322 0.123112,-0.0087 10.017724,-0.01294 10.254493,-0.0044 1.944876,0.07002 2.721973,0.783249 2.587348,2.374661 -0.02416,0.285372 -0.05683,0.512566 -0.118565,0.824007 -0.05911,0.29819 -0.02214,0.148221 -0.643182,2.610247 -0.241523,0.9574834 -0.439132,1.7419134 -0.439132,1.7431824 0,0.0013 -2.344687,0.0028 -5.210411,0.0036 l -5.210415,0.0014 -0.151814,0.607796 c -0.172261,0.689658 -0.186145,0.758065 -0.194094,0.956353 -0.02205,0.549545 0.268563,0.810656 0.952602,0.855949 0.11501,0.0076 6.792606,0.0081 6.906585,5.43e-4 0.752555,-0.05017 1.466262,-0.215608 2.142022,-0.496541 0.05722,-0.02379 0.104645,-0.04242 0.105375,-0.0414 4.94e-4,0.0011 -0.270259,0.664524 -0.602207,1.474465 l -0.603539,1.472619 -6.251121,4.86e-4 c -3.438114,2.64e-4 -6.319203,-0.0013 -6.402409,-0.0034 z m 9.27087,-8.1193304 c 0.279416,-1.126912 0.270502,-1.084576 0.270521,-1.284167 3.4e-5,-0.326137 -0.128865,-0.47083 -0.470926,-0.528628 -0.08179,-0.01382 -2.875882,-0.01812 -3.007158,-0.0047 -0.421614,0.04333 -0.668496,0.230712 -0.836809,0.635122 -0.06163,0.148105 -0.07266,0.189942 -0.41825,1.588834 -0.06072,0.245795 -0.111425,0.449932 -0.112668,0.453637 -0.0021,0.0054 0.434839,0.0066 2.179378,0.0054 l 2.181642,-0.0014 z"
     id="path2" /><path
     style="font-weight:bold;font-size:30.6667px;font-family:'Plus Jakarta Sans';-inkscape-font-specification:'Plus Jakarta Sans Bold';text-align:center;letter-spacing:0px;white-space:pre;fill:#4f4848;stroke-width:3.15555;stroke-linejoin:round;paint-order:markers stroke fill"
     d="M 0.48033332,32.83053 V 20.113973 H 5.2255712 q 1.2972592,0 2.287273,0.477938 1.0070827,0.460868 1.5703663,1.365536 0.5632836,0.887598 0.5632836,2.167789 0,1.263121 -0.5803524,2.167788 -0.5632842,0.887598 -1.5532975,1.365536 -0.9900138,0.477938 -2.287273,0.477938 H 2.8017446 V 32.83053 Z M 2.8017446,26.088193 h 2.4579648 q 0.6315605,0 1.0924289,-0.238968 0.4608685,-0.256038 0.7169068,-0.699837 0.2560377,-0.443799 0.2560377,-1.024152 0,-0.597423 -0.2560377,-1.024152 Q 6.8130068,22.657284 6.3521383,22.418316 5.8912699,22.162277 5.2597094,22.162277 H 2.8017446 Z M 11.353426,32.83053 V 19.909143 h 2.236066 V 32.83053 Z m 7.117871,0.20483 q -0.972944,0 -1.689851,-0.324316 -0.716906,-0.324316 -1.109498,-0.921737 -0.392592,-0.614492 -0.392592,-1.416744 0,-0.768114 0.341385,-1.365536 0.341384,-0.614491 1.05829,-1.024152 0.716907,-0.409661 1.809335,-0.580353 l 3.038318,-0.495007 v 1.70692 l -2.611588,0.443799 q -0.665698,0.119485 -0.990014,0.426731 -0.324314,0.307245 -0.324314,0.802252 0,0.477938 0.358453,0.768114 0.375522,0.273107 0.921737,0.273107 0.699837,0 1.228982,-0.290176 0.546214,-0.307246 0.836391,-0.836391 0.307246,-0.529145 0.307246,-1.160705 v -2.389688 q 0,-0.597423 -0.477938,-0.990014 -0.460869,-0.409661 -1.228982,-0.409661 -0.716907,0 -1.280191,0.392591 -0.546214,0.375523 -0.802252,1.007084 L 15.63781,25.763879 q 0.273107,-0.733976 0.85346,-1.263121 0.597422,-0.546214 1.399674,-0.85346 0.802253,-0.307246 1.741058,-0.307246 1.143637,0 2.014166,0.42673 0.87053,0.409661 1.348467,1.160706 0.495007,0.733976 0.495007,1.72399 v 6.179052 h -2.116581 v -1.587438 l 0.477938,-0.03414 q -0.358453,0.597422 -0.853461,1.007078 -0.495006,0.392595 -1.126567,0.614496 -0.63156,0.20483 -1.399674,0.20483 z M 29.61748,32.932945 q -1.570367,0 -2.440896,-0.853462 -0.85346,-0.870529 -0.85346,-2.440896 v -4.096608 h -1.604505 v -1.997096 h 0.170692 q 0.682768,0 1.05829,-0.358454 0.375523,-0.358453 0.375523,-1.041221 v -0.716906 h 2.236065 v 2.116581 h 2.13365 v 1.997096 h -2.13365 v 3.977124 q 0,0.460868 0.153623,0.785183 0.170692,0.324315 0.512076,0.495007 0.358453,0.170692 0.904668,0.170692 0.119484,0 0.273107,-0.01707 0.170692,-0.01707 0.324315,-0.03414 v 1.911752 q -0.238969,0.03412 -0.546215,0.06827 -0.307245,0.03412 -0.563283,0.03412 z m 3.89178,-0.102415 v -7.288551 h -1.638643 v -1.997096 h 1.638643 v -0.307246 q 0,-1.05829 0.42673,-1.792266 0.443799,-0.751045 1.228982,-1.143636 0.785184,-0.392592 1.860544,-0.392592 0.20483,0 0.443799,0.03414 0.256038,0.01707 0.42673,0.05121 v 1.92882 q -0.170692,-0.03414 -0.324315,-0.03414 -0.136554,-0.01707 -0.256038,-0.01707 -0.751045,0 -1.160706,0.341384 -0.409661,0.324315 -0.409661,1.024152 v 0.307246 h 2.065374 v 1.997096 h -2.065374 v 7.288552 z m 10.139087,0.20483 q -1.365536,0 -2.492103,-0.631561 -1.109499,-0.631561 -1.775197,-1.72399 -0.64863,-1.092429 -0.64863,-2.492103 0,-1.399675 0.64863,-2.492104 0.665698,-1.092429 1.775197,-1.723989 1.109497,-0.631561 2.492103,-0.631561 1.365536,0 2.475034,0.631561 1.109498,0.63156 1.758128,1.723989 0.665699,1.075359 0.665699,2.492104 0,1.399674 -0.665699,2.492103 -0.665699,1.092429 -1.775197,1.72399 -1.109498,0.631561 -2.457965,0.631561 z m 0,-2.048306 q 0.751045,0 1.314328,-0.358453 0.580353,-0.358453 0.904668,-0.990014 0.341384,-0.648629 0.341384,-1.450881 0,-0.819322 -0.341384,-1.433813 -0.324315,-0.631561 -0.904668,-0.990014 -0.563283,-0.375522 -1.314328,-0.375522 -0.768114,0 -1.348467,0.375522 -0.580353,0.358453 -0.921737,0.990014 -0.324315,0.614491 -0.324315,1.433813 0,0.802252 0.324315,1.450881 0.341384,0.631561 0.921737,0.990014 0.580353,0.358453 1.348467,0.358453 z m 6.588716,1.843476 v -9.285647 h 2.099512 v 2.065373 L 52.165883,25.30301 q 0.324315,-1.041221 1.007083,-1.450882 0.699837,-0.40966 1.672782,-0.40966 h 0.546212 v 1.980027 h -0.80225 q -0.955875,0 -1.536228,0.597422 -0.580353,0.580352 -0.580353,1.638643 v 5.17197 z m 6.383895,0 v -9.285647 h 2.099509 v 2.150719 l -0.238966,-0.358453 q 0.256037,-1.007083 1.024151,-1.50209 0.768113,-0.495007 1.809335,-0.495007 1.143637,0 2.014165,0.597422 0.870528,0.597423 1.126566,1.570367 l -0.631556,0.05121 q 0.426726,-1.109499 1.280189,-1.655713 0.853457,-0.563284 1.962958,-0.563284 0.990014,0 1.758127,0.4438 0.785184,0.443799 1.228981,1.246051 0.443803,0.785183 0.443803,1.826405 v 5.974222 h -2.236067 v -5.445077 q 0,-0.614492 -0.221901,-1.058291 -0.221901,-0.443799 -0.614491,-0.682768 -0.392589,-0.256037 -0.955878,-0.256037 -0.52914,0 -0.938801,0.256037 -0.409666,0.238969 -0.631561,0.682768 -0.221902,0.443799 -0.221902,1.058291 v 5.445077 h -2.236066 v -5.445077 q 0,-0.614492 -0.221896,-1.058291 -0.221901,-0.443799 -0.631561,-0.682768 -0.392595,-0.256037 -0.938807,-0.256037 -0.529147,0 -0.938807,0.256037 -0.409661,0.238969 -0.631562,0.682768 -0.221896,0.443799 -0.221896,1.058291 v 5.445077 z"
     id="text1-1"
     aria-label="Platform" /></svg>
