<?xml version="1.0" encoding="UTF-8" standalone="no"?>
<svg
   width="106"
   height="30"
   viewBox="0 0 59 16.5"
   fill="none"
   version="1.1"
   id="svg11"
   sodipodi:docname="logo.svg"
   inkscape:version="1.3.2 (091e20e, 2023-11-25)"
   inkscape:export-filename="logo.png"
   inkscape:export-xdpi="960"
   inkscape:export-ydpi="960"
   xmlns:inkscape="http://www.inkscape.org/namespaces/inkscape"
   xmlns:sodipodi="http://sodipodi.sourceforge.net/DTD/sodipodi-0.dtd"
   xmlns="http://www.w3.org/2000/svg"
   xmlns:svg="http://www.w3.org/2000/svg">
  <sodipodi:namedview
     id="namedview11"
     pagecolor="#ffffff"
     bordercolor="#000000"
     borderopacity="0.25"
     inkscape:showpageshadow="2"
     inkscape:pageopacity="0.0"
     inkscape:pagecheckerboard="0"
     inkscape:deskcolor="#d1d1d1"
     inkscape:zoom="2.95"
     inkscape:cx="42.881356"
     inkscape:cy="32.20339"
     inkscape:window-width="1312"
     inkscape:window-height="449"
     inkscape:window-x="0"
     inkscape:window-y="25"
     inkscape:window-maximized="0"
     inkscape:current-layer="svg11" />
  <g
     id="g24"
     transform="translate(0,0.56603774)">
    <path
       d="m 32.67,38.8953 -0.1015,1.0531 C 32.3789,39.7941 32.1366,39.7196 31.8929,39.7408 H 31.006 l -0.842,3.382 c -0.1214,0.4868 -0.1064,0.6778 -0.0599,0.8771 h -2.268 c 0.189,-0.261 0.318,-0.5605 0.3778,-0.8771 l 0.8436,-3.382 h -0.8869 c -0.2744,-0.0091 -0.5454,0.0631 -0.7788,0.2076 l 0.4227,-1.0531 z"
       fill="#4f4848"
       id="path8"
       clip-path="url(#clipPath15)"
       transform="matrix(2.6925243,0,0,2.6925243,-72.965061,-103.68128)" />
    <path
       d="m 33.625,42.525 -0.0882,0.3521 c -0.0599,0.2708 0.0333,0.3821 0.3328,0.3821 h 1.8137 c 0.3067,0.0135 0.6123,-0.0434 0.8936,-0.1661 l -0.3661,0.8937 h -3.7506 c -0.847,0 -0.9984,-0.3505 -0.8037,-1.1329 l 0.3694,-1.4834 c 0.1947,-0.7807 0.5225,-1.1312 1.3694,-1.1312 h 2.8671 c 0.847,0 0.9984,0.3505 0.8037,1.1312 l -0.2912,1.1545 z m 1.4976,-0.7326 0.1264,-0.51 c 0.0549,-0.2159 0.0117,-0.3039 -0.1963,-0.3039 h -0.7738 c -0.208,0 -0.2945,0.088 -0.3478,0.3039 l -0.1264,0.51 z"
       fill="#4f4848"
       id="path9"
       clip-path="url(#clipPath14)"
       transform="matrix(2.6925243,0,0,2.6925243,-72.965061,-103.68128)" />
    <path
       d="m 42.9767,39.9086 c -0.23,-0.1219 -0.4888,-0.1793 -0.7488,-0.1661 h -1.8138 c -0.3028,0 -0.3844,0.0399 -0.431,0.2242 l -0.0715,0.2874 c -0.0466,0.191 0.0166,0.2226 0.3195,0.2226 h 1.3828 c 0.8319,0 1.2063,0.2874 1.0216,1.0282 l -0.3095,1.2442 c -0.2013,0.8057 -0.6007,1.2525 -1.5358,1.2525 h -3.516 l 0.0915,-1.0365 c 0.2145,0.1354 0.4653,0.2021 0.7188,0.191 h 1.8853 c 0.3029,0 0.3744,-0.0316 0.4227,-0.2242 l 0.0882,-0.3505 c 0.0449,-0.1828 -0.0083,-0.2226 -0.3129,-0.2226 h -1.5891 c -0.7754,0 -1.015,-0.2558 -0.802,-1.108 l 0.2845,-1.1412 c 0.198,-0.7973 0.6939,-1.2126 1.3811,-1.2126 h 3.6176 z"
       fill="#4f4848"
       id="path10"
       clip-path="url(#clipPath13)"
       transform="matrix(2.6925243,0,0,2.6925243,-72.965061,-103.68128)" />
    <path
       d="m 48.5993,39.9086 c -0.23,-0.1219 -0.4888,-0.1793 -0.7488,-0.1661 h -1.8121 c -0.3045,0 -0.3861,0.0399 -0.431,0.2242 l -0.0715,0.2874 c -0.0483,0.191 0.0149,0.2226 0.3194,0.2226 h 1.3812 c 0.8319,0 1.2064,0.2874 1.0216,1.0282 l -0.3095,1.2442 c -0.2013,0.8057 -0.6007,1.2525 -1.5342,1.2525 h -3.516 L 42.99,42.9651 c 0.2144,0.1354 0.4653,0.2021 0.7188,0.191 h 1.8853 c 0.3028,0 0.3761,-0.0316 0.4227,-0.2242 l 0.0881,-0.3505 c 0.045,-0.1828 -0.0083,-0.2226 -0.3111,-0.2226 H 44.203 c -0.7737,0 -1.015,-0.2558 -0.802,-1.108 l 0.2845,-1.1412 c 0.1997,-0.7973 0.6939,-1.2126 1.3811,-1.2126 h 3.6175 z"
       fill="#4f4848"
       id="path11"
       clip-path="url(#clipPath12)"
       transform="matrix(2.6925243,0,0,2.6925243,-72.965061,-103.68128)" />
  </g>
  <defs
     id="defs11">
    <clipPath
       clipPathUnits="userSpaceOnUse"
       id="clipPath12">
      <g
         id="g13">
        <rect
           width="58"
           height="44"
           fill="#ffffff"
           id="rect12"
           x="0.5"
           y="0" />
      </g>
    </clipPath>
    <clipPath
       clipPathUnits="userSpaceOnUse"
       id="clipPath13">
      <g
         id="g14">
        <rect
           width="58"
           height="44"
           fill="#ffffff"
           id="rect13"
           x="0.5"
           y="0" />
      </g>
    </clipPath>
    <clipPath
       clipPathUnits="userSpaceOnUse"
       id="clipPath14">
      <g
         id="g15">
        <rect
           width="58"
           height="44"
           fill="#ffffff"
           id="rect14"
           x="0.5"
           y="0" />
      </g>
    </clipPath>
    <clipPath
       clipPathUnits="userSpaceOnUse"
       id="clipPath15">
      <g
         id="g16">
        <rect
           width="58"
           height="44"
           fill="#ffffff"
           id="rect15"
           x="0.5"
           y="0" />
      </g>
    </clipPath>
    <clipPath
       clipPathUnits="userSpaceOnUse"
       id="clipPath16">
      <g
         id="g17">
        <rect
           width="58"
           height="44"
           fill="#ffffff"
           id="rect16"
           x="0.5"
           y="0" />
      </g>
    </clipPath>
    <clipPath
       clipPathUnits="userSpaceOnUse"
       id="clipPath17">
      <g
         id="g18">
        <rect
           width="58"
           height="44"
           fill="#ffffff"
           id="rect17"
           x="0.5"
           y="0" />
      </g>
    </clipPath>
    <clipPath
       clipPathUnits="userSpaceOnUse"
       id="clipPath18">
      <g
         id="g19">
        <rect
           width="58"
           height="44"
           fill="#ffffff"
           id="rect18"
           x="0.5"
           y="0" />
      </g>
    </clipPath>
    <clipPath
       clipPathUnits="userSpaceOnUse"
       id="clipPath19">
      <g
         id="g20">
        <rect
           width="58"
           height="44"
           fill="#ffffff"
           id="rect19"
           x="0.5"
           y="0" />
      </g>
    </clipPath>
    <clipPath
       clipPathUnits="userSpaceOnUse"
       id="clipPath20">
      <g
         id="g21">
        <rect
           width="58"
           height="44"
           fill="#ffffff"
           id="rect20"
           x="0.5"
           y="0" />
      </g>
    </clipPath>
    <clipPath
       clipPathUnits="userSpaceOnUse"
       id="clipPath21">
      <g
         id="g22">
        <rect
           width="58"
           height="44"
           fill="#ffffff"
           id="rect21"
           x="0.5"
           y="0" />
      </g>
    </clipPath>
    <clipPath
       clipPathUnits="userSpaceOnUse"
       id="clipPath22">
      <g
         id="g23">
        <rect
           width="58"
           height="44"
           fill="#ffffff"
           id="rect22"
           x="0.5"
           y="0" />
      </g>
    </clipPath>
  </defs>
</svg>
