<?xml version="1.0" encoding="UTF-8" standalone="no"?>
<svg
   width="251pt"
   height="251pt"
   viewBox="0 0 251 251"
   version="1.1"
   id="svg12"
   xmlns="http://www.w3.org/2000/svg"
   xmlns:svg="http://www.w3.org/2000/svg">
  <defs
     id="defs12" />
  <g
     id="#2bb673ff">
    <path
       fill="#2bb673"
       opacity="1"
       d="m 120.68,0 h 0.29 c 0.06,26.21 0.01,52.41 0.03,78.62 C 109.28,85.14 97.84,92.18 86.04,98.58 63.56,85.33 40.88,72.41 18.28,59.37 20.27,57.93 22.42,56.75 24.55,55.54 56.59,37.02 88.67,18.57 120.68,0 Z"
       id="path1" />
    <path
       fill="#2bb673"
       opacity="1"
       d="m 172.97,101.91 c 20.83,-11.96 41.57,-24.08 62.44,-35.96 -0.04,39.57 0,79.14 -0.02,118.71 -22.74,-13.06 -45.39,-26.28 -68.16,-39.28 -0.03,-10.45 -0.01,-20.9 -0.01,-31.35 -0.05,-2.9 0.33,-5.87 -0.55,-8.68 l -0.01,-0.04 c 2.24,-0.86 4.22,-2.24 6.31,-3.4 z"
       id="path2" />
    <path
       fill="#2bb673"
       opacity="1"
       d="m 19.43,190.58 c 22.23,-12.94 44.61,-25.61 66.76,-38.67 11.61,6.66 23.14,13.46 34.81,20.02 -0.01,26.25 0.02,52.5 -0.02,78.74 -34.25,-19.62 -68.32,-39.59 -102.64,-59.11 0.27,-0.24 0.82,-0.73 1.09,-0.98 z"
       id="path3" />
  </g>
  <g
     id="#0b794bff">
    <path
       fill="#0b794b"
       opacity="1"
       d="m 128.78,0 h 0.24 c 31.27,18.02 62.52,36.09 93.78,54.13 2.9,1.77 5.99,3.23 8.73,5.26 -22.57,12.94 -45.16,25.88 -67.59,39.07 -11.92,-6.39 -23.33,-13.73 -35.32,-19.99 0.4,-26.15 0.07,-52.32 0.16,-78.47 z"
       id="path4" />
    <path
       fill="#0b794b"
       opacity="1"
       d="m 14.01,65.47 c 22.78,13.05 45.47,26.27 68.25,39.33 0.1,13.45 -0.15,26.92 0.12,40.37 l 0.03,0.57 C 59.52,158.71 36.83,172.04 14,185.13 14,145.24 13.99,105.36 14.01,65.47 Z"
       id="path5" />
    <path
       fill="#0b794b"
       opacity="1"
       d="m 163.65,152.03 c 22.64,13.13 45.34,26.18 68.01,39.29 -34.29,19.8 -68.6,39.58 -102.87,59.4 -0.02,-26.16 0.08,-52.32 -0.05,-78.47 11.62,-6.76 23.36,-13.32 34.91,-20.22 z"
       id="path6" />
  </g>
  <g
     id="#454547ff">
    <path
       fill="#454547"
       opacity="1"
       d="m 86.04,98.58 c 11.8,-6.4 23.24,-13.44 34.96,-19.96 -0.02,13.42 0.03,26.84 -0.03,40.26 -11.64,-6.77 -23.41,-13.33 -34.93,-20.3 z"
       id="path7" />
    <path
       fill="#454547"
       opacity="1"
       d="m 128.62,78.47 c 11.99,6.26 23.4,13.6 35.32,19.99 -11.69,7.05 -23.55,13.83 -35.45,20.52 -0.06,-13.5 -0.31,-27.02 0.13,-40.51 z"
       id="path8" />
    <path
       fill="#454547"
       opacity="1"
       d="m 82.26,104.8 c 12.01,6.58 23.86,13.55 35.68,20.51 -11.81,6.9 -23.66,13.7 -35.52,20.51 l -0.04,-0.65 C 82.11,131.72 82.36,118.25 82.26,104.8 Z"
       id="path9" />
    <path
       fill="#454547"
       opacity="1"
       d="m 135.34,123.35 c 10.46,-5.97 20.82,-12.11 31.33,-18 0.88,2.81 0.5,5.78 0.55,8.68 0,10.45 -0.02,20.9 0.01,31.35 -11.8,-6.23 -23.11,-13.37 -34.8,-19.82 0.65,-1.09 1.87,-1.58 2.91,-2.21 z"
       id="path10" />
    <path
       fill="#454547"
       opacity="1"
       d="m 86.19,151.91 c 11.48,-6.92 23.12,-13.58 34.8,-20.14 0.02,13.39 0,26.77 0.01,40.16 -11.67,-6.56 -23.2,-13.36 -34.81,-20.02 z"
       id="path11" />
    <path
       fill="#454547"
       opacity="1"
       d="m 128.64,131.78 c 11.78,6.53 23.49,13.27 35.01,20.25 -11.55,6.9 -23.29,13.46 -34.91,20.22 -0.3,-13.48 -0.1,-26.99 -0.1,-40.47 z"
       id="path12" />
  </g>
</svg>
