<?xml version="1.0" encoding="UTF-8" standalone="no"?>
<!-- Created with Inkscape (http://www.inkscape.org/) -->

<svg
   width="1000"
   height="500"
   viewBox="0 0 264.58333 132.29167"
   version="1.1"
   id="svg1"
   inkscape:version="1.3.2 (091e20e, 2023-11-25)"
   sodipodi:docname="search-intro.svg"
   xmlns:inkscape="http://www.inkscape.org/namespaces/inkscape"
   xmlns:sodipodi="http://sodipodi.sourceforge.net/DTD/sodipodi-0.dtd"
   xmlns="http://www.w3.org/2000/svg"
   xmlns:svg="http://www.w3.org/2000/svg">
  <sodipodi:namedview
     id="namedview1"
     pagecolor="#ffffff"
     bordercolor="#000000"
     borderopacity="0.25"
     inkscape:showpageshadow="2"
     inkscape:pageopacity="0.0"
     inkscape:pagecheckerboard="0"
     inkscape:deskcolor="#d1d1d1"
     inkscape:document-units="mm"
     inkscape:zoom="1"
     inkscape:cx="488.5"
     inkscape:cy="146"
     inkscape:window-width="1944"
     inkscape:window-height="1225"
     inkscape:window-x="952"
     inkscape:window-y="346"
     inkscape:window-maximized="0"
     inkscape:current-layer="layer1" />
  <defs
     id="defs1">
    <rect
       x="14"
       y="3"
       width="156"
       height="41"
       id="rect17" />
  </defs>
  <g
     inkscape:label="Shapes"
     inkscape:groupmode="layer"
     id="layer1">
    <rect
       style="display:inline;fill:#fbdcc5;fill-opacity:1;stroke:#808080;stroke-width:5.2185;stroke-dasharray:none;stroke-opacity:1;paint-order:fill markers stroke"
       id="rect1-0"
       width="260.24744"
       height="126.41801"
       x="2.6970921"
       y="3.2273293"
       ry="0"
       inkscape:label="frame" />
    <g
       id="g6"
       transform="translate(-24.871902,2.9104168)"
       inkscape:label="logo">
      <g
         id="layer5"
         transform="matrix(0.18652885,0,0,0.18652885,32.121661,7.4126371)">
        <rect
           style="fill:#f47d21;fill-opacity:1;stroke:none;stroke-width:2.54961;stroke-linejoin:miter;stroke-dasharray:none;stroke-opacity:1;paint-order:fill markers stroke"
           id="rect34"
           width="99.081291"
           height="55.223255"
           x="5.0997734"
           y="22.672256" />
        <rect
           style="fill:#047eaa;fill-opacity:1;stroke:none;stroke-width:2.54961;stroke-linejoin:miter;stroke-dasharray:none;stroke-opacity:1;paint-order:fill markers stroke"
           id="rect35"
           width="99.081291"
           height="55.223255"
           x="103.88966"
           y="31.12331" />
        <rect
           style="fill:#fac59e;fill-opacity:1;stroke:none;stroke-width:0.6814;stroke-linejoin:miter;stroke-dasharray:none;stroke-opacity:1;paint-order:fill markers stroke"
           id="rect36"
           width="45.460823"
           height="8.5967607"
           x="103.88966"
           y="22.672256" />
        <rect
           style="fill:#fac59e;fill-opacity:1;stroke:none;stroke-width:0.6814;stroke-linejoin:miter;stroke-dasharray:none;stroke-opacity:1;paint-order:fill markers stroke"
           id="rect37"
           width="45.460823"
           height="8.5967607"
           x="58.428829"
           y="77.749802" />
      </g>
      <g
         id="layer3"
         transform="matrix(0.18652885,0,0,0.18652885,32.121661,7.4126371)">
        <path
           style="font-weight:bold;font-size:30.6667px;font-family:'Plus Jakarta Sans';-inkscape-font-specification:'Plus Jakarta Sans Bold';text-align:center;letter-spacing:0px;white-space:pre;display:inline;opacity:1;fill:#808080;fill-opacity:1;stroke-width:4.84772;stroke-linejoin:round;paint-order:markers stroke fill"
           d="M 85.920983,108.82386 V 89.288039 h 7.289886 q 1.992901,0 3.513821,0.734231 1.547127,0.70801 2.412468,2.097806 0.865352,1.363575 0.865352,3.330268 0,1.940471 -0.891562,3.330269 -0.865354,1.363577 -2.386258,2.097807 -1.52092,0.73423 -3.513821,0.73423 h -3.723613 v 7.21121 z m 3.566273,-10.357919 h 3.776045 q 0.970234,0 1.678246,-0.367117 0.708013,-0.393338 1.101354,-1.075125 0.393343,-0.681786 0.393343,-1.573355 0,-0.91779 -0.393343,-1.573354 -0.393341,-0.681787 -1.101354,-1.048904 -0.708012,-0.393338 -1.678246,-0.393338 H 89.487256 Z M 102.62478,108.82386 V 88.973366 h 3.43517 v 19.850494 z m 10.93486,0.31467 q -1.49468,0 -2.59604,-0.49823 -1.10135,-0.49823 -1.70447,-1.41602 -0.60312,-0.94401 -0.60312,-2.17647 0,-1.18002 0.52444,-2.09781 0.52447,-0.94401 1.62581,-1.57335 1.10135,-0.62934 2.7796,-0.89157 l 4.66763,-0.760455 v 2.622255 l -4.01206,0.68179 q -1.02269,0.18356 -1.52091,0.65556 -0.49824,0.47201 -0.49824,1.23247 0,0.73423 0.55069,1.18001 0.57689,0.41956 1.41601,0.41956 1.07513,0 1.88802,-0.44578 0.83914,-0.47201 1.28493,-1.28491 0.472,-0.8129 0.472,-1.78313 v -3.671163 q 0,-0.917791 -0.73424,-1.52091 -0.70801,-0.629342 -1.88802,-0.629342 -1.10136,0 -1.9667,0.603119 -0.83912,0.576896 -1.23246,1.547133 l -2.80583,-1.363575 q 0.41957,-1.12757 1.31113,-1.940472 0.9178,-0.839122 2.15026,-1.311128 1.23246,-0.472006 2.67471,-0.472006 1.75691,0 3.09426,0.655565 1.33736,0.629342 2.0716,1.783135 0.76046,1.127571 0.76046,2.648481 v 9.492573 h -3.25161 v -2.4387 l 0.73423,-0.0524 q -0.55067,0.91779 -1.31113,1.54713 -0.76045,0.60312 -1.73069,0.94402 -0.97023,0.31467 -2.15026,0.31467 z m 17.12335,-0.15733 q -2.41246,0 -3.74981,-1.31113 -1.31114,-1.33735 -1.31114,-3.74983 v -6.293421 h -2.46493 v -3.068043 h 0.26224 q 1.04889,0 1.6258,-0.550673 0.57689,-0.550675 0.57689,-1.599577 v -1.10135 h 3.43516 v 3.2516 h 3.27782 v 3.068043 h -3.27782 v 6.109861 q 0,0.70801 0.23602,1.20624 0.26222,0.49823 0.78665,0.76045 0.55069,0.26223 1.38981,0.26223 0.18355,0 0.41957,-0.0262 0.26222,-0.0262 0.49822,-0.0524 v 2.93693 q -0.36712,0.0524 -0.83912,0.10488 -0.47201,0.0524 -0.86536,0.0524 z m 5.97876,-0.15734 V 97.626819 h -2.51736 v -3.068043 h 2.51736 v -0.472005 q 0,-1.625801 0.65556,-2.753373 0.68179,-1.153793 1.88804,-1.756911 1.20624,-0.603121 2.85826,-0.603121 0.31466,0 0.68179,0.05245 0.39334,0.02623 0.65556,0.07867 v 2.963154 q -0.26222,-0.05245 -0.49824,-0.05245 -0.20978,-0.02623 -0.39333,-0.02623 -1.1538,0 -1.78313,0.524453 -0.62935,0.498228 -0.62935,1.573356 v 0.472005 h 3.17293 v 3.068042 h -3.17293 v 11.197044 z m 15.5762,0.31467 q -2.09781,0 -3.82851,-0.97023 -1.70446,-0.97024 -2.72714,-2.64848 -0.99646,-1.67825 -0.99646,-3.8285 0,-2.150253 0.99646,-3.828499 1.02268,-1.678244 2.72714,-2.64848 1.70447,-0.970235 3.82851,-0.970235 2.0978,0 3.80226,0.970235 1.70447,0.970236 2.70094,2.64848 1.02268,1.652023 1.02268,3.828499 0,2.15025 -1.02268,3.8285 -1.0227,1.67824 -2.72715,2.64848 -1.70446,0.97023 -3.77605,0.97023 z m 0,-3.14671 q 1.1538,0 2.01913,-0.55067 0.89157,-0.55068 1.38981,-1.52091 0.52444,-0.99646 0.52444,-2.22892 0,-1.25869 -0.52444,-2.202698 -0.49824,-0.970235 -1.38981,-1.52091 -0.86533,-0.576897 -2.01913,-0.576897 -1.18001,0 -2.0716,0.576897 -0.89156,0.550675 -1.416,1.52091 -0.49824,0.944008 -0.49824,2.202698 0,1.23246 0.49824,2.22892 0.52444,0.97023 1.416,1.52091 0.89159,0.55067 2.0716,0.55067 z m 10.12193,2.83204 V 94.558776 h 3.22537 v 3.172934 l -0.26223,-0.472007 q 0.49823,-1.599577 1.54713,-2.22892 1.07514,-0.629342 2.56982,-0.629342 h 0.83911 v 3.041819 h -1.23246 q -1.46845,0 -2.36002,0.91779 -0.89157,0.891568 -0.89157,2.51737 v 7.94544 z m 9.80725,0 V 94.558776 h 3.22537 v 3.304045 l -0.36711,-0.550674 q 0.39334,-1.547133 1.57337,-2.307586 1.18001,-0.760455 2.77958,-0.760455 1.75692,0 3.09427,0.91779 1.33734,0.91779 1.73068,2.412477 l -0.97021,0.07867 q 0.65555,-1.704468 1.96667,-2.543591 1.31113,-0.865344 3.0156,-0.865344 1.52092,0 2.70093,0.681787 1.20623,0.681787 1.88802,1.914249 0.68179,1.206237 0.68179,2.805814 v 9.177912 h -3.43515 v -8.36501 q 0,-0.944014 -0.34089,-1.625801 -0.34092,-0.681787 -0.94401,-1.048903 -0.60312,-0.393339 -1.46848,-0.393339 -0.81289,0 -1.44223,0.393339 -0.62936,0.367116 -0.97025,1.048903 -0.34089,0.681787 -0.34089,1.625801 v 8.36501 h -3.43516 v -8.36501 q 0,-0.944014 -0.34088,-1.625801 -0.3409,-0.681787 -0.97024,-1.048903 -0.60313,-0.393339 -1.44225,-0.393339 -0.81289,0 -1.44223,0.393339 -0.62934,0.367116 -0.97025,1.048903 -0.34088,0.681787 -0.34088,1.625801 v 8.36501 z"
           id="text1-1-4-2"
           aria-label="Platform" />
        <rect
           style="display:inline;fill:none;fill-opacity:1;stroke:#7f7f7f;stroke-width:2.22642;stroke-linejoin:miter;stroke-dasharray:none;stroke-opacity:1;paint-order:fill markers stroke"
           id="rect9"
           width="43.126671"
           height="44.528301"
           x="150.42581"
           y="32.295952" />
        <rect
           style="display:inline;fill:none;fill-opacity:1;stroke:#7f7f7f;stroke-width:2.22642;stroke-linejoin:miter;stroke-dasharray:none;stroke-opacity:1;paint-order:fill markers stroke"
           id="rect27"
           width="43.126671"
           height="44.528301"
           x="105.11073"
           y="32.295952" />
        <rect
           style="display:inline;fill:none;fill-opacity:1;stroke:#7f7f7f;stroke-width:2.22642;stroke-linejoin:miter;stroke-dasharray:none;stroke-opacity:1;paint-order:fill markers stroke"
           id="rect28"
           width="43.126671"
           height="44.528301"
           x="59.795628"
           y="32.295952" />
        <rect
           style="display:inline;fill:none;fill-opacity:1;stroke:#7f7f7f;stroke-width:2.22642;stroke-linejoin:miter;stroke-dasharray:none;stroke-opacity:1;paint-order:fill markers stroke"
           id="rect29"
           width="43.126671"
           height="44.528301"
           x="14.480539"
           y="32.295952" />
        <path
           d="m 172.93249,75.477743 q -3.86616,0 -7.18779,-1.415776 -3.26717,-1.415776 -5.6631,-3.920609 -2.34148,-2.559287 -3.43053,-5.935368 l 6.15318,-2.668192 q 1.47022,3.484986 4.24732,5.499744 2.7771,1.960304 6.26209,1.960304 1.9603,0 3.37608,-0.598982 1.47023,-0.653434 2.23257,-1.742493 0.81679,-1.089058 0.81679,-2.613739 0,-1.796946 -1.08906,-2.940457 -1.0346,-1.197964 -3.15827,-1.851399 l -7.78676,-2.504834 q -4.73741,-1.470229 -7.13333,-4.410686 -2.39593,-2.940457 -2.39593,-6.915519 0,-3.484987 1.68804,-6.153179 1.74249,-2.668193 4.79185,-4.138421 3.10382,-1.524682 7.07888,-1.524682 3.64835,0 6.69771,1.30687 3.04936,1.252417 5.22748,3.539439 2.23257,2.23257 3.32163,5.281932 l -6.09873,2.722646 q -1.19796,-3.049363 -3.59389,-4.68295 -2.39593,-1.68804 -5.5542,-1.68804 -1.8514,0 -3.26717,0.653435 -1.41578,0.598981 -2.23257,1.742492 -0.76234,1.089059 -0.76234,2.61374 0,1.68804 1.08906,2.99491 1.08905,1.252417 3.32162,1.960305 l 7.46005,2.341475 q 4.84631,1.579134 7.24224,4.356233 2.45038,2.777098 2.45038,6.861066 0,3.484987 -1.79695,6.153179 -1.79694,2.668193 -4.95521,4.192874 -3.15827,1.524682 -7.35114,1.524682 z"
           id="text12"
           style="font-weight:bold;font-size:80px;font-family:'Plus Jakarta Sans';-inkscape-font-specification:'Plus Jakarta Sans Bold';text-align:center;letter-spacing:0px;text-anchor:middle;white-space:pre;display:inline;fill:#ffffff;stroke-width:3.85887;stroke-linejoin:round;paint-order:markers stroke fill"
           aria-label="S" />
        <path
           d="m 127.61742,75.769159 q -3.86616,0 -7.1878,-1.415776 -3.26718,-1.415776 -5.66311,-3.920609 -2.34148,-2.559287 -3.43054,-5.935368 l 6.15319,-2.668192 q 1.47023,3.484986 4.24734,5.499744 2.7771,1.960304 6.26209,1.960304 1.9603,0 3.37608,-0.598982 1.47023,-0.653434 2.23257,-1.742493 0.81679,-1.089058 0.81679,-2.613739 0,-1.796946 -1.08906,-2.940457 -1.0346,-1.197964 -3.15827,-1.851399 l -7.78677,-2.504834 q -4.73741,-1.470229 -7.13334,-4.410686 -2.39593,-2.940457 -2.39593,-6.915519 0,-3.484987 1.68804,-6.153179 1.7425,-2.668193 4.79186,-4.138421 3.10382,-1.524682 7.07889,-1.524682 3.64835,0 6.69771,1.30687 3.04936,1.252417 5.22748,3.539439 2.23257,2.232569 3.32163,5.281932 l -6.09873,2.722646 q -1.19796,-3.049363 -3.59389,-4.68295 -2.39593,-1.68804 -5.5542,-1.68804 -1.8514,0 -3.26718,0.653434 -1.41577,0.598982 -2.23257,1.742493 -0.76234,1.089059 -0.76234,2.61374 0,1.68804 1.08906,2.99491 1.08906,1.252417 3.32163,1.960305 l 7.46005,2.341475 q 4.84631,1.579134 7.24224,4.356233 2.45038,2.777098 2.45038,6.861066 0,3.484987 -1.79695,6.153179 -1.79694,2.668193 -4.95521,4.192874 -3.15827,1.524682 -7.35114,1.524682 z"
           id="text23"
           style="font-weight:bold;font-size:80px;font-family:'Plus Jakarta Sans';-inkscape-font-specification:'Plus Jakarta Sans Bold';text-align:center;letter-spacing:0px;text-anchor:middle;white-space:pre;display:inline;fill:#ffffff;stroke-width:3.85887;stroke-linejoin:round;paint-order:markers stroke fill"
           aria-label="S" />
        <path
           d="m 81.893918,75.332036 q -4.574044,0 -8.004578,-2.069211 -3.430533,-2.06921 -5.336385,-5.60865 -1.905852,-3.539439 -1.905852,-7.841219 0,-4.465138 1.905852,-7.895671 1.960305,-3.484987 5.281933,-5.499744 3.37608,-2.014758 7.514501,-2.014758 3.484986,0 6.098726,1.143511 2.668193,1.143511 4.519591,3.158269 1.8514,2.014758 2.831548,4.628497 0.980158,2.559287 0.980158,5.554197 0,0.762341 -0.10891,1.579134 -0.0545,0.816794 -0.27226,1.415776 H 72.528018 v -5.445291 h 18.840706 l -3.37608,2.559287 q 0.490076,-2.504834 -0.272264,-4.465139 -0.707888,-1.960305 -2.395929,-3.103816 -1.633587,-1.143511 -3.975062,-1.143511 -2.232569,0 -3.975062,1.143511 -1.742493,1.089059 -2.668193,3.267175 -0.871246,2.123663 -0.653435,5.173026 -0.217811,2.722646 0.707888,4.846309 0.980152,2.069211 2.831551,3.212722 1.905852,1.143511 4.356233,1.143511 2.450381,0 4.138421,-1.034605 1.742493,-1.034605 2.722646,-2.777099 l 5.772006,2.831552 q -0.871248,2.123663 -2.722643,3.75725 -1.851399,1.633588 -4.410686,2.559287 -2.504834,0.9257 -5.554197,0.9257 z"
           id="text24"
           style="font-weight:bold;font-size:80px;font-family:'Plus Jakarta Sans';-inkscape-font-specification:'Plus Jakarta Sans Bold';text-align:center;letter-spacing:0px;text-anchor:middle;white-space:pre;display:inline;fill:#ffffff;stroke-width:3.85887;stroke-linejoin:round;paint-order:markers stroke fill"
           aria-label="e" />
        <path
           d="M 32.249822,75.115724 V 41.082655 H 21.74041 v -6.534349 h 28.315513 v 6.534349 H 39.70987 v 34.033069 z"
           id="text25"
           style="font-weight:bold;font-size:80px;font-family:'Plus Jakarta Sans';-inkscape-font-specification:'Plus Jakarta Sans Bold';text-align:center;letter-spacing:0px;text-anchor:middle;white-space:pre;display:inline;fill:#ffffff;stroke-width:3.85887;stroke-linejoin:round;paint-order:markers stroke fill"
           aria-label="T" />
      </g>
    </g>
    <rect
       style="display:none;fill:#f2f2f2;fill-opacity:1;stroke:none;stroke-width:2.16324;stroke-linejoin:round;stroke-dasharray:none;stroke-dashoffset:0;stroke-opacity:1"
       id="rect2"
       width="117.23112"
       height="20.129026"
       x="73.676109"
       y="83.896233"
       ry="0"
       rx="10"
       inkscape:label="search-box" />
    <path
       id="rect2-5"
       style="display:inline;fill:#f2f2f2;stroke-width:2.16324;stroke-linejoin:round"
       inkscape:label="search-box-rounded"
       d="m 83.676109,83.896226 h 97.231121 c 5.54,0 10,4.46 10,10 v 0.129026 c 0,5.54 -4.46,10.000018 -10,10.000018 H 83.676109 c -5.54,0 -10,-4.460018 -10,-10.000018 v -0.129026 c 0,-5.54 4.46,-10 10,-10 z" />
    <rect
       style="display:none;fill:#f47d21;fill-opacity:1;stroke:none;stroke-width:4;stroke-opacity:1;paint-order:fill markers stroke"
       id="rect3"
       width="12.170834"
       height="3.7041667"
       x="190.90712"
       y="-63.819462"
       rx="2"
       transform="rotate(45.426511)"
       inkscape:label="handle" />
    <path
       id="rect10"
       style="display:inline;fill:#f47d21;stroke-width:4;paint-order:fill markers stroke"
       inkscape:label="handle-rounded"
       transform="rotate(45.426511)"
       d="m 192.90712,-63.819462 h 8.17083 c 1.108,0 2,0.826029 2,1.852084 0,1.026054 -0.892,1.852083 -2,1.852083 h -8.17083 c -1.108,0 -2,-0.826029 -2,-1.852083 0,-1.026055 0.892,-1.852084 2,-1.852084 z" />
    <ellipse
       style="fill:#fac59e;fill-opacity:1;stroke:none;stroke-width:4;stroke-opacity:1;paint-order:fill markers stroke"
       id="path3"
       cx="178.95699"
       cy="92.868782"
       rx="6.3499999"
       ry="6.614583"
       inkscape:label="lens" />
    <text
       xml:space="preserve"
       style="font-weight:bold;font-size:6.78122px;font-family:'Plus Jakarta Sans';-inkscape-font-specification:'Plus Jakarta Sans Bold';text-align:center;letter-spacing:0px;text-anchor:middle;fill:#515151;fill-opacity:1;stroke:none;stroke-width:2.74605;stroke-opacity:1;paint-order:fill markers stroke"
       x="193.38298"
       y="23.849667"
       id="text4"
       inkscape:label="menu-text"><tspan
         sodipodi:role="line"
         id="tspan4"
         style="font-style:normal;font-variant:normal;font-weight:bold;font-stretch:normal;font-family:'Plus Jakarta Sans';-inkscape-font-specification:'Plus Jakarta Sans Bold';fill:#515151;fill-opacity:1;stroke-width:2.74605"
         x="193.38298"
         y="23.849667">About       Events      Materials     Log in</tspan></text>
    <rect
       style="fill:#808080;fill-opacity:1;stroke:none;stroke-width:8.59947;stroke-dasharray:none;stroke-opacity:1;paint-order:fill markers stroke"
       id="rect4"
       width="264.58334"
       height="13.229167"
       x="0.26351625"
       y="-0.26458332"
       inkscape:label="title" />
    <rect
       style="display:none;fill:#9f9f9f;fill-opacity:1;stroke:none;stroke-width:6.6844;stroke-dasharray:none;stroke-opacity:1;paint-order:fill markers stroke"
       id="rect20"
       width="210.34377"
       height="10.054167"
       x="44.448933"
       y="1.5874999"
       inkscape:label="brower-bar"
       rx="5.3499327" />
    <path
       id="rect21"
       style="display:inline;fill:#9f9f9f;stroke-width:6.6844;paint-order:fill markers stroke"
       inkscape:label="brower-bar-rounded"
       d="M 49.798865,1.5874999 H 249.44277 c 2.96386,0 5.34993,2.2420792 5.34993,5.0270834 0,2.7850042 -2.38607,5.0270837 -5.34993,5.0270837 H 49.798865 c -2.963862,0 -5.349932,-2.2420795 -5.349932,-5.0270837 0,-2.7850042 2.38607,-5.0270834 5.349932,-5.0270834 z" />
    <rect
       style="display:inline;fill:#c1c1c1;stroke:none;stroke-width:3.88642;paint-order:fill markers stroke"
       id="rect5"
       width="6.6145835"
       height="114.03542"
       x="254.26457"
       y="12.964582"
       inkscape:label="scroll-field" />
    <rect
       style="display:none;fill:#c1c1c1;stroke:#808080;stroke-width:4;paint-order:fill markers stroke"
       id="rect1"
       width="0.26458332"
       height="77.787498"
       x="257.43961"
       y="16.139584"
       rx="10"
       inkscape:label="scroll-bar" />
    <path
       id="rect6"
       style="fill:#c1c1c1;stroke:#808080;stroke-width:4;paint-order:fill markers stroke"
       inkscape:label="scroll-bar-rounded"
       d="m 257.5719,16.139584 c 0.0733,0 0.13229,4.46 0.13229,10 v 57.787498 c 0,5.54 -0.059,10 -0.13229,10 -0.0733,0 -0.13229,-4.46 -0.13229,-10 V 26.139584 c 0,-5.54 0.059,-10 0.13229,-10 z" />
    <rect
       style="fill:#f47d21;fill-opacity:1;stroke:none;stroke-width:3.69104;paint-order:fill markers stroke"
       id="rect7"
       width="68.262497"
       height="21.695833"
       x="-0.26458338"
       y="100.80625"
       inkscape:label="general-box" />
    <rect
       style="fill:#f47d21;fill-opacity:1;stroke:none;stroke-width:3.69104;paint-order:fill markers stroke"
       id="rect8"
       width="68.262497"
       height="21.695833"
       x="196.85001"
       y="35.983337"
       inkscape:label="browse-box" />
    <path
       style="fill:#f47d21;fill-opacity:1;stroke-width:0.199544"
       d="m 44.824848,110.07849 c 0.159105,0.11285 0.142985,-0.037 0.202846,-0.22473 0.12679,-0.39717 0.124639,-0.84285 0.150469,-1.24628 -0.0077,0.16398 0.06333,-0.44307 0.05783,-0.41032 0.04286,-0.25115 0.09751,-0.5015 0.157557,-0.75107 0.139241,-0.57888 0.319768,-1.14999 0.537711,-1.71531 0.436573,-1.13266 1.009112,-2.23425 1.703401,-3.28236 1.415231,-2.13717 3.347059,-4.041857 5.661407,-5.528108 4.269768,-2.741932 9.670268,-3.976471 14.765815,-3.498679 l -0.471455,1.901786 9.755247,-3.002282 -7.67368,-5.395744 -0.563788,2.274282 c -4.477705,-0.609403 -9.252401,0.13153 -13.364417,2.099693 -4.139571,1.98134 -7.410766,5.209273 -9.232461,8.900742 -1.15022,2.3307 -1.615233,4.76276 -1.789902,7.22321 -0.03927,0.55302 -0.04544,1.11575 -0.0212,1.66612 0.0038,0.087 -0.01744,0.88834 0.12462,0.98906 z"
       id="path1"
       inkscape:label="general-arrow" />
    <path
       style="fill:#f47d21;fill-opacity:1;stroke-width:0.192839"
       d="m 202.98392,46.939458 c 0.0468,-0.212812 -0.0724,-0.109695 -0.2455,-0.05404 -0.36596,0.117545 -0.73431,0.382227 -1.07587,0.596287 0.138,-0.08962 -0.38538,0.202942 -0.35666,0.188699 -0.22047,0.108639 -0.44374,0.205963 -0.66796,0.297862 -0.52006,0.213207 -1.04577,0.383864 -1.57765,0.516715 -1.06565,0.266256 -2.1454,0.389179 -3.21655,0.368634 -2.18404,-0.04146 -4.32696,-0.694951 -6.23554,-1.946802 -3.52112,-2.309597 -6.12559,-6.547414 -7.22307,-11.514196 l 1.71262,-0.687555 -5.34397,-7.199797 -2.21863,10.236231 2.04806,-0.822231 c 0.80748,4.476282 2.81994,8.429667 5.65423,11.050324 2.85327,2.638232 6.48415,3.743205 10.07408,3.242184 2.26659,-0.316289 4.41633,-1.322346 6.5045,-2.612091 0.46936,-0.289877 0.93704,-0.615917 1.38558,-0.962626 0.071,-0.05473 0.74057,-0.507616 0.78233,-0.697586 z"
       id="path10"
       inkscape:label="browse-event-arrow" />
    <path
       style="fill:#f47d21;fill-opacity:1;stroke-width:0.17004"
       d="m 205.7666,53.453194 c 0.12038,-0.116951 -0.0135,-0.119777 -0.1705,-0.188129 -0.33218,-0.144759 -0.72419,-0.190202 -1.07531,-0.253827 0.14309,0.02356 -0.38099,-0.09822 -0.35294,-0.09029 -0.21503,-0.0613 -0.42778,-0.132081 -0.63913,-0.207151 -0.49024,-0.17408 -0.96814,-0.380793 -1.43598,-0.617201 -0.93735,-0.473588 -1.82928,-1.054041 -2.65798,-1.72747 -1.68987,-1.372791 -3.10659,-3.1395 -4.10459,-5.171812 -1.84116,-3.749432 -2.20685,-8.255376 -1.10819,-12.333004 l 1.60869,0.583263 -1.33932,-8.221103 -5.76449,5.645742 1.92378,0.697497 c -1.13204,3.563146 -1.11682,7.509845 0.0653,11.049565 1.19001,3.563444 3.59134,6.555323 6.59314,8.421936 1.89525,1.17857 3.97087,1.812749 6.1101,2.214708 0.48082,0.09036 0.97459,0.154918 1.46154,0.193539 0.0769,0.0061 0.77845,0.108163 0.88589,0.0038 z"
       id="path11"
       inkscape:label="browse-materials-arrow" />
  </g>
  <g
     inkscape:groupmode="layer"
     id="layer2"
     inkscape:label="Text-raw"
     style="display:none">
    <text
       xml:space="preserve"
       style="font-weight:bold;font-size:12.1574px;font-family:'Plus Jakarta Sans';-inkscape-font-specification:'Plus Jakarta Sans Bold';text-align:center;letter-spacing:0px;text-anchor:middle;fill:#000000;fill-opacity:1;stroke:none;stroke-width:4.92312;stroke-opacity:1;paint-order:fill markers stroke"
       x="130.56807"
       y="60.72776"
       id="text2"
       inkscape:label="title-text"><tspan
         sodipodi:role="line"
         id="tspan2"
         style="font-size:12.1574px;fill:#000000;fill-opacity:1;stroke-width:4.92312"
         x="130.56807"
         y="60.72776">TeSS Portal</tspan></text>
    <text
       xml:space="preserve"
       style="font-weight:bold;font-size:6.78122px;font-family:'Plus Jakarta Sans';-inkscape-font-specification:'Plus Jakarta Sans Bold';text-align:center;letter-spacing:0px;text-anchor:middle;fill:#515151;fill-opacity:1;stroke:none;stroke-width:2.74605;stroke-opacity:1;paint-order:fill markers stroke"
       x="103.78891"
       y="96.345528"
       id="text3"
       inkscape:label="search-text"><tspan
         sodipodi:role="line"
         id="tspan3"
         style="font-style:normal;font-variant:normal;font-weight:normal;font-stretch:normal;font-family:'Plus Jakarta Sans';-inkscape-font-specification:'Plus Jakarta Sans';fill:#515151;fill-opacity:1;stroke-width:2.74605"
         x="103.78891"
         y="96.345528">Search TeSS...</tspan></text>
    <text
       xml:space="preserve"
       style="font-style:normal;font-variant:normal;font-weight:bold;font-stretch:normal;font-size:9.87777px;font-family:'Plus Jakarta Sans';-inkscape-font-specification:'Plus Jakarta Sans Bold';text-align:start;letter-spacing:0px;text-anchor:start;fill:#ffffff;fill-opacity:1;stroke:none;stroke-width:4;stroke-dasharray:none;stroke-opacity:1;paint-order:fill markers stroke"
       x="8.1526842"
       y="114.03545"
       id="text6"
       inkscape:label="general-text"><tspan
         sodipodi:role="line"
         style="text-align:start;text-anchor:start;fill:#ffffff;fill-opacity:1;stroke-width:4"
         x="8.1526842"
         y="114.03545"
         id="tspan8"><tspan
           id="tspan13"
           style="font-style:normal;font-variant:normal;font-weight:normal;font-stretch:normal;font-size:7.05556px;font-family:'Plus Jakarta Sans';-inkscape-font-specification:'Plus Jakarta Sans';text-align:start;text-anchor:start;fill:#ffffff;fill-opacity:1;stroke-width:4">General search </tspan></tspan></text>
    <text
       xml:space="preserve"
       style="font-style:normal;font-variant:normal;font-weight:bold;font-stretch:normal;font-size:9.87777px;font-family:'Plus Jakarta Sans';-inkscape-font-specification:'Plus Jakarta Sans Bold';text-align:center;letter-spacing:0px;text-anchor:middle;fill:#ffffff;fill-opacity:1;stroke:none;stroke-width:4;stroke-dasharray:none;stroke-opacity:1;paint-order:fill markers stroke"
       x="231.2459"
       y="49.212498"
       id="text11"
       inkscape:label="browse-text"><tspan
         sodipodi:role="line"
         style="font-style:normal;font-variant:normal;font-weight:normal;font-stretch:normal;font-size:7.05556px;font-family:'Plus Jakarta Sans';-inkscape-font-specification:'Plus Jakarta Sans';fill:#ffffff;fill-opacity:1;stroke-width:4"
         x="231.2459"
         y="49.212498"
         id="tspan10">Browse</tspan><tspan
         sodipodi:role="line"
         style="fill:#ffffff;fill-opacity:1;stroke-width:4"
         x="231.2459"
         y="61.559711"
         id="tspan11" /></text>
    <text
       xml:space="preserve"
       style="font-weight:bold;font-size:12.1574px;font-family:'Plus Jakarta Sans';-inkscape-font-specification:'Plus Jakarta Sans Bold';text-align:start;letter-spacing:0px;text-anchor:start;display:inline;fill:#5f5f5f;fill-opacity:1;stroke:none;stroke-width:4.92312;stroke-opacity:1;paint-order:fill markers stroke"
       x="4.757937"
       y="9.6631622"
       id="text2-9"
       inkscape:label="browser-text"><tspan
         sodipodi:role="line"
         id="tspan2-4"
         style="font-size:12.1574px;text-align:start;text-anchor:start;fill:#5f5f5f;fill-opacity:1;stroke-width:4.92312"
         x="4.757937"
         y="9.6631622">← →  ↻   <tspan
   style="font-style:normal;font-variant:normal;font-weight:normal;font-stretch:normal;font-size:8.46667px;font-family:'Plus Jakarta Sans';-inkscape-font-specification:'Plus Jakarta Sans';fill:#5f5f5f;fill-opacity:1"
   id="tspan17">tesshub.org                                                                                                      ☆   ⋮</tspan></tspan></text>
  </g>
  <g
     inkscape:groupmode="layer"
     id="layer4"
     inkscape:label="Text-paths">
    <path
       d="m 99.812894,60.72776 v -7.598375 h -2.346378 v -1.458888 h 6.321844 v 1.458888 h -2.3099 v 7.598375 z m 7.136396,0.145889 q -1.02122,0 -1.78714,-0.461981 -0.76591,-0.461981 -1.19142,-1.252212 -0.42551,-0.790231 -0.42551,-1.750666 0,-0.996907 0.42551,-1.762823 0.43766,-0.778074 1.17926,-1.227897 0.75376,-0.449824 1.67773,-0.449824 0.77807,0 1.36162,0.255305 0.59572,0.255306 1.00907,0.705129 0.41335,0.449824 0.63218,1.033379 0.21884,0.571398 0.21884,1.240055 0,0.170204 -0.0243,0.352565 -0.0122,0.182361 -0.0608,0.316092 h -5.1061 v -1.21574 h 4.20646 l -0.75376,0.571398 q 0.10941,-0.55924 -0.0608,-0.996907 -0.15805,-0.437666 -0.53492,-0.692972 -0.36473,-0.255305 -0.88749,-0.255305 -0.49846,0 -0.8875,0.255305 -0.38903,0.243148 -0.59571,0.729444 -0.19452,0.474139 -0.14589,1.154953 -0.0486,0.60787 0.15805,1.082009 0.21883,0.461981 0.63218,0.717287 0.42551,0.255305 0.9726,0.255305 0.54708,0 0.92396,-0.230991 0.38904,-0.23099 0.60787,-0.620027 l 1.28868,0.632185 q -0.19452,0.474139 -0.60787,0.838861 -0.41335,0.364722 -0.98475,0.571397 -0.55924,0.206676 -1.24005,0.206676 z m 7.67131,0 q -0.86317,0 -1.60477,-0.316092 -0.72945,-0.316093 -1.26437,-0.875333 -0.52277,-0.571398 -0.76592,-1.325157 l 1.37379,-0.595712 q 0.32825,0.778073 0.94827,1.227897 0.62003,0.437667 1.3981,0.437667 0.43767,0 0.75376,-0.133732 0.32825,-0.145889 0.49846,-0.389037 0.18236,-0.243148 0.18236,-0.583555 0,-0.401194 -0.24315,-0.6565 -0.23099,-0.267462 -0.70513,-0.413351 l -1.73851,-0.559241 q -1.05769,-0.328249 -1.59262,-0.984749 -0.53492,-0.6565 -0.53492,-1.54399 0,-0.778073 0.37688,-1.373786 0.38903,-0.595713 1.06985,-0.923962 0.69297,-0.340408 1.58046,-0.340408 0.81455,0 1.49536,0.291778 0.68081,0.27962 1.16711,0.790231 0.49845,0.498453 0.7416,1.179268 l -1.36163,0.60787 q -0.26746,-0.680815 -0.80238,-1.045537 -0.53493,-0.376879 -1.24006,-0.376879 -0.41335,0 -0.72944,0.145889 -0.3161,0.133731 -0.49846,0.389037 -0.1702,0.243148 -0.1702,0.583555 0,0.376879 0.24315,0.668657 0.24315,0.27962 0.7416,0.437666 l 1.66556,0.522768 q 1.08201,0.352565 1.61694,0.972592 0.54708,0.620028 0.54708,1.531833 0,0.778073 -0.40119,1.373786 -0.4012,0.595713 -1.10633,0.93612 -0.70513,0.340407 -1.64125,0.340407 z m 7.86583,0 q -0.86317,0 -1.60477,-0.316092 -0.72945,-0.316093 -1.26437,-0.875333 -0.52277,-0.571398 -0.76592,-1.325157 l 1.37379,-0.595712 q 0.32825,0.778073 0.94827,1.227897 0.62003,0.437667 1.3981,0.437667 0.43767,0 0.75376,-0.133732 0.32825,-0.145889 0.49846,-0.389037 0.18236,-0.243148 0.18236,-0.583555 0,-0.401194 -0.24315,-0.6565 -0.23099,-0.267462 -0.70513,-0.413351 l -1.73851,-0.559241 q -1.05769,-0.328249 -1.59262,-0.984749 -0.53492,-0.6565 -0.53492,-1.54399 0,-0.778073 0.37688,-1.373786 0.38903,-0.595713 1.06985,-0.923962 0.69297,-0.340408 1.58046,-0.340408 0.81455,0 1.49536,0.291778 0.68081,0.27962 1.16711,0.790231 0.49845,0.498453 0.7416,1.179268 l -1.36163,0.60787 q -0.26746,-0.680815 -0.80239,-1.045537 -0.53492,-0.376879 -1.24005,-0.376879 -0.41335,0 -0.72944,0.145889 -0.3161,0.133731 -0.49846,0.389037 -0.1702,0.243148 -0.1702,0.583555 0,0.376879 0.24315,0.668657 0.24314,0.27962 0.7416,0.437666 l 1.66556,0.522768 q 1.08201,0.352565 1.61694,0.972592 0.54708,0.620028 0.54708,1.531833 0,0.778073 -0.4012,1.373786 -0.40119,0.595713 -1.10632,0.93612 -0.70513,0.340407 -1.64125,0.340407 z m 6.79597,-0.145889 v -9.057263 h 3.37976 q 0.92396,0 1.62909,0.340407 0.71729,0.32825 1.11848,0.972592 0.4012,0.632185 0.4012,1.54399 0,0.899648 -0.41335,1.54399 -0.4012,0.632185 -1.10633,0.972592 -0.70513,0.340407 -1.62909,0.340407 h -1.72635 v 3.343285 z m 1.65341,-4.802173 h 1.75067 q 0.44982,0 0.77807,-0.170203 0.32825,-0.182361 0.51061,-0.498454 0.18236,-0.316092 0.18236,-0.729444 0,-0.425509 -0.18236,-0.729444 -0.18236,-0.316092 -0.51061,-0.486296 -0.32825,-0.182361 -0.77807,-0.182361 h -1.75067 z m 9.08158,4.948062 q -0.97259,0 -1.77498,-0.449824 -0.79023,-0.449823 -1.26437,-1.227897 -0.46198,-0.778074 -0.46198,-1.774981 0,-0.996906 0.46198,-1.77498 0.47414,-0.778074 1.26437,-1.227897 0.79023,-0.449824 1.77498,-0.449824 0.97259,0 1.76282,0.449824 0.79024,0.449823 1.25222,1.227897 0.47413,0.765916 0.47413,1.77498 0,0.996907 -0.47413,1.774981 -0.47414,0.778074 -1.26437,1.227897 -0.79023,0.449824 -1.75067,0.449824 z m 0,-1.458888 q 0.53493,0 0.93612,-0.255305 0.41335,-0.255306 0.64434,-0.70513 0.24315,-0.461981 0.24315,-1.033379 0,-0.583555 -0.24315,-1.021221 -0.23099,-0.449824 -0.64434,-0.705129 -0.40119,-0.267463 -0.93612,-0.267463 -0.54708,0 -0.96043,0.267463 -0.41336,0.255305 -0.6565,0.705129 -0.23099,0.437666 -0.23099,1.021221 0,0.571398 0.23099,1.033379 0.24314,0.449824 0.6565,0.70513 0.41335,0.255305 0.96043,0.255305 z m 4.69276,1.312999 v -6.613625 h 1.49536 v 1.471045 l -0.12157,-0.218833 q 0.23099,-0.741602 0.71729,-1.033379 0.49845,-0.291778 1.19142,-0.291778 h 0.38904 v 1.410259 h -0.5714 q -0.68081,0 -1.09416,0.425509 -0.41336,0.413351 -0.41336,1.16711 v 3.683692 z m 7.74427,0.07294 q -1.11848,0 -1.73851,-0.60787 -0.60787,-0.620028 -0.60787,-1.738509 V 55.53655 h -1.1428 v -1.422415 h 0.12158 q 0.48629,0 0.75376,-0.255306 0.26746,-0.255305 0.26746,-0.741601 v -0.510611 h 1.59262 v 1.507518 h 1.51967 v 1.422415 h -1.51967 v 2.832675 q 0,0.328249 0.10942,0.55924 0.12157,0.230991 0.36472,0.352565 0.2553,0.121574 0.64434,0.121574 0.0851,0 0.19452,-0.01216 0.12157,-0.01216 0.23099,-0.02431 v 1.361628 q -0.1702,0.02431 -0.38904,0.04863 -0.21883,0.02432 -0.40119,0.02432 z m 3.98154,0.07294 q -0.69297,0 -1.20358,-0.23099 -0.51061,-0.230991 -0.79023,-0.6565 -0.27962,-0.437666 -0.27962,-1.009064 0,-0.547083 0.24315,-0.972592 0.24314,-0.437667 0.75376,-0.729444 0.51061,-0.291778 1.28868,-0.413352 l 2.16402,-0.352565 v 1.21574 l -1.86008,0.316093 q -0.47414,0.0851 -0.70513,0.303935 -0.23099,0.218833 -0.23099,0.571398 0,0.340407 0.2553,0.547083 0.26746,0.194518 0.6565,0.194518 0.49845,0 0.87533,-0.206676 0.38904,-0.218833 0.59572,-0.595712 0.21883,-0.37688 0.21883,-0.826704 v -1.702036 q 0,-0.425509 -0.34041,-0.705129 -0.32825,-0.291777 -0.87533,-0.291777 -0.51061,0 -0.91181,0.27962 -0.38903,0.267463 -0.57139,0.717286 l -1.30085,-0.632184 q 0.19452,-0.522769 0.60787,-0.899648 0.42551,-0.389037 0.99691,-0.60787 0.5714,-0.218833 1.24006,-0.218833 0.81454,0 1.43457,0.303935 0.62003,0.291777 0.96043,0.826703 0.35257,0.522768 0.35257,1.227897 v 4.400979 h -1.50752 v -1.130638 l 0.34041,-0.02432 q -0.25531,0.425509 -0.60787,0.717287 -0.35257,0.27962 -0.80239,0.437666 -0.44982,0.145889 -0.99691,0.145889 z m 5.04532,-0.145889 v -9.203152 h 1.59262 v 9.203152 z"
       id="text7"
       style="font-weight:bold;font-size:12.1574px;font-family:'Plus Jakarta Sans';-inkscape-font-specification:'Plus Jakarta Sans Bold';text-align:center;letter-spacing:0px;text-anchor:middle;stroke-width:4.92312;paint-order:fill markers stroke"
       inkscape:label="title-text"
       aria-label="TeSS Portal" />
    <path
       style="font-size:6.78122px;font-family:'Plus Jakarta Sans';-inkscape-font-specification:'Plus Jakarta Sans';text-align:center;letter-spacing:0px;text-anchor:middle;fill:#515151;stroke-width:2.74605;paint-order:fill markers stroke"
       d="m 83.333371,96.426892 q -0.481466,0 -0.874777,-0.183093 -0.393311,-0.183093 -0.66456,-0.488248 -0.271248,-0.311936 -0.386529,-0.684903 l 0.488248,-0.183093 q 0.176311,0.515373 0.549279,0.786622 0.372967,0.264467 0.888339,0.264467 0.325499,0 0.569623,-0.101718 0.250905,-0.1085 0.386529,-0.298374 0.135625,-0.189874 0.135625,-0.440779 0,-0.372967 -0.203437,-0.576404 -0.203436,-0.203436 -0.583185,-0.311936 l -0.908683,-0.271249 q -0.535717,-0.155968 -0.827309,-0.522154 -0.284811,-0.366186 -0.284811,-0.83409 0,-0.400092 0.196655,-0.705247 0.196655,-0.311936 0.535716,-0.488247 0.345843,-0.176312 0.779841,-0.176312 0.454341,0 0.813746,0.16953 0.366186,0.16275 0.617091,0.433998 0.250905,0.271249 0.359405,0.603529 l -0.474686,0.189874 q -0.162749,-0.44756 -0.508591,-0.678122 -0.339061,-0.230561 -0.800184,-0.230561 -0.291592,0 -0.515373,0.101718 -0.216999,0.101718 -0.339061,0.291592 -0.122062,0.189875 -0.122062,0.447561 0,0.311936 0.196656,0.562841 0.196655,0.244124 0.603528,0.366186 l 0.800184,0.237343 q 0.596748,0.176311 0.901902,0.508591 0.305155,0.33228 0.305155,0.83409 0,0.406873 -0.210217,0.71881 -0.203437,0.305155 -0.576404,0.481466 -0.366186,0.176312 -0.847653,0.176312 z m 4.258606,0 q -0.508591,0 -0.922246,-0.244124 -0.406873,-0.250905 -0.644216,-0.684903 -0.237342,-0.433998 -0.237342,-0.983277 0,-0.549279 0.230561,-0.969715 0.230562,-0.427216 0.623872,-0.67134 0.400092,-0.244124 0.895121,-0.244124 0.393311,0 0.698466,0.149187 0.311936,0.142405 0.528935,0.39331 0.216999,0.244124 0.33228,0.55606 0.115281,0.305155 0.115281,0.630654 0,0.06781 -0.0068,0.155968 -0.0068,0.08138 -0.02034,0.16953 h -3.071878 v -0.474685 h 2.7803 l -0.244124,0.203437 q 0.06103,-0.372967 -0.08816,-0.66456 -0.142406,-0.298374 -0.413655,-0.467904 -0.271249,-0.176312 -0.61031,-0.176312 -0.339061,0 -0.630653,0.176312 -0.284811,0.176312 -0.447561,0.495029 -0.162749,0.311936 -0.128843,0.745934 -0.03391,0.433998 0.135625,0.759497 0.176311,0.318717 0.474685,0.495029 0.305155,0.176312 0.650997,0.176312 0.400092,0 0.671341,-0.189875 0.271249,-0.189874 0.440779,-0.474685 l 0.433998,0.230561 q -0.108499,0.244124 -0.33228,0.454342 -0.22378,0.203437 -0.535716,0.33228 -0.305155,0.122062 -0.678122,0.122062 z m 3.499107,0 q -0.345842,0 -0.617091,-0.128843 -0.271249,-0.135625 -0.427217,-0.366186 -0.155968,-0.230562 -0.155968,-0.528935 0,-0.284812 0.122062,-0.515373 0.122062,-0.237343 0.379748,-0.400092 0.257687,-0.162749 0.657779,-0.230561 l 1.424056,-0.237343 v 0.461123 l -1.301994,0.216999 q -0.393311,0.06781 -0.569623,0.250905 -0.16953,0.183093 -0.16953,0.433998 0,0.244124 0.189874,0.413654 0.196655,0.169531 0.50181,0.169531 0.372967,0 0.650997,-0.155968 0.27803,-0.162749 0.433998,-0.433998 0.155968,-0.271249 0.155968,-0.603529 v -0.922246 q 0,-0.325498 -0.237342,-0.528935 -0.237343,-0.203436 -0.617091,-0.203436 -0.33228,0 -0.583185,0.16953 -0.250906,0.162749 -0.372968,0.427217 l -0.461122,-0.250905 q 0.101718,-0.230562 0.318717,-0.420436 0.22378,-0.189874 0.508591,-0.298373 0.284812,-0.115281 0.589967,-0.115281 0.400091,0 0.705246,0.155968 0.311937,0.155968 0.481467,0.433998 0.176312,0.271249 0.176312,0.630653 v 2.495489 h -0.508592 v -0.72559 l 0.07459,0.07459 q -0.09494,0.203437 -0.298374,0.372967 -0.196655,0.16275 -0.467904,0.264468 -0.264468,0.09494 -0.583185,0.09494 z m 2.827771,-0.08138 v -3.634729 h 0.508592 v 0.596748 l -0.06781,-0.08816 q 0.128843,-0.257686 0.386529,-0.406873 0.264468,-0.149187 0.637435,-0.149187 h 0.230561 v 0.508591 h -0.318717 q -0.393311,0 -0.630654,0.244124 -0.237342,0.244124 -0.237342,0.691685 v 2.237802 z m 3.953448,0.08138 q -0.535717,0 -0.94259,-0.250905 -0.406873,-0.250905 -0.637435,-0.678122 -0.230561,-0.433998 -0.230561,-0.976496 0,-0.542497 0.230561,-0.969714 0.230562,-0.427217 0.637435,-0.671341 0.406873,-0.250905 0.94259,-0.250905 0.339061,0 0.637434,0.122062 0.298374,0.122062 0.528935,0.33228 0.230562,0.203436 0.345843,0.474685 l -0.461123,0.237343 Q 98.787767,93.504186 98.509737,93.321093 98.231707,93.138 97.872303,93.138 q -0.359405,0 -0.650998,0.183093 -0.284811,0.176312 -0.454341,0.495029 -0.16275,0.311936 -0.16275,0.712028 0,0.393311 0.16275,0.712028 0.16953,0.311937 0.454341,0.49503 0.291593,0.183092 0.650998,0.183092 0.359404,0 0.630653,-0.183092 0.27803,-0.183093 0.420436,-0.488248 l 0.461123,0.250905 q -0.115281,0.264467 -0.345843,0.474685 -0.230561,0.210218 -0.528935,0.33228 -0.298373,0.122062 -0.637434,0.122062 z m 2.407337,-0.08138 v -5.133383 h 0.50859 v 2.203896 l -0.11528,-0.02712 q 0.13562,-0.352623 0.44078,-0.55606 0.31193,-0.203436 0.71881,-0.203436 0.38653,0 0.69168,0.176311 0.31194,0.176312 0.48825,0.488248 0.18309,0.305155 0.18309,0.691685 v 2.359864 h -0.50859 v -2.163209 q 0,-0.33228 -0.12206,-0.562841 -0.12206,-0.230562 -0.33906,-0.352624 -0.21022,-0.128843 -0.48147,-0.128843 -0.27125,0 -0.48825,0.128843 -0.217,0.122062 -0.34584,0.359405 -0.12206,0.230562 -0.12206,0.55606 v 2.163209 z m 5.98782,0 v -4.543417 h -1.39694 v -0.508592 h 3.3228 v 0.508592 h -1.38337 v 4.543417 z m 3.70254,0.08138 q -0.50859,0 -0.92225,-0.244124 -0.40687,-0.250905 -0.64421,-0.684903 -0.23735,-0.433998 -0.23735,-0.983277 0,-0.549279 0.23056,-0.969715 0.23057,-0.427216 0.62388,-0.67134 0.40009,-0.244124 0.89512,-0.244124 0.39331,0 0.69846,0.149187 0.31194,0.142405 0.52894,0.39331 0.217,0.244124 0.33228,0.55606 0.11528,0.305155 0.11528,0.630654 0,0.06781 -0.007,0.155968 -0.007,0.08138 -0.0203,0.16953 h -3.07189 v -0.474685 h 2.7803 l -0.24412,0.203437 q 0.061,-0.372967 -0.0882,-0.66456 -0.1424,-0.298374 -0.41365,-0.467904 -0.27125,-0.176312 -0.61031,-0.176312 -0.33906,0 -0.63066,0.176312 -0.28481,0.176312 -0.44756,0.495029 -0.16275,0.311936 -0.12884,0.745934 -0.0339,0.433998 0.13562,0.759497 0.17632,0.318717 0.47469,0.495029 0.30516,0.176312 0.651,0.176312 0.40009,0 0.67134,-0.189875 0.27125,-0.189874 0.44078,-0.474685 l 0.434,0.230561 q -0.1085,0.244124 -0.33228,0.454342 -0.22378,0.203437 -0.53572,0.33228 -0.30516,0.122062 -0.67812,0.122062 z m 4.29251,0 q -0.48147,0 -0.87478,-0.183093 -0.39331,-0.183093 -0.66456,-0.488248 -0.27125,-0.311936 -0.38653,-0.684903 l 0.48825,-0.183093 q 0.17631,0.515373 0.54928,0.786622 0.37297,0.264467 0.88834,0.264467 0.3255,0 0.56962,-0.101718 0.25091,-0.1085 0.38653,-0.298374 0.13563,-0.189874 0.13563,-0.440779 0,-0.372967 -0.20344,-0.576404 -0.20344,-0.203436 -0.58319,-0.311936 l -0.90868,-0.271249 q -0.53572,-0.155968 -0.82731,-0.522154 -0.28481,-0.366186 -0.28481,-0.83409 0,-0.400092 0.19666,-0.705247 0.19665,-0.311936 0.53571,-0.488247 0.34584,-0.176312 0.77984,-0.176312 0.45434,0 0.81375,0.16953 0.36619,0.16275 0.61709,0.433998 0.25091,0.271249 0.3594,0.603529 l -0.47468,0.189874 q -0.16275,-0.44756 -0.50859,-0.678122 -0.33906,-0.230561 -0.80019,-0.230561 -0.29159,0 -0.51537,0.101718 -0.217,0.101718 -0.33906,0.291592 -0.12206,0.189875 -0.12206,0.447561 0,0.311936 0.19665,0.562841 0.19666,0.244124 0.60353,0.366186 l 0.80019,0.237343 q 0.59674,0.176311 0.9019,0.508591 0.30515,0.33228 0.30515,0.83409 0,0.406873 -0.21021,0.71881 -0.20344,0.305155 -0.57641,0.481466 -0.36618,0.176312 -0.84765,0.176312 z m 4.38067,0 q -0.48147,0 -0.87478,-0.183093 -0.39331,-0.183093 -0.66456,-0.488248 -0.27125,-0.311936 -0.38653,-0.684903 l 0.48825,-0.183093 q 0.17631,0.515373 0.54928,0.786622 0.37297,0.264467 0.88834,0.264467 0.3255,0 0.56962,-0.101718 0.25091,-0.1085 0.38653,-0.298374 0.13562,-0.189874 0.13562,-0.440779 0,-0.372967 -0.20343,-0.576404 -0.20344,-0.203436 -0.58319,-0.311936 l -0.90868,-0.271249 q -0.53572,-0.155968 -0.82731,-0.522154 -0.28481,-0.366186 -0.28481,-0.83409 0,-0.400092 0.19665,-0.705247 0.19666,-0.311936 0.53572,-0.488247 0.34584,-0.176312 0.77984,-0.176312 0.45434,0 0.81375,0.16953 0.36618,0.16275 0.61709,0.433998 0.2509,0.271249 0.3594,0.603529 l -0.47468,0.189874 q -0.16275,-0.44756 -0.50859,-0.678122 -0.33906,-0.230561 -0.80019,-0.230561 -0.29159,0 -0.51537,0.101718 -0.217,0.101718 -0.33906,0.291592 -0.12206,0.189875 -0.12206,0.447561 0,0.311936 0.19665,0.562841 0.19666,0.244124 0.60353,0.366186 l 0.80019,0.237343 q 0.59674,0.176311 0.9019,0.508591 0.30515,0.33228 0.30515,0.83409 0,0.406873 -0.21022,0.71881 -0.20343,0.305155 -0.5764,0.481466 -0.36619,0.176312 -0.84765,0.176312 z m 2.7803,-0.08138 v -0.745929 h 0.54249 v 0.745934 z m 1.93942,0 v -0.745929 h 0.5425 v 0.745934 z m 1.93942,0 v -0.745929 h 0.5425 v 0.745934 z"
       id="text3-7"
       inkscape:label="search-text"
       aria-label="Search TeSS..." />
    <g
       id="text6-6"
       style="font-weight:bold;font-size:9.87777px;font-family:'Plus Jakarta Sans';-inkscape-font-specification:'Plus Jakarta Sans Bold';text-align:center;letter-spacing:0px;text-anchor:middle;fill:#ffffff;stroke-width:4;paint-order:fill markers stroke;fill-opacity:1"
       inkscape:label="general-text"
       aria-label="General search →"
       transform="translate(-3.4395833,48.683347)">
      <path
         style="font-weight:normal;font-size:7.05556px;-inkscape-font-specification:'Plus Jakarta Sans';fill:#ffffff;fill-opacity:1"
         d="m 14.694597,65.436756 q -0.557389,0 -1.023056,-0.197556 -0.465667,-0.204611 -0.811389,-0.564445 -0.338667,-0.366889 -0.529167,-0.860778 -0.1905,-0.493889 -0.1905,-1.086556 0,-0.592667 0.1905,-1.086557 0.1905,-0.493889 0.529167,-0.860778 0.345722,-0.366889 0.811389,-0.564445 0.465667,-0.204611 1.023056,-0.204611 0.536223,0 0.959557,0.1905 0.430389,0.1905 0.719667,0.493889 0.296333,0.296334 0.423333,0.627945 l -0.508,0.246945 q -0.197556,-0.479778 -0.606778,-0.754945 -0.409223,-0.275167 -0.987779,-0.275167 -0.578555,0 -1.030111,0.275167 -0.451556,0.275167 -0.705556,0.769056 -0.254,0.486833 -0.254,1.143001 0,0.649111 0.254,1.143 0.254,0.49389 0.705556,0.769056 0.451556,0.268112 1.030111,0.268112 0.515056,0 0.924279,-0.225778 0.416278,-0.225778 0.656167,-0.613834 0.239889,-0.395111 0.239889,-0.903112 v -0.289278 l 0.254,0.254 h -2.074335 v -0.493889 h 2.38478 v 0.437445 q 0,0.515056 -0.183445,0.952501 -0.183444,0.430389 -0.508,0.747889 -0.324556,0.3175 -0.762001,0.493889 -0.430389,0.169334 -0.931334,0.169334 z m 5.037664,0 q -0.529167,0 -0.959556,-0.254001 -0.423334,-0.261055 -0.670278,-0.712611 -0.246945,-0.451556 -0.246945,-1.023056 0,-0.571501 0.239889,-1.008945 0.239889,-0.444501 0.649112,-0.698501 0.416278,-0.254 0.931334,-0.254 0.409222,0 0.726722,0.155222 0.324556,0.148167 0.550334,0.409223 0.225778,0.254 0.345723,0.578556 0.119944,0.3175 0.119944,0.656167 0,0.07055 -0.0071,0.162278 -0.0071,0.08467 -0.02117,0.176389 h -3.196169 v -0.49389 h 2.89278 l -0.254,0.211667 q 0.0635,-0.388056 -0.09172,-0.691445 -0.148166,-0.310444 -0.430389,-0.486833 -0.282222,-0.183445 -0.635,-0.183445 -0.352778,0 -0.656167,0.183445 -0.296334,0.183444 -0.465667,0.515056 -0.169334,0.324555 -0.134056,0.776111 -0.03528,0.451556 0.141111,0.790223 0.183445,0.331611 0.493889,0.515056 0.317501,0.183444 0.677334,0.183444 0.416278,0 0.698501,-0.197555 0.282222,-0.197556 0.458611,-0.493889 l 0.451556,0.239889 q -0.112889,0.254 -0.345722,0.472722 -0.232834,0.211667 -0.55739,0.345723 -0.3175,0.127 -0.705556,0.127 z m 2.617612,-0.08467 v -3.78178 h 0.529167 v 0.733778 l -0.119945,-0.02822 q 0.141111,-0.366889 0.458612,-0.578556 0.324555,-0.211667 0.747889,-0.211667 0.402167,0 0.719667,0.183445 0.324556,0.183444 0.508,0.508 0.190501,0.3175 0.190501,0.719667 v 2.455335 h -0.529167 v -2.250724 q 0,-0.345722 -0.127001,-0.585611 -0.119944,-0.239889 -0.345722,-0.366889 -0.218722,-0.134056 -0.508,-0.134056 -0.289278,0 -0.515056,0.134056 -0.225778,0.127 -0.352778,0.373944 -0.127,0.239889 -0.127,0.578556 v 2.250724 z m 5.764392,0.08467 q -0.529167,0 -0.959557,-0.254001 -0.423333,-0.261055 -0.670278,-0.712611 -0.246944,-0.451556 -0.246944,-1.023056 0,-0.571501 0.239889,-1.008945 0.239889,-0.444501 0.649111,-0.698501 0.416278,-0.254 0.931334,-0.254 0.409223,0 0.726723,0.155222 0.324556,0.148167 0.550333,0.409223 0.225778,0.254 0.345723,0.578556 0.119944,0.3175 0.119944,0.656167 0,0.07055 -0.0071,0.162278 -0.0071,0.08467 -0.02117,0.176389 h -3.196169 v -0.49389 h 2.89278 l -0.254,0.211667 q 0.0635,-0.388056 -0.09172,-0.691445 -0.148167,-0.310444 -0.430389,-0.486833 -0.282223,-0.183445 -0.635001,-0.183445 -0.352778,0 -0.656167,0.183445 -0.296334,0.183444 -0.465667,0.515056 -0.169333,0.324555 -0.134056,0.776111 -0.03528,0.451556 0.141112,0.790223 0.183444,0.331611 0.493889,0.515056 0.3175,0.183444 0.677334,0.183444 0.416278,0 0.6985,-0.197555 0.282222,-0.197556 0.458611,-0.493889 l 0.451556,0.239889 q -0.112889,0.254 -0.345722,0.472722 -0.232834,0.211667 -0.557389,0.345723 -0.317501,0.127 -0.705556,0.127 z m 2.617611,-0.08467 v -3.78178 h 0.529167 v 0.620889 l -0.07056,-0.09172 q 0.134056,-0.268112 0.402167,-0.423334 0.275167,-0.155222 0.663222,-0.155222 h 0.239889 v 0.529167 H 32.16415 q -0.409222,0 -0.656167,0.254 -0.246945,0.254 -0.246945,0.719667 v 2.328335 z m 3.478387,0.08467 q -0.359833,0 -0.642056,-0.134056 -0.282222,-0.141111 -0.4445,-0.381 -0.162278,-0.239889 -0.162278,-0.550334 0,-0.296333 0.127,-0.536222 0.127,-0.246945 0.395112,-0.416279 0.268111,-0.169333 0.684389,-0.239889 l 1.481668,-0.246944 v 0.479778 l -1.354668,0.225778 q -0.409222,0.07055 -0.592667,0.261056 -0.176389,0.1905 -0.176389,0.451555 0,0.254001 0.197556,0.43039 0.204611,0.176389 0.522111,0.176389 0.388056,0 0.677334,-0.162278 0.289278,-0.169334 0.451556,-0.451556 0.162278,-0.282223 0.162278,-0.627945 v -0.959556 q 0,-0.338667 -0.246945,-0.550334 -0.246944,-0.211667 -0.642056,-0.211667 -0.345722,0 -0.606778,0.176389 -0.261056,0.169334 -0.388056,0.444501 l -0.479778,-0.261056 q 0.105833,-0.239889 0.331611,-0.437445 0.232834,-0.197556 0.529167,-0.310444 0.296334,-0.119945 0.613834,-0.119945 0.416278,0 0.733778,0.162278 0.324556,0.162278 0.500945,0.451556 0.183445,0.282222 0.183445,0.656167 v 2.596446 h -0.529167 v -0.754945 l 0.07761,0.07761 q -0.09878,0.211667 -0.310445,0.388056 -0.204611,0.169333 -0.486833,0.275167 -0.275167,0.09878 -0.606779,0.09878 z m 2.942172,-0.08467 V 60.01103 h 0.529167 v 5.341059 z m 4.127503,0.08467 q -0.543278,0 -0.952501,-0.275167 -0.409222,-0.275167 -0.592667,-0.74789 l 0.444501,-0.211666 q 0.162277,0.345722 0.451555,0.550333 0.296334,0.204612 0.649112,0.204612 0.338667,0 0.5715,-0.162278 0.232834,-0.169334 0.232834,-0.437445 0,-0.197556 -0.112889,-0.310445 -0.112889,-0.119944 -0.261056,-0.183444 -0.148167,-0.0635 -0.261056,-0.09172 l -0.543278,-0.155222 q -0.522111,-0.148167 -0.754945,-0.416278 -0.232833,-0.268111 -0.232833,-0.620889 0,-0.331612 0.169333,-0.578556 0.169334,-0.246945 0.458612,-0.381 0.289278,-0.134056 0.642056,-0.134056 0.479778,0 0.867834,0.254 0.395111,0.246945 0.557389,0.691445 l -0.451556,0.211667 q -0.141111,-0.3175 -0.409223,-0.493889 -0.261055,-0.183445 -0.585611,-0.183445 -0.3175,0 -0.508,0.162278 -0.1905,0.162278 -0.1905,0.409222 0,0.190501 0.09878,0.30339 0.09878,0.112888 0.225778,0.169333 0.134056,0.05644 0.232834,0.08467 l 0.627945,0.183444 q 0.458611,0.134056 0.712611,0.416278 0.261056,0.282223 0.261056,0.663223 0,0.310445 -0.176389,0.557389 -0.169334,0.246945 -0.472723,0.388056 -0.303389,0.134056 -0.6985,0.134056 z m 4.000508,0 q -0.529167,0 -0.959556,-0.254001 -0.423334,-0.261055 -0.670278,-0.712611 -0.246945,-0.451556 -0.246945,-1.023056 0,-0.571501 0.239889,-1.008945 0.239889,-0.444501 0.649112,-0.698501 0.416278,-0.254 0.931334,-0.254 0.409222,0 0.726722,0.155222 0.324556,0.148167 0.550334,0.409223 0.225778,0.254 0.345722,0.578556 0.119945,0.3175 0.119945,0.656167 0,0.07055 -0.0071,0.162278 -0.0071,0.08467 -0.02117,0.176389 h -3.196169 v -0.49389 h 2.89278 l -0.254,0.211667 q 0.0635,-0.388056 -0.09172,-0.691445 -0.148167,-0.310444 -0.430389,-0.486833 -0.282222,-0.183445 -0.635,-0.183445 -0.352778,0 -0.656167,0.183445 -0.296334,0.183444 -0.465667,0.515056 -0.169334,0.324555 -0.134056,0.776111 -0.03528,0.451556 0.141111,0.790223 0.183445,0.331611 0.493889,0.515056 0.317501,0.183444 0.677334,0.183444 0.416278,0 0.698501,-0.197555 0.282222,-0.197556 0.458611,-0.493889 l 0.451556,0.239889 q -0.112889,0.254 -0.345723,0.472722 -0.232833,0.211667 -0.557389,0.345723 -0.3175,0.127 -0.705556,0.127 z m 3.640667,0 q -0.359833,0 -0.642056,-0.134056 -0.282222,-0.141111 -0.4445,-0.381 -0.162278,-0.239889 -0.162278,-0.550334 0,-0.296333 0.127,-0.536222 0.127,-0.246945 0.395112,-0.416279 0.268111,-0.169333 0.684389,-0.239889 l 1.481667,-0.246944 v 0.479778 l -1.354667,0.225778 q -0.409223,0.07055 -0.592667,0.261056 -0.176389,0.1905 -0.176389,0.451555 0,0.254001 0.197556,0.43039 0.204611,0.176389 0.522111,0.176389 0.388056,0 0.677334,-0.162278 0.289278,-0.169334 0.451556,-0.451556 0.162277,-0.282223 0.162277,-0.627945 v -0.959556 q 0,-0.338667 -0.246944,-0.550334 -0.246945,-0.211667 -0.642056,-0.211667 -0.345723,0 -0.606778,0.176389 -0.261056,0.169334 -0.388056,0.444501 l -0.479778,-0.261056 q 0.105833,-0.239889 0.331611,-0.437445 0.232834,-0.197556 0.529167,-0.310444 0.296334,-0.119945 0.613834,-0.119945 0.416278,0 0.733778,0.162278 0.324556,0.162278 0.500945,0.451556 0.183445,0.282222 0.183445,0.656167 v 2.596446 h -0.529168 v -0.754945 l 0.07761,0.07761 q -0.09878,0.211667 -0.310445,0.388056 -0.204611,0.169333 -0.486834,0.275167 -0.275166,0.09878 -0.606778,0.09878 z m 2.94217,-0.08467 v -3.78178 h 0.529167 v 0.620889 l -0.07055,-0.09172 q 0.134055,-0.268112 0.402167,-0.423334 0.275166,-0.155222 0.663222,-0.155222 h 0.239889 v 0.529167 h -0.331611 q -0.409223,0 -0.656167,0.254 -0.246945,0.254 -0.246945,0.719667 v 2.328335 z m 4.11339,0.08467 q -0.55739,0 -0.980723,-0.261056 -0.423334,-0.261056 -0.663223,-0.705556 -0.239889,-0.451556 -0.239889,-1.016001 0,-0.564445 0.239889,-1.008945 0.239889,-0.4445 0.663223,-0.6985 0.423333,-0.261056 0.980723,-0.261056 0.352778,0 0.663222,0.127 0.310445,0.127 0.550334,0.345723 0.239889,0.211666 0.359833,0.493889 l -0.479778,0.246944 q -0.141111,-0.303389 -0.430389,-0.493889 -0.289278,-0.1905 -0.663222,-0.1905 -0.373945,0 -0.677334,0.1905 -0.296334,0.183445 -0.472723,0.515056 -0.169333,0.324556 -0.169333,0.740834 0,0.409222 0.169333,0.740834 0.176389,0.324555 0.472723,0.515056 0.303389,0.1905 0.677334,0.1905 0.373944,0 0.656167,-0.1905 0.289278,-0.190501 0.437444,-0.508001 l 0.479778,0.261056 q -0.119944,0.275167 -0.359833,0.493889 -0.239889,0.218722 -0.550334,0.345723 -0.310444,0.127 -0.663222,0.127 z m 2.504725,-0.08467 V 60.01103 h 0.529167 v 2.293057 l -0.119945,-0.02822 q 0.141111,-0.366889 0.458612,-0.578556 0.324555,-0.211667 0.747889,-0.211667 0.402167,0 0.719667,0.183445 0.324556,0.183444 0.508,0.508 0.190501,0.3175 0.190501,0.719667 v 2.455335 h -0.529167 v -2.250724 q 0,-0.345722 -0.127001,-0.585611 -0.127,-0.239889 -0.352778,-0.366889 -0.218722,-0.134056 -0.500944,-0.134056 -0.282223,0 -0.508001,0.134056 -0.225778,0.127 -0.359833,0.373944 -0.127,0.239889 -0.127,0.578556 v 2.250724 z"
         id="path16" />
    </g>
    <g
       id="text11-6"
       style="font-weight:bold;font-size:9.87777px;font-family:'Plus Jakarta Sans';-inkscape-font-specification:'Plus Jakarta Sans Bold';text-align:center;letter-spacing:0px;text-anchor:middle;fill:#ffffff;fill-opacity:1;stroke-width:4;paint-order:fill markers stroke"
       inkscape:label="browse-text"
       aria-label="↖↑ Browse&#10;"
       transform="translate(14.287495,16.933334)">
      <path
         style="font-weight:normal;font-size:7.05556px;-inkscape-font-specification:'Plus Jakarta Sans';fill:#ffffff;fill-opacity:1"
         d="m 204.74092,32.279163 v -5.256392 h 2.20839 q 0.4445,0 0.76906,0.169334 0.33161,0.162277 0.508,0.458611 0.18344,0.296333 0.18344,0.691445 0,0.409222 -0.20461,0.726723 -0.19755,0.310444 -0.5715,0.472722 l -0.007,-0.169333 q 0.31044,0.112889 0.52916,0.3175 0.22578,0.204611 0.34572,0.479778 0.11995,0.268111 0.11995,0.578556 0,0.705556 -0.45156,1.121834 -0.4445,0.409222 -1.21355,0.409222 z m 0.56445,-0.529167 h 1.651 q 0.50094,0 0.79728,-0.261055 0.30338,-0.268112 0.30338,-0.733779 0,-0.458611 -0.30338,-0.726722 -0.29634,-0.275167 -0.79728,-0.275167 h -1.651 z m 0,-2.504723 h 1.60161 q 0.42333,0 0.67733,-0.246945 0.26106,-0.246945 0.26106,-0.635001 0,-0.395111 -0.26106,-0.599722 -0.254,-0.211667 -0.67733,-0.211667 h -1.60161 z m 4.24745,3.03389 v -3.78178 h 0.52917 v 0.620889 l -0.0706,-0.09172 q 0.13406,-0.268111 0.40217,-0.423333 0.27516,-0.155223 0.66322,-0.155223 h 0.23989 v 0.529167 h -0.33161 q -0.40923,0 -0.65617,0.254 -0.24694,0.254001 -0.24694,0.719668 v 2.328334 z m 4.15572,0.08467 q -0.53622,0 -0.97367,-0.254 -0.43744,-0.261056 -0.6985,-0.705556 -0.254,-0.451556 -0.254,-1.023056 0,-0.564445 0.254,-1.008945 0.254,-0.444501 0.68439,-0.698501 0.43745,-0.261056 0.98778,-0.261056 0.55033,0 0.98072,0.254001 0.43745,0.254 0.68439,0.6985 0.254,0.4445 0.254,1.016001 0,0.578556 -0.26105,1.030111 -0.26106,0.444501 -0.6985,0.698501 -0.43039,0.254 -0.95956,0.254 z m 0,-0.529167 q 0.381,0 0.68439,-0.1905 0.31044,-0.1905 0.48683,-0.522111 0.18345,-0.331612 0.18345,-0.740834 0,-0.409223 -0.18345,-0.733779 -0.17639,-0.324555 -0.48683,-0.515055 -0.30339,-0.190501 -0.68439,-0.190501 -0.381,0 -0.69145,0.190501 -0.30338,0.1905 -0.48683,0.515055 -0.18344,0.324556 -0.18344,0.733779 0,0.409222 0.18344,0.740834 0.18345,0.331611 0.48683,0.522111 0.31045,0.1905 0.69145,0.1905 z m 3.61245,0.4445 -1.29822,-3.78178 h 0.59972 l 1.07244,3.309058 h -0.21166 l 1.00894,-3.309058 h 0.52917 l 1.00894,3.309058 h -0.21166 l 1.0795,-3.309058 h 0.59266 l -1.29822,3.78178 h -0.52917 l -0.98072,-3.238502 h 0.14817 l -0.98072,3.238502 z m 6.10306,0.08467 q -0.54327,0 -0.9525,-0.275167 -0.40922,-0.275167 -0.59266,-0.747889 l 0.4445,-0.211667 q 0.16227,0.345723 0.45155,0.550334 0.29634,0.204611 0.64911,0.204611 0.33867,0 0.5715,-0.162278 0.23284,-0.169333 0.23284,-0.437445 0,-0.197555 -0.11289,-0.310444 -0.11289,-0.119945 -0.26106,-0.183445 -0.14816,-0.0635 -0.26105,-0.09172 l -0.54328,-0.155222 q -0.52211,-0.148167 -0.75495,-0.416278 -0.23283,-0.268112 -0.23283,-0.62089 0,-0.331611 0.16933,-0.578556 0.16934,-0.246944 0.45862,-0.381 0.28927,-0.134056 0.64205,-0.134056 0.47978,0 0.86784,0.254001 0.39511,0.246944 0.55738,0.691444 l -0.45155,0.211667 q -0.14111,-0.3175 -0.40922,-0.493889 -0.26106,-0.183444 -0.58562,-0.183444 -0.3175,0 -0.508,0.162277 -0.1905,0.162278 -0.1905,0.409223 0,0.1905 0.0988,0.303389 0.0988,0.112889 0.22578,0.169333 0.13406,0.05645 0.23283,0.08467 l 0.62795,0.183445 q 0.45861,0.134055 0.71261,0.416278 0.26106,0.282222 0.26106,0.663222 0,0.310445 -0.17639,0.55739 -0.16934,0.246944 -0.47273,0.388055 -0.30339,0.134056 -0.6985,0.134056 z m 4.00051,0 q -0.52917,0 -0.95955,-0.254 -0.42334,-0.261056 -0.67028,-0.712612 -0.24695,-0.451556 -0.24695,-1.023056 0,-0.5715 0.23989,-1.008945 0.23989,-0.4445 0.64911,-0.6985 0.41628,-0.254001 0.93134,-0.254001 0.40922,0 0.72672,0.155223 0.32456,0.148167 0.55033,0.409222 0.22578,0.254 0.34573,0.578556 0.11994,0.3175 0.11994,0.656167 0,0.07056 -0.007,0.162278 -0.007,0.08467 -0.0212,0.176389 h -3.19617 v -0.493889 h 2.89278 l -0.254,0.211667 q 0.0635,-0.388056 -0.0917,-0.691445 -0.14817,-0.310445 -0.43039,-0.486834 -0.28222,-0.183444 -0.635,-0.183444 -0.35278,0 -0.65617,0.183444 -0.29633,0.183445 -0.46567,0.515056 -0.16933,0.324556 -0.13405,0.776112 -0.0353,0.451556 0.14111,0.790222 0.18344,0.331612 0.49389,0.515056 0.3175,0.183445 0.67733,0.183445 0.41628,0 0.6985,-0.197556 0.28222,-0.197555 0.45861,-0.493889 l 0.45156,0.239889 q -0.11289,0.254 -0.34572,0.472723 -0.23284,0.211666 -0.55739,0.345722 -0.3175,0.127 -0.70556,0.127 z"
         id="path15" />
    </g>
    <g
       id="text19"
       style="font-weight:bold;font-size:12.1574px;font-family:'Plus Jakarta Sans';-inkscape-font-specification:'Plus Jakarta Sans Bold';letter-spacing:0px;fill:#5e5e5e;fill-opacity:1;stroke-width:4.92312;paint-order:fill markers stroke"
       inkscape:label="browser-text"
       aria-label="← →  ↻   tesshub.org                                                                                                      ☆   ⋮">
      <path
         d="M 9.2926472,9.6631622 H 7.4204076 L 4.5998908,6.6724418 V 6.0159422 L 7.4204076,3.0495366 H 9.2926472 L 5.7791586,6.8791176 V 5.8092664 Z M 12.246895,7.0614786 H 5.8764178 V 5.6512202 H 12.246895 Z M 20.29508,9.6631622 23.820726,5.8092664 V 6.8791176 L 20.29508,3.0495366 h 1.884397 l 2.820517,2.9664056 V 6.6724418 L 22.179477,9.6631622 Z M 17.340832,7.0614786 V 5.6512202 h 6.382635 V 7.0614786 Z M 38.205095,2.5990479 q 0.985414,1.1516287 0.985414,2.67724 0,1.7036981 -1.222863,2.9206254 -1.216928,1.210991 -2.91469,1.210991 -1.697762,0 -2.914689,-1.2169272 -1.216927,-1.2228635 -1.216927,-2.9146892 0,-1.6799533 1.151629,-2.8731356 L 30.933212,1.8926365 33.764794,1.1387352 33.010893,3.9762534 32.488505,2.8186884 q -0.985414,1.0388404 -0.985414,2.4575995 0,1.4603127 1.044776,2.5050893 1.044777,1.0447765 2.505089,1.0447765 1.460313,0 2.50509,-1.0447765 1.044776,-1.0447766 1.044776,-2.5050893 0,-1.311907 -0.848881,-2.3091937 z"
         id="path19"
         style="fill:#5e5e5e;fill-opacity:1" />
      <path
         style="font-weight:normal;font-size:8.46667px;-inkscape-font-specification:'Plus Jakarta Sans';fill:#5e5e5e;fill-opacity:1"
         d="m 52.435478,9.7139623 q -0.6096,0 -0.939801,-0.3556002 -0.3302,-0.3556001 -0.3302,-1.0160004 V 5.7600273 h -0.8382 V 5.1250271 h 0.211667 q 0.287866,0 0.4572,-0.1862667 0.169333,-0.1947335 0.169333,-0.4826002 V 4.07516 h 0.635001 v 1.0498671 h 0.999067 v 0.6350002 h -0.999067 v 2.5823344 q 0,0.2286001 0.06773,0.4064002 0.06773,0.1693334 0.2286,0.2709334 0.169333,0.1016 0.448733,0.1016 0.06773,0 0.160867,-0.00847 0.09313,-0.00847 0.160867,-0.016933 v 0.5672669 q -0.1016,0.0254 -0.2286,0.033867 -0.127,0.016933 -0.2032,0.016933 z m 3.445934,0.0508 q -0.635,0 -1.151467,-0.3048001 -0.508,-0.3132668 -0.804334,-0.8551337 -0.296333,-0.5418669 -0.296333,-1.2276672 0,-0.6858003 0.287867,-1.2107338 0.287866,-0.5334002 0.778933,-0.8382003 0.499534,-0.3048001 1.117601,-0.3048001 0.491067,0 0.872067,0.1862667 0.389466,0.1778001 0.6604,0.4910669 0.270933,0.3048001 0.414867,0.6942669 0.143933,0.3810001 0.143933,0.7874003 0,0.084667 -0.0085,0.1947334 -0.0085,0.1016001 -0.0254,0.2116668 H 54.035678 V 6.9961612 h 3.471335 l -0.3048,0.2540001 q 0.0762,-0.4656669 -0.110067,-0.8297337 -0.1778,-0.3725335 -0.516467,-0.5842002 -0.338667,-0.2201334 -0.762,-0.2201334 -0.423334,0 -0.787401,0.2201334 -0.3556,0.2201334 -0.5588,0.6180669 -0.2032,0.3894668 -0.160867,0.9313337 -0.04233,0.5418669 0.169334,0.948267 0.220133,0.3979335 0.592667,0.6180669 0.381,0.2201335 0.8128,0.2201335 0.499534,0 0.8382,-0.2370668 0.338667,-0.2370668 0.550334,-0.5926669 l 0.541867,0.2878668 q -0.135467,0.3048001 -0.414867,0.5672669 -0.2794,0.2540001 -0.668867,0.4148668 -0.381,0.1524001 -0.846667,0.1524001 z m 4.715934,0 q -0.651934,0 -1.143001,-0.3302002 -0.491066,-0.3302001 -0.7112,-0.897467 l 0.5334,-0.2540001 q 0.194734,0.4148668 0.541867,0.6604003 0.3556,0.2455334 0.778934,0.2455334 0.4064,0 0.6858,-0.1947334 0.2794,-0.2032001 0.2794,-0.5249335 0,-0.2370668 -0.135466,-0.3725335 -0.135467,-0.1439334 -0.313267,-0.2201334 -0.1778,-0.0762 -0.313267,-0.1100668 L 60.148612,7.5803614 q -0.626533,-0.1778001 -0.905933,-0.4995335 -0.2794,-0.3217335 -0.2794,-0.745067 0,-0.3979335 0.2032,-0.6942669 0.2032,-0.2963335 0.550333,-0.4572002 0.347134,-0.1608667 0.770467,-0.1608667 0.575734,0 1.041401,0.3048001 0.474133,0.2963334 0.668867,0.8297336 L 61.65568,6.4119609 Q 61.486346,6.0309608 61.164613,5.819294 60.851346,5.5991606 60.461879,5.5991606 q -0.381,0 -0.6096,0.1947334 -0.2286,0.1947334 -0.2286,0.4910669 0,0.2286001 0.118533,0.3640668 0.118534,0.1354667 0.270934,0.2032001 0.160866,0.067733 0.2794,0.1016 l 0.753533,0.2201334 q 0.550334,0.1608668 0.855134,0.4995336 0.313267,0.3386668 0.313267,0.795867 0,0.3725334 -0.211667,0.6688669 -0.2032,0.2963334 -0.567267,0.4656668 -0.364067,0.1608668 -0.8382,0.1608668 z m 4.30954,0 q -0.651934,0 -1.143001,-0.3302002 -0.491067,-0.3302001 -0.7112,-0.897467 l 0.5334,-0.2540001 q 0.194734,0.4148668 0.541867,0.6604003 0.3556,0.2455334 0.778934,0.2455334 0.4064,0 0.6858,-0.1947334 0.2794,-0.2032001 0.2794,-0.5249335 0,-0.2370668 -0.135467,-0.3725335 -0.135466,-0.1439334 -0.313266,-0.2201334 -0.177801,-0.0762 -0.313267,-0.1100668 L 64.458152,7.5803614 q -0.626533,-0.1778001 -0.905934,-0.4995335 -0.2794,-0.3217335 -0.2794,-0.745067 0,-0.3979335 0.2032,-0.6942669 0.203201,-0.2963335 0.550334,-0.4572002 0.347133,-0.1608667 0.770467,-0.1608667 0.575734,0 1.0414,0.3048001 0.474134,0.2963334 0.668867,0.8297336 L 65.965219,6.4119609 Q 65.795886,6.0309608 65.474153,5.819294 65.160886,5.5991606 64.771419,5.5991606 q -0.381,0 -0.6096,0.1947334 -0.2286,0.1947334 -0.2286,0.4910669 0,0.2286001 0.118533,0.3640668 0.118533,0.1354667 0.270933,0.2032001 0.160867,0.067733 0.279401,0.1016 l 0.753533,0.2201334 q 0.550334,0.1608668 0.855134,0.4995336 0.313267,0.3386668 0.313267,0.795867 0,0.3725334 -0.211667,0.6688669 -0.2032,0.2963334 -0.567267,0.4656668 -0.364067,0.1608668 -0.8382,0.1608668 z M 67.641629,9.6631622 V 3.253893 h 0.635 v 2.7516678 l -0.143933,-0.033867 q 0.169333,-0.4402668 0.550333,-0.6942669 0.389467,-0.2540001 0.897467,-0.2540001 0.4826,0 0.8636,0.2201334 0.389467,0.2201334 0.609601,0.6096002 0.2286,0.3810002 0.2286,0.8636004 v 2.9464011 h -0.635 V 6.9622945 q 0,-0.4148668 -0.152401,-0.7027336 -0.1524,-0.2878668 -0.423333,-0.4402669 -0.262467,-0.1608667 -0.601134,-0.1608667 -0.338666,0 -0.6096,0.1608667 -0.270933,0.1524001 -0.4318,0.4487335 -0.1524,0.2878668 -0.1524,0.694267 v 2.7008677 z m 6.460069,0.1016001 q -0.474133,0 -0.8636,-0.2201334 Q 72.848631,9.3160288 72.620031,8.9180953 72.399898,8.5116951 72.399898,7.9867616 V 5.1250271 h 0.635 v 2.7855344 q 0,0.3640668 0.143933,0.643467 0.1524,0.2709334 0.414867,0.4233335 0.270933,0.1524 0.618067,0.1524 0.347133,0 0.618067,-0.1524 0.270933,-0.1608668 0.423333,-0.4487336 0.1524,-0.2963334 0.1524,-0.7027336 V 5.1250271 h 0.635001 V 9.6631622 H 75.405565 V 8.7826285 l 0.143934,0.033867 q -0.160867,0.4402669 -0.550334,0.694267 -0.389467,0.2540001 -0.897467,0.2539998 z m 5.537203,0 q -0.5842,0 -1.058334,-0.2624668 Q 78.1149,9.2313621 77.877833,8.7402952 l 0.1016,-0.093133 v 1.0160004 h -0.635 V 3.253893 h 0.635 v 2.8871345 l -0.1016,-0.1778001 q 0.270934,-0.4318001 0.719667,-0.6858002 0.457201,-0.2540001 1.041401,-0.2540001 0.643467,0 1.143,0.3132667 0.508,0.3048002 0.795867,0.8382004 0.296334,0.5334002 0.296334,1.2192005 0,0.6773336 -0.296334,1.2192004 -0.287867,0.5334003 -0.795867,0.8466671 -0.499533,0.3048001 -1.143,0.3048001 z M 79.605034,9.129762 q 0.4572,0 0.8128,-0.2286001 0.364067,-0.2286001 0.567267,-0.6180669 0.211667,-0.3979335 0.211667,-0.8890003 0,-0.4995336 -0.211667,-0.8890004 -0.2032,-0.3894668 -0.567267,-0.6180669 -0.3556,-0.2286001 -0.8128,-0.2286001 -0.4572,0 -0.829734,0.2286001 -0.364066,0.2286001 -0.5842,0.6265336 -0.211667,0.3894668 -0.211667,0.8805337 0,0.4910668 0.211667,0.8890003 0.220134,0.3894668 0.5842,0.6180669 0.372534,0.2286001 0.829734,0.2286001 z m 3.606795,0.5334002 V 8.7318285 h 0.677334 v 0.9313337 z m 4.326464,0.1016001 q -0.643467,0 -1.1684,-0.3048001 -0.524934,-0.3132668 -0.838201,-0.8466671 -0.3048,-0.5418668 -0.3048,-1.2276671 0,-0.6773336 0.3048,-1.2107338 0.3048,-0.5334002 0.821267,-0.8382004 0.524934,-0.3132667 1.185334,-0.3132667 0.6604,0 1.176867,0.3048001 0.524934,0.3048001 0.821267,0.8382003 0.3048,0.5334002 0.3048,1.2192005 0,0.6942669 -0.313267,1.2361338 -0.313266,0.5334002 -0.8382,0.8382004 -0.516467,0.3048001 -1.151467,0.3048001 z m 0,-0.6350003 q 0.4572,0 0.821267,-0.2286001 0.372533,-0.2286001 0.5842,-0.6265336 0.220134,-0.3979334 0.220134,-0.8890003 0,-0.4910669 -0.220134,-0.8805337 -0.211667,-0.3894668 -0.5842,-0.6180669 -0.364067,-0.2286001 -0.821267,-0.2286001 -0.4572,0 -0.829734,0.2286001 -0.364066,0.2286001 -0.5842,0.6180669 -0.220133,0.3894668 -0.220133,0.8805337 0,0.4910669 0.220133,0.8890003 0.220134,0.3979335 0.5842,0.6265336 0.372534,0.2286001 0.829734,0.2286001 z m 3.420543,0.5334002 V 5.1250271 h 0.635 v 0.745067 L 91.50917,5.7600273 q 0.160866,-0.3217334 0.4826,-0.5080002 0.3302,-0.1862667 0.795867,-0.1862667 h 0.287867 V 5.7007607 H 92.67757 q -0.491067,0 -0.7874,0.3048001 -0.296334,0.3048001 -0.296334,0.8636003 v 2.7940011 z m 5.012259,1.8626678 q -0.465667,0 -0.8636,-0.143934 -0.389467,-0.143933 -0.677334,-0.397933 -0.2794,-0.245534 -0.4318,-0.575734 l 0.5842,-0.313267 q 0.135467,0.321734 0.4826,0.558801 0.347134,0.237066 0.889001,0.237066 0.414867,0 0.762,-0.160866 0.347133,-0.160867 0.5588,-0.474134 0.211667,-0.3132667 0.211667,-0.7704668 V 8.4778284 l 0.1016,0.093133 q -0.237067,0.4910669 -0.702734,0.7620003 -0.465666,0.2624668 -1.016,0.2624668 -0.635,0 -1.143,-0.3048002 Q 94.218494,8.9858286 93.922161,8.4693618 93.634294,7.9444282 93.634294,7.309428 q 0,-0.643467 0.287867,-1.1599338 0.296333,-0.5164669 0.795867,-0.821267 0.508,-0.3048001 1.151467,-0.3048001 0.550334,0 0.999067,0.2540001 0.4572,0.2540001 0.719667,0.6858002 l -0.1016,0.1778001 V 5.1250271 h 0.635 v 4.3603351 q 0,0.5841998 -0.2794,1.0414008 -0.270933,0.465666 -0.762,0.728133 -0.4826,0.270934 -1.109134,0.270934 z m -0.06773,-2.5654014 q 0.440267,0 0.795867,-0.2201334 0.3556,-0.2286001 0.567267,-0.6011336 0.220133,-0.3810001 0.220133,-0.8297336 0,-0.4487336 -0.220133,-0.821267 -0.211667,-0.3810002 -0.567267,-0.6011336 -0.3556,-0.2286001 -0.795867,-0.2286001 -0.448734,0 -0.812801,0.2286001 -0.364066,0.2201334 -0.575733,0.5926669 -0.2032,0.3725335 -0.2032,0.8297337 0,0.4487335 0.2032,0.8297336 0.211667,0.3725335 0.567267,0.6011336 0.364067,0.2201334 0.821267,0.2201334 z M 247.20283,9.7647623 248.00716,7.284028 245.8905,5.743094 h 2.6162 l 0.80433,-2.489201 0.8128,2.489201 h 2.6162 l -2.11667,1.540934 0.8128,2.4807343 -2.12513,-1.5324673 z m 0.9652,-1.3292672 1.143,-0.8297337 1.15993,0.8382003 -0.44873,-1.3546672 1.15993,-0.8382003 h -1.43086 l -0.44027,-1.3546672 -0.4318,1.3546672 h -1.43087 l 1.15147,0.8382003 z M 258.9712,4.0242277 h -0.8475 V 3.1767339 h 0.8475 z m 0,2.8194673 h -0.8475 V 5.9962011 h 0.8475 z m 0,2.8194672 h -0.8475 V 8.8156684 h 0.8475 z"
         id="path20" />
    </g>
  </g>
</svg>
